<svg width="976" height="786" viewBox="0 0 976 786" fill="none" xmlns="http://www.w3.org/2000/svg">
<g filter="url(#filter0_d_89_3)">
<ellipse cx="495.5" cy="389" rx="491.5" ry="389" fill="url(#paint0_radial_89_3)"/>
<path fill-rule="evenodd" clip-rule="evenodd" d="M515.452 494.175H555.344V452.336L515.452 452.336L515.452 494.175ZM515.452 451.336L555.344 451.336V414.339H515.452V451.336ZM514.452 414.339V451.336L475.508 451.336V414.339H514.452ZM514.452 452.336L514.452 494.175H475.508V452.336L514.452 452.336Z" fill="#C6C6C6"/>
<path fill-rule="evenodd" clip-rule="evenodd" d="M668.018 495.777L516.12 122L464.106 249.991V151.031H435.075V321.429L364.222 495.777L516.12 344.573L668.018 495.777Z" fill="url(#paint1_linear_89_3)"/>
<path d="M365.242 551.865C361.06 551.865 357.306 550.841 353.978 548.793C350.692 546.745 348.111 543.972 346.234 540.473C344.399 536.932 343.482 533.049 343.482 528.825C343.482 524.772 344.292 521.103 345.914 517.817C347.535 514.489 349.839 511.865 352.826 509.945C355.855 508.025 359.354 507.065 363.322 507.065C366.991 507.065 370.148 507.556 372.794 508.537C375.482 509.476 377.444 510.692 378.682 512.185C379.364 513.039 379.791 514.169 379.962 515.577C380.175 516.985 380.282 518.735 380.282 520.825H379.002C378.191 517.071 376.655 514.276 374.394 512.441C372.132 510.564 369.082 509.625 365.242 509.625C361.786 509.625 358.906 510.543 356.602 512.377C354.298 514.169 352.591 516.516 351.482 519.417C350.415 522.319 349.882 525.455 349.882 528.825C349.882 536.036 351.29 541.263 354.106 544.505C356.922 547.705 360.634 549.305 365.242 549.305C367.418 549.305 369.274 549.113 370.81 548.729C372.346 548.345 373.796 547.791 375.162 547.065V535.929C375.162 534.479 375.396 533.22 375.866 532.153C376.335 531.087 377.338 530.212 378.874 529.529C380.452 528.804 382.735 528.441 385.722 528.441V529.721C383.802 529.721 382.522 530.212 381.882 531.193C381.242 532.175 380.922 533.711 380.922 535.801V547.833C378.618 549.241 376.207 550.265 373.69 550.905C371.172 551.545 368.356 551.865 365.242 551.865ZM393.512 516.025C393.512 513.849 393.214 512.249 392.616 511.225C392.019 510.159 390.824 509.625 389.032 509.625H387.752V508.345H393.512C395.091 508.345 396.264 508.559 397.032 508.985C397.843 509.369 398.419 510.095 398.76 511.161C399.102 512.228 399.272 513.849 399.272 516.025V527.545H418.472V508.345H424.232V542.905C424.232 545.081 424.531 546.703 425.128 547.769C425.726 548.793 426.92 549.305 428.712 549.305H429.992V550.585H424.232C422.654 550.585 421.459 550.393 420.648 550.009C419.88 549.583 419.326 548.836 418.984 547.769C418.643 546.703 418.472 545.081 418.472 542.905V530.105H399.272V550.585H393.512V516.025ZM470.474 550.905C468.426 550.905 466.399 550.351 464.394 549.241C462.388 548.089 460.788 545.871 459.594 542.585L457.994 538.425H440.074L434.954 550.585H432.074L449.994 508.345H451.914L465.994 542.585C467.06 545.06 468.063 546.767 469.002 547.705C469.94 548.601 471.284 549.135 473.034 549.305V550.585C472.266 550.799 471.412 550.905 470.474 550.905ZM441.034 535.865H456.714L449.034 517.305L441.034 535.865ZM506.235 551.225C503.973 551.225 501.989 550.564 500.283 549.241C498.619 547.876 496.763 545.444 494.715 541.945L488.315 531.065H483.835V550.585H478.075V516.025C478.075 513.849 477.776 512.249 477.179 511.225C476.581 510.159 475.387 509.625 473.595 509.625H472.315V508.345H488.955C493.008 508.345 496.677 509.156 499.963 510.777C503.291 512.356 504.955 515.385 504.955 519.865C504.955 525.54 501.541 529.167 494.715 530.745L501.435 541.945C503.013 544.591 504.421 546.447 505.659 547.513C506.939 548.537 508.411 549.135 510.075 549.305V550.585C509.691 550.756 509.136 550.905 508.411 551.033C507.728 551.161 507.003 551.225 506.235 551.225ZM488.635 528.825C489.957 528.825 491.387 528.505 492.923 527.865C494.501 527.225 495.824 526.223 496.891 524.857C498 523.492 498.555 521.828 498.555 519.865C498.555 517.775 498 516.047 496.891 514.681C495.824 513.273 494.501 512.249 492.923 511.609C491.387 510.927 489.957 510.585 488.635 510.585C487.141 510.585 485.541 510.799 483.835 511.225V528.185C485.541 528.612 487.141 528.825 488.635 528.825ZM543.401 551.673C541.055 551.673 538.751 551.353 536.489 550.713C534.228 550.073 532.372 549.156 530.921 547.961C529.513 546.767 528.809 545.401 528.809 543.865V537.017H529.961C530.687 541.284 532.095 544.377 534.185 546.297C536.276 548.175 539.156 549.113 542.825 549.113C545.129 549.113 547.092 548.537 548.713 547.385C550.377 546.233 551.209 544.633 551.209 542.585C551.209 540.793 550.655 539.236 549.545 537.913C548.436 536.591 546.644 535.204 544.169 533.753L536.297 529.081C533.567 527.46 531.625 525.817 530.473 524.153C529.364 522.489 528.809 520.463 528.809 518.073C528.809 514.788 529.94 512.164 532.201 510.201C534.505 508.196 537.513 507.193 541.225 507.193C543.401 507.193 545.556 507.513 547.689 508.153C549.823 508.751 551.572 509.647 552.937 510.841C554.345 511.993 555.049 513.337 555.049 514.873V521.721H553.897C553.172 517.455 551.785 514.404 549.737 512.569C547.732 510.692 544.895 509.753 541.225 509.753C539.263 509.753 537.535 510.351 536.041 511.545C534.548 512.74 533.801 514.297 533.801 516.217C533.801 517.967 534.335 519.417 535.401 520.569C536.511 521.721 538.345 523.065 540.905 524.601L548.777 529.273C551.679 531.023 553.727 532.644 554.921 534.137C556.116 535.631 556.713 537.529 556.713 539.833C556.713 543.417 555.519 546.297 553.129 548.473C550.74 550.607 547.497 551.673 543.401 551.673ZM564.47 515.833C563.617 513.359 562.7 511.673 561.718 510.777C560.78 509.839 559.35 509.284 557.43 509.113V507.833C557.644 507.833 557.964 507.812 558.39 507.769C558.774 507.727 559.18 507.705 559.606 507.705C561.953 507.705 564.065 508.239 565.942 509.305C567.862 510.372 569.398 512.548 570.55 515.833L579.126 540.537L585.974 520.249L584.438 515.833C583.585 513.359 582.668 511.673 581.686 510.777C580.748 509.839 579.318 509.284 577.398 509.113V507.833C577.612 507.833 577.91 507.812 578.294 507.769C578.721 507.727 579.148 507.705 579.574 507.705C581.921 507.705 584.033 508.239 585.91 509.305C587.83 510.372 589.366 512.548 590.518 515.833L599.094 540.537L610.038 508.345H612.79L598.134 551.225H596.854L587.382 524.281L578.166 551.225H576.886L564.47 515.833ZM621.7 516.025C621.7 513.849 621.401 512.249 620.804 511.225C620.206 510.159 619.012 509.625 617.22 509.625H615.94V508.345H643.204C646.83 508.345 648.644 510.052 648.644 513.465V518.265H647.364C647.364 513.359 644.697 510.905 639.364 510.905H627.46V527.545H644.74V530.105H627.46V548.025H638.66C641.604 548.025 643.908 547.492 645.572 546.425C647.236 545.359 648.558 543.545 649.54 540.985L650.82 541.305L648.58 547.385C647.812 549.519 646.212 550.585 643.78 550.585H621.7V516.025ZM692.474 550.905C690.426 550.905 688.399 550.351 686.394 549.241C684.388 548.089 682.788 545.871 681.594 542.585L679.994 538.425H662.074L656.954 550.585H654.074L671.994 508.345H673.914L687.994 542.585C689.06 545.06 690.063 546.767 691.002 547.705C691.94 548.601 693.284 549.135 695.034 549.305V550.585C694.266 550.799 693.412 550.905 692.474 550.905ZM663.034 535.865H678.714L671.034 517.305L663.034 535.865Z" fill="#23A758"/>
<path d="M382.108 599.172L375.988 589.92C375.364 589.032 374.836 588.336 374.404 587.832C373.972 587.328 373.456 586.908 372.856 586.572C372.28 586.212 371.584 586.008 370.768 585.96V585.24H374.008C375.208 585.24 376.216 585.6 377.032 586.32C377.848 587.016 378.64 587.976 379.408 589.2L384.628 597.3L392.152 585.24H393.772L385.348 598.92V609H382.108V599.172ZM400.509 609.36C398.877 609.36 397.461 608.976 396.261 608.208C395.061 607.416 394.149 606.348 393.525 605.004C392.901 603.66 392.589 602.172 392.589 600.54C392.589 598.908 392.901 597.42 393.525 596.076C394.149 594.732 395.061 593.676 396.261 592.908C397.461 592.116 398.877 591.72 400.509 591.72C402.141 591.72 403.557 592.116 404.757 592.908C405.957 593.676 406.869 594.732 407.493 596.076C408.117 597.42 408.429 598.908 408.429 600.54C408.429 602.172 408.117 603.66 407.493 605.004C406.869 606.348 405.957 607.416 404.757 608.208C403.557 608.976 402.141 609.36 400.509 609.36ZM400.509 607.92C401.397 607.92 402.177 607.596 402.849 606.948C403.545 606.3 404.073 605.412 404.433 604.284C404.817 603.156 405.009 601.908 405.009 600.54C405.009 599.172 404.817 597.924 404.433 596.796C404.073 595.668 403.545 594.78 402.849 594.132C402.177 593.484 401.397 593.16 400.509 593.16C399.621 593.16 398.829 593.484 398.133 594.132C397.461 594.78 396.933 595.668 396.549 596.796C396.189 597.924 396.009 599.172 396.009 600.54C396.009 601.908 396.189 603.156 396.549 604.284C396.933 605.412 397.461 606.3 398.133 606.948C398.829 607.596 399.621 607.92 400.509 607.92ZM418.807 609.36C417.007 609.36 415.531 608.88 414.379 607.92C413.251 606.96 412.687 605.28 412.687 602.88V596.4C412.687 595.176 412.519 594.276 412.183 593.7C411.847 593.1 411.175 592.8 410.167 592.8H409.807V592.08H412.687C413.575 592.08 414.235 592.2 414.667 592.44C415.123 592.656 415.447 593.064 415.639 593.664C415.831 594.264 415.927 595.176 415.927 596.4V602.88C415.927 604.56 416.299 605.796 417.043 606.588C417.811 607.356 418.759 607.74 419.887 607.74C421.159 607.74 422.359 607.104 423.487 605.832V592.08H426.727V609H424.927L423.667 607.56H423.487C422.983 608.064 422.323 608.496 421.507 608.856C420.715 609.192 419.815 609.36 418.807 609.36ZM432.204 596.4C432.204 595.176 432.036 594.276 431.7 593.7C431.364 593.1 430.692 592.8 429.684 592.8H429.324V592.08H432.204C433.116 592.08 433.8 592.212 434.256 592.476C434.736 592.716 435.072 593.124 435.264 593.7H435.444C435.876 593.148 436.452 592.68 437.172 592.296C437.916 591.912 438.78 591.72 439.764 591.72C440.724 591.72 441.444 591.9 441.924 592.26C442.332 592.572 442.752 593.112 443.184 593.88L441.744 594.96C441.48 594.6 441.096 594.336 440.592 594.168C440.088 593.976 439.512 593.88 438.864 593.88C438.144 593.88 437.484 594.048 436.884 594.384C436.284 594.696 435.804 595.128 435.444 595.68V609H432.204V596.4ZM456.449 589.56C456.449 588.336 456.281 587.436 455.945 586.86C455.609 586.26 454.937 585.96 453.929 585.96H453.209V585.24H456.449C457.337 585.24 457.997 585.36 458.429 585.6C458.885 585.816 459.209 586.224 459.401 586.824C459.593 587.424 459.689 588.336 459.689 589.56V596.04H470.489V585.24H473.729V604.68C473.729 605.904 473.897 606.816 474.233 607.416C474.569 607.992 475.241 608.28 476.249 608.28H476.969V609H473.729C472.841 609 472.169 608.892 471.713 608.676C471.281 608.436 470.969 608.016 470.777 607.416C470.585 606.816 470.489 605.904 470.489 604.68V597.48H459.689V609H456.449V589.56ZM486.422 609.36C484.79 609.36 483.41 608.976 482.282 608.208C481.154 607.416 480.302 606.36 479.726 605.04C479.15 603.696 478.862 602.196 478.862 600.54C478.862 598.908 479.15 597.42 479.726 596.076C480.302 594.732 481.13 593.676 482.21 592.908C483.314 592.116 484.598 591.72 486.062 591.72C488.486 591.72 490.286 592.404 491.462 593.772C492.662 595.116 493.262 597.072 493.262 599.64L493.19 601.08H482.282C482.282 603.096 482.714 604.74 483.578 606.012C484.442 607.284 485.63 607.92 487.142 607.92C488.27 607.92 489.218 607.68 489.986 607.2C490.778 606.72 491.51 606 492.182 605.04L492.902 605.58C492.11 606.9 491.186 607.86 490.13 608.46C489.074 609.06 487.838 609.36 486.422 609.36ZM489.842 599.64C489.842 597.528 489.53 595.92 488.906 594.816C488.282 593.712 487.334 593.16 486.062 593.16C485.342 593.16 484.694 593.448 484.118 594.024C483.542 594.576 483.086 595.344 482.75 596.328C482.438 597.312 482.282 598.416 482.282 599.64H489.842ZM497.556 589.56C497.556 588.336 497.388 587.436 497.052 586.86C496.716 586.26 496.044 585.96 495.036 585.96H494.316V585.24H497.556C498.444 585.24 499.104 585.36 499.536 585.6C499.992 585.816 500.316 586.224 500.508 586.824C500.7 587.424 500.796 588.336 500.796 589.56V609H497.556V589.56ZM506.671 596.4C506.671 595.176 506.503 594.276 506.167 593.7C505.831 593.1 505.159 592.8 504.151 592.8H503.431V592.08H506.671C507.583 592.08 508.267 592.212 508.723 592.476C509.203 592.716 509.539 593.124 509.731 593.7H509.911C510.343 593.148 510.955 592.68 511.747 592.296C512.539 591.912 513.547 591.72 514.771 591.72C516.835 591.72 518.431 592.56 519.559 594.24C520.687 595.896 521.251 597.996 521.251 600.54C521.251 603.108 520.663 605.22 519.487 606.876C518.335 608.532 516.643 609.36 514.411 609.36C513.499 609.36 512.695 609.264 511.999 609.072C511.303 608.88 510.607 608.616 509.911 608.28V615.84H506.671V596.4ZM513.331 607.92C514.867 607.92 515.995 607.248 516.715 605.904C517.459 604.56 517.831 602.772 517.831 600.54C517.831 598.332 517.483 596.556 516.787 595.212C516.091 593.844 515.059 593.16 513.691 593.16C512.083 593.16 510.823 593.88 509.911 595.32V606.84C510.631 607.176 511.255 607.44 511.783 607.632C512.311 607.824 512.827 607.92 513.331 607.92ZM527.41 589.92C526.858 589.92 526.378 589.692 525.97 589.236C525.586 588.78 525.394 588.24 525.394 587.616C525.394 587.112 525.538 586.716 525.826 586.428C526.138 586.14 526.546 585.996 527.05 585.996C527.602 585.996 528.07 586.224 528.454 586.68C528.862 587.136 529.066 587.676 529.066 588.3C529.066 588.804 528.91 589.2 528.598 589.488C528.31 589.776 527.914 589.92 527.41 589.92ZM526.042 596.4C526.042 595.176 525.874 594.276 525.538 593.7C525.202 593.1 524.53 592.8 523.522 592.8H522.802V592.08H526.042C526.93 592.08 527.59 592.2 528.022 592.44C528.478 592.656 528.802 593.064 528.994 593.664C529.186 594.264 529.282 595.176 529.282 596.4V609H526.042V596.4ZM534.902 596.4C534.902 595.176 534.734 594.276 534.398 593.7C534.062 593.1 533.39 592.8 532.382 592.8H531.662V592.08H534.902C535.79 592.08 536.462 592.2 536.918 592.44C537.398 592.68 537.746 593.04 537.962 593.52H538.142C538.646 593.016 539.294 592.596 540.086 592.26C540.902 591.9 541.814 591.72 542.822 591.72C544.622 591.72 546.086 592.2 547.214 593.16C548.366 594.12 548.942 595.8 548.942 598.2V609H545.702V598.2C545.702 596.52 545.318 595.296 544.55 594.528C543.806 593.736 542.87 593.34 541.742 593.34C540.47 593.34 539.27 593.976 538.142 595.248V609H534.902V596.4ZM560.208 616.2C557.784 616.2 555.852 615.756 554.412 614.868C552.996 613.98 552.288 612.564 552.288 610.62C552.288 609.516 552.66 608.556 553.404 607.74C554.148 606.924 555.096 606.324 556.248 605.94C555.288 605.412 554.808 604.692 554.808 603.78C554.808 603.3 554.916 602.928 555.132 602.664C555.348 602.4 555.66 602.112 556.068 601.8C555.3 601.416 554.652 600.816 554.124 600C553.62 599.184 553.368 598.224 553.368 597.12C553.368 593.52 555.648 591.72 560.208 591.72H566.868V592.62L564.528 592.98V593.16C565.272 593.544 565.872 594.084 566.328 594.78C566.808 595.452 567.048 596.232 567.048 597.12C567.048 600.72 564.768 602.52 560.208 602.52C557.688 602.52 556.428 602.94 556.428 603.78C556.428 604.62 557.688 605.04 560.208 605.04C562.536 605.04 564.432 605.508 565.896 606.444C567.384 607.356 568.128 608.748 568.128 610.62C568.128 612.564 567.408 613.98 565.968 614.868C564.552 615.756 562.632 616.2 560.208 616.2ZM560.208 601.26C561.288 601.26 562.152 600.936 562.8 600.288C563.472 599.616 563.808 598.56 563.808 597.12C563.808 595.752 563.472 594.72 562.8 594.024C562.152 593.328 561.288 592.98 560.208 592.98C559.128 592.98 558.252 593.316 557.58 593.988C556.932 594.636 556.608 595.68 556.608 597.12C556.608 598.56 556.932 599.616 557.58 600.288C558.252 600.936 559.128 601.26 560.208 601.26ZM560.208 614.76C561.648 614.76 562.788 614.412 563.628 613.716C564.468 613.044 564.888 612.012 564.888 610.62C564.888 608.22 563.448 606.84 560.568 606.48L558.588 606.3C557.604 606.684 556.848 607.224 556.32 607.92C555.792 608.616 555.528 609.516 555.528 610.62C555.528 612.012 555.948 613.044 556.788 613.716C557.628 614.412 558.768 614.76 560.208 614.76ZM581.886 589.56C581.886 588.336 581.718 587.436 581.382 586.86C581.046 586.26 580.374 585.96 579.366 585.96H578.646V585.24H581.886C582.774 585.24 583.434 585.36 583.866 585.6C584.322 585.816 584.646 586.224 584.838 586.824C585.03 587.424 585.126 588.336 585.126 589.56V596.04H595.926V585.24H599.166V604.68C599.166 605.904 599.334 606.816 599.67 607.416C600.006 607.992 600.678 608.28 601.686 608.28H602.406V609H599.166C598.278 609 597.606 608.892 597.15 608.676C596.718 608.436 596.406 608.016 596.214 607.416C596.022 606.816 595.926 605.904 595.926 604.68V597.48H585.126V609H581.886V589.56ZM609.163 609.36C608.395 609.36 607.615 609.204 606.823 608.892C606.031 608.556 605.347 608.016 604.771 607.272C604.219 606.528 603.943 605.544 603.943 604.32C603.943 602.496 604.783 601.2 606.463 600.432C608.167 599.664 610.387 599.28 613.123 599.28H614.203C614.203 596.928 613.879 595.32 613.231 594.456C612.583 593.592 611.647 593.16 610.423 593.16C609.343 593.16 608.479 593.388 607.831 593.844C607.183 594.3 606.727 595.092 606.463 596.22H604.843C604.843 595.404 604.891 594.768 604.987 594.312C605.083 593.832 605.335 593.388 605.743 592.98C606.175 592.548 606.883 592.236 607.867 592.044C608.875 591.828 609.967 591.72 611.143 591.72C613.087 591.72 614.623 592.248 615.751 593.304C616.879 594.336 617.443 596.328 617.443 599.28V609H615.643L614.383 607.38H614.203C613.771 607.932 613.135 608.4 612.295 608.784C611.455 609.168 610.411 609.36 609.163 609.36ZM610.783 607.74C611.575 607.74 612.235 607.548 612.763 607.164C613.291 606.78 613.771 606.252 614.203 605.58V600.72H613.123C611.347 600.72 609.943 601.056 608.911 601.728C607.879 602.376 607.363 603.24 607.363 604.32C607.363 605.424 607.687 606.276 608.335 606.876C609.007 607.452 609.823 607.74 610.783 607.74ZM623.003 596.4C623.003 595.176 622.835 594.276 622.499 593.7C622.163 593.1 621.491 592.8 620.483 592.8H619.763V592.08H623.003C623.891 592.08 624.563 592.2 625.019 592.44C625.499 592.68 625.847 593.04 626.063 593.52H626.243C626.747 593.016 627.395 592.596 628.187 592.26C629.003 591.9 629.915 591.72 630.923 591.72C632.723 591.72 634.187 592.2 635.315 593.16C636.467 594.12 637.043 595.8 637.043 598.2V609H633.803V598.2C633.803 596.52 633.419 595.296 632.651 594.528C631.907 593.736 630.971 593.34 629.843 593.34C628.571 593.34 627.371 593.976 626.243 595.248V609H623.003V596.4ZM647.625 609.36C645.537 609.36 643.929 608.532 642.801 606.876C641.697 605.22 641.145 603.108 641.145 600.54C641.145 597.972 641.721 595.86 642.873 594.204C644.049 592.548 645.753 591.72 647.985 591.72C648.897 591.72 649.701 591.816 650.397 592.008C651.093 592.2 651.789 592.464 652.485 592.8V589.56C652.485 588.336 652.317 587.436 651.981 586.86C651.645 586.26 650.973 585.96 649.965 585.96H649.245V585.24H652.485C653.373 585.24 654.033 585.36 654.465 585.6C654.921 585.816 655.245 586.224 655.437 586.824C655.629 587.424 655.725 588.336 655.725 589.56V609H653.925L652.665 607.38H652.485C651.957 607.98 651.333 608.46 650.613 608.82C649.917 609.18 648.921 609.36 647.625 609.36ZM648.705 607.92C649.689 607.92 650.433 607.74 650.937 607.38C651.441 607.02 651.957 606.48 652.485 605.76V594.24C651.765 593.904 651.141 593.64 650.613 593.448C650.085 593.256 649.569 593.16 649.065 593.16C647.529 593.16 646.389 593.832 645.645 595.176C644.925 596.52 644.565 598.308 644.565 600.54C644.565 602.748 644.913 604.536 645.609 605.904C646.305 607.248 647.337 607.92 648.705 607.92Z" fill="white"/>
</g>
<defs>
<filter id="filter0_d_89_3" x="0" y="0" width="991" height="786" filterUnits="userSpaceOnUse" color-interpolation-filters="sRGB">
<feFlood flood-opacity="0" result="BackgroundImageFix"/>
<feColorMatrix in="SourceAlpha" type="matrix" values="0 0 0 0 0 0 0 0 0 0 0 0 0 0 0 0 0 0 127 0" result="hardAlpha"/>
<feOffset dy="4"/>
<feGaussianBlur stdDeviation="2"/>
<feComposite in2="hardAlpha" operator="out"/>
<feColorMatrix type="matrix" values="0 0 0 0 0 0 0 0 0 0 0 0 0 0 0 0 0 0 0.25 0"/>
<feBlend mode="normal" in2="BackgroundImageFix" result="effect1_dropShadow_89_3"/>
<feBlend mode="normal" in="SourceGraphic" in2="effect1_dropShadow_89_3" result="shape"/>
</filter>
<radialGradient id="paint0_radial_89_3" cx="0" cy="0" r="1" gradientUnits="userSpaceOnUse" gradientTransform="translate(495.5 389) rotate(90) scale(389 491.5)">
<stop stop-color="#3B246C" stop-opacity="0.56"/>
<stop offset="1" stop-opacity="0"/>
</radialGradient>
<linearGradient id="paint1_linear_89_3" x1="516.12" y1="122" x2="516.12" y2="495.777" gradientUnits="userSpaceOnUse">
<stop stop-color="#34FF85"/>
<stop offset="1" stop-color="#084B23"/>
</linearGradient>
</defs>
</svg>
