<svg width="2972" height="2892" viewBox="0 0 2972 2892" fill="none" xmlns="http://www.w3.org/2000/svg">
<path d="M2564.75 2486.51C2489.04 2564.55 2421.3 2610.43 2369.43 2645.06C1863.59 2982.81 1285.36 2885.46 1106.59 2852.19C818.156 2798.51 574.68 2760.64 365.491 2571.64C-109.851 2142.19 -86.731 1246.32 276.487 691.37C319.554 625.569 682.223 87.981 1261.71 12.23C1275.88 10.377 1286.46 9.32202 1295.72 8.34102C1385.36 -1.14998 1940.87 -51.244 2393.83 328.249C2458.67 382.571 2563.02 480.555 2659.78 629.997C3013.59 1176.42 3014.71 2022.71 2564.75 2486.51Z" fill="#F4F7FA"/>
<path d="M1550.85 2000.17C1016.42 2091.93 852.071 2020.8 803.545 1935.41C775.331 1885.76 772.419 1806.92 691.935 1707.39C624.103 1623.5 585.08 1628.69 556.027 1564.37C505.632 1452.81 601.757 1390.09 562.584 1282.05C519.694 1163.75 384.758 1184.58 326.265 1043.3C294.269 966.026 331.827 952.994 303.347 875.98C245.291 718.993 74.2491 732.631 17.4251 591.04C-15.6559 508.611 1.36913 401.97 55.7951 339.157C164.957 213.171 426.332 261.488 574.171 378.313C593.215 393.363 736.548 509.926 750.425 682.533C758.798 786.677 713.934 835.238 750.901 898.645C803.051 988.098 921.146 940.864 973.013 1020.33C1043.29 1128.01 876.59 1291.52 956.908 1412.7C987.995 1459.61 1020.86 1447.01 1051.93 1500.88C1103.04 1589.46 1043.48 1674.35 1055.24 1748.08C1067.86 1827.26 1167.57 1923.96 1550.85 2000.17Z" fill="url(#paint0_linear_167_14)"/>
<path opacity="0.28" d="M562.258 624.404C631.608 784.427 518.561 885.56 599.762 1011.79C665.708 1114.3 769.697 1093.35 798.134 1188.79C825.386 1280.26 737.3 1324.45 761.396 1428.93C781.257 1515.04 848.125 1515.48 914.919 1626.86C982.153 1738.97 954.969 1806.19 989.499 1874.67C1026.57 1948.19 1131.74 2017.13 1414.8 2021.16C1457.26 2015.41 1502.52 2008.47 1550.85 2000.17C1167.57 1923.96 1067.86 1827.26 1055.24 1748.09C1043.48 1674.35 1103.04 1589.47 1051.93 1500.88C1020.85 1447.02 987.994 1459.61 956.907 1412.71C876.589 1291.53 1043.29 1128.02 973.013 1020.34C921.146 940.869 803.051 988.103 750.901 898.65C713.935 835.243 758.799 786.682 750.425 682.538C736.548 509.931 593.215 393.367 574.171 378.318C426.331 261.49 164.956 213.173 55.7939 339.159C55.2689 339.764 54.7719 340.401 54.2539 341.014C127.254 343.607 216.758 358.48 309.43 402.669C381.398 436.985 506.989 496.872 562.258 624.404Z" fill="white"/>
<path d="M1378.95 2055.34C1198.2 2009.37 1146.87 1953.64 1138.94 1906.86C1125.95 1830.3 1230.11 1783.11 1216.17 1695.87C1200.11 1595.35 1048.51 1574.51 1053.19 1508.43C1058.23 1437.01 1236.7 1442.12 1273.53 1339.3C1306.92 1246.09 1178.19 1191.84 1179.18 1056.45C1180.36 894.808 1364.71 856.87 1397.1 672.851C1419.22 547.195 1355.19 440.383 1304.94 356.562C1191.87 167.959 959.568 -15.4219 696.697 3.16506C660.842 5.70006 451.567 20.4981 399.732 143.205C347.186 267.594 472.621 464.547 600.95 568.925C693.964 644.579 771.916 658.111 776.027 717.676C781.569 797.976 643.622 827.33 630.529 944.343C623.607 1006.21 655.335 1059.06 686.545 1111.04C757.288 1228.88 826.275 1224.48 836.397 1289.78C850.247 1379.12 725.461 1415.62 697.76 1549.29C678.024 1644.53 720.33 1727.52 744.169 1774.29C837.096 1956.6 1087.38 2061.01 1378.95 2055.34Z" fill="url(#paint1_linear_167_14)"/>
<mask id="mask0_167_14" style="mask-type:luminance" maskUnits="userSpaceOnUse" x="387" y="1" width="1015" height="2055">
<path d="M1378.95 2055.34C1198.2 2009.37 1146.87 1953.64 1138.94 1906.86C1125.95 1830.3 1230.11 1783.11 1216.17 1695.87C1200.11 1595.35 1048.51 1574.51 1053.19 1508.43C1058.23 1437.01 1236.7 1442.12 1273.53 1339.3C1306.92 1246.09 1178.19 1191.84 1179.18 1056.45C1180.36 894.808 1364.71 856.87 1397.1 672.851C1419.22 547.195 1355.19 440.383 1304.94 356.562C1191.87 167.959 959.568 -15.4219 696.697 3.16506C660.842 5.70006 451.567 20.4981 399.732 143.205C347.186 267.594 472.621 464.547 600.95 568.925C693.964 644.579 771.916 658.111 776.027 717.676C781.569 797.976 643.622 827.33 630.529 944.343C623.607 1006.21 655.335 1059.06 686.545 1111.04C757.288 1228.88 826.275 1224.48 836.397 1289.78C850.247 1379.12 725.461 1415.62 697.76 1549.29C678.024 1644.53 720.33 1727.52 744.169 1774.29C837.096 1956.6 1087.38 2061.01 1378.95 2055.34Z" fill="white"/>
</mask>
<g mask="url(#mask0_167_14)">
<path opacity="0.7" d="M333.248 80.8711C447.031 132.928 560.577 185.558 673.947 238.569C730.723 264.887 787.27 291.681 843.344 319.522C871.402 333.397 899.393 347.435 927.182 361.92C954.959 376.426 982.581 391.313 1009.47 407.691C1022.9 415.903 1036.15 424.507 1048.87 434.041C1055.26 438.741 1061.39 443.884 1067.4 449.183C1073.3 454.633 1078.98 460.394 1084.15 466.7C1089.27 473.042 1093.82 479.976 1097.43 487.405C1101.07 494.829 1103.7 502.731 1105.45 510.714C1108.71 526.706 1109.17 543.346 1106.14 559.401C1103.2 575.468 1097.15 590.719 1089.54 604.832C1081.92 618.987 1072.62 631.965 1062.91 644.453C1043.37 669.395 1021.59 692.013 1000.76 715.224C979.899 738.378 959.699 762.066 943.037 788.017C934.854 801.047 927.368 814.508 921.481 828.642C915.747 842.814 911.218 857.455 908.621 872.486C903.83 902.511 905.676 933.885 915.008 962.863C919.719 977.345 926.43 991.13 934.394 1004.22C942.386 1017.31 951.746 1029.64 961.374 1041.87C971.021 1054.11 981.049 1066.21 990.251 1079.14C999.486 1092.01 1007.92 1105.72 1014.24 1120.52C1020.7 1135.25 1024.9 1151 1026.77 1166.95C1028.67 1182.91 1028.51 1198.98 1026.63 1214.88C1024.71 1230.77 1020.85 1246.5 1014.91 1261.39C1008.94 1276.27 1001.21 1290.37 992.371 1303.54C974.887 1330.04 953.186 1352.98 938.055 1379.6C930.459 1392.83 924.964 1407.12 922.483 1422C920.155 1436.89 920.543 1452.28 923.479 1467.2C926.419 1482.11 931.829 1496.48 939.324 1509.77C946.935 1523 956.272 1535.29 966.616 1546.8C987.147 1569.95 1011.13 1590.5 1030.62 1615.71C1040.34 1628.26 1048.69 1642.15 1054.36 1657.19C1059.9 1672.27 1062.66 1688.36 1062.66 1704.35C1062.57 1720.34 1059.87 1736.47 1054.04 1751.44C1048.21 1766.42 1039.58 1779.93 1031.08 1793C1022.73 1806.05 1014.41 1819.31 1012.1 1834.18C1009.3 1848.94 1012.77 1864.32 1019.67 1877.74C1026.81 1891.15 1036.85 1903.04 1048.2 1913.48C1059.54 1923.96 1072.01 1933.28 1084.98 1941.83C1111.07 1958.77 1138.91 1973.04 1167.39 1985.78C1195.86 1998.57 1224.98 2009.95 1254.39 2020.51C1283.81 2031.04 1313.51 2040.84 1343.44 2049.9C1403.25 2068.17 1463.76 2084.14 1524.52 2099.03L1524.41 2099.48C1463.51 2085.16 1402.83 2069.76 1342.79 2052.04C1312.76 2043.26 1282.93 2033.72 1253.35 2023.45C1223.78 2013.15 1194.48 2002.02 1165.76 1989.45C1137.03 1976.92 1108.89 1962.83 1082.31 1945.94C1069.09 1937.4 1056.32 1928.06 1044.59 1917.41C1032.83 1906.82 1022.26 1894.58 1014.62 1880.37C1007.2 1866.15 1003.27 1849.41 1006.24 1833.2C1007.35 1825.07 1010.45 1817.42 1013.9 1810.2C1017.41 1802.95 1021.72 1796.32 1025.88 1789.65C1034.33 1776.5 1042.56 1763.4 1048.03 1749.13C1053.49 1734.87 1055.96 1719.64 1055.97 1704.36C1055.88 1689.07 1053.18 1673.89 1047.86 1659.63C1042.41 1645.41 1034.42 1632.21 1024.93 1620.11C1005.97 1595.79 982.006 1575.44 960.888 1551.93C950.267 1540.24 940.485 1527.54 932.426 1513.69C924.477 1499.78 918.636 1484.56 915.446 1468.78C912.265 1453.03 911.731 1436.68 914.156 1420.65C916.722 1404.64 922.591 1389.25 930.481 1375.34C946.288 1347.38 967.872 1324.26 984.778 1298.49C993.346 1285.68 1000.69 1272.17 1006.36 1258.01C1011.98 1243.83 1015.61 1228.92 1017.42 1213.77C1020.91 1183.46 1018.02 1152.1 1005.57 1124.27C993.6 1096.14 973.302 1072.35 953.839 1047.84C944.105 1035.52 934.473 1022.9 926.13 1009.29C917.816 995.69 910.711 981.178 905.713 965.903C895.812 935.292 893.825 902.51 898.816 870.83C901.519 854.999 906.25 839.611 912.224 824.791C918.352 810.013 926.094 796.038 934.517 782.581C951.649 755.801 972.183 731.687 993.12 708.356C1014.03 684.99 1035.66 662.412 1054.68 638.032C1064.13 625.835 1073.09 613.262 1080.29 599.827C1087.48 586.424 1093.04 572.216 1095.71 557.488C1098.47 542.774 1097.97 527.651 1095.03 512.996C1092 498.371 1085.42 484.935 1075.99 473.278C1071.27 467.465 1065.97 462.043 1060.41 456.855C1054.7 451.791 1048.87 446.834 1042.67 442.247C1030.39 432.956 1017.42 424.443 1004.2 416.287C977.717 400.009 950.291 385.074 922.678 370.508C895.047 355.959 867.166 341.831 839.202 327.858L755.157 286.185C727.177 272.204 698.872 258.897 670.733 245.24C557.978 191.035 445.397 136.448 333.054 81.2901L333.248 80.8711Z" fill="white"/>
</g>
<path d="M1275.55 2006.9C1231.87 2029.65 1160.76 2063.03 1068.74 2089.32C879.222 2143.46 553.212 2181.17 441.174 2034.73C427.403 2016.73 391.013 1969.17 395.838 1910.41C400.854 1849.32 445.959 1830.46 439.243 1792.26C430.06 1740.04 340.236 1744 250.935 1684.06C175.095 1633.16 83.8352 1525.56 92.6502 1398.99C102.316 1260.21 226.544 1181.29 240.057 1173.01C331.876 1116.68 473.377 1096.31 561.846 1167.46C640.127 1230.4 647.454 1341.34 652.289 1414.54C663.231 1580.18 593.947 1654.69 643.852 1712.69C689.299 1765.51 766.384 1726.54 821.628 1797.01C845.236 1827.13 838.494 1843.6 875.394 1902.54C903.313 1947.13 933.465 1979.69 945.864 1991.25C1041.82 2080.65 1256.52 2013.11 1275.55 2006.9Z" fill="url(#paint2_linear_167_14)"/>
<mask id="mask1_167_14" style="mask-type:luminance" maskUnits="userSpaceOnUse" x="92" y="1121" width="1184" height="1017">
<path d="M1275.55 2006.9C1231.87 2029.65 1160.76 2063.03 1068.74 2089.32C879.222 2143.46 553.212 2181.17 441.174 2034.73C427.403 2016.73 391.013 1969.17 395.838 1910.41C400.854 1849.32 445.959 1830.46 439.243 1792.26C430.06 1740.04 340.236 1744 250.935 1684.06C175.095 1633.16 83.8352 1525.56 92.6502 1398.99C102.316 1260.21 226.544 1181.29 240.057 1173.01C331.876 1116.68 473.377 1096.31 561.846 1167.46C640.127 1230.4 647.454 1341.34 652.289 1414.54C663.231 1580.18 593.947 1654.69 643.852 1712.69C689.299 1765.51 766.384 1726.54 821.628 1797.01C845.236 1827.13 838.494 1843.6 875.394 1902.54C903.313 1947.13 933.465 1979.69 945.864 1991.25C1041.82 2080.65 1256.52 2013.11 1275.55 2006.9Z" fill="white"/>
</mask>
<g mask="url(#mask1_167_14)">
<path opacity="0.5" d="M1156.77 2062.02C1066.61 2062.02 977.072 2056.13 889.26 2044.38C623.713 2008.84 593.687 1949.34 583.82 1929.79C568.481 1899.4 571.266 1873.84 574.215 1846.78C577.523 1816.41 580.945 1785 561.035 1741.41C542.872 1701.65 519.192 1683.19 496.293 1665.33C473.939 1647.9 450.825 1629.87 433.818 1592.33C411.905 1543.95 418.545 1504.71 425.574 1463.16C429.425 1440.4 433.406 1416.86 432.984 1390.49C431.317 1286.35 359.464 1179.69 219.423 1073.48L221.575 1070.64C362.533 1177.55 434.858 1285.14 436.544 1390.44C436.972 1417.13 432.963 1440.83 429.084 1463.76C422.149 1504.75 415.598 1543.48 437.062 1590.86C453.705 1627.6 475.454 1644.56 498.481 1662.52C521.718 1680.64 545.747 1699.38 564.271 1739.93C584.589 1784.42 580.958 1817.75 577.753 1847.17C574.864 1873.69 572.134 1898.73 586.997 1928.19C596.655 1947.32 626.045 2005.56 889.732 2040.85C1020.21 2058.31 1154.54 2062.82 1289.01 2054.24L1289.23 2057.8C1245.03 2060.61 1200.82 2062.02 1156.77 2062.02Z" fill="white"/>
</g>
<path d="M1331.62 2841.77L553.266 2782.56V592.269L1331.62 534.622V2841.77Z" fill="url(#paint3_linear_167_14)"/>
<path d="M613.426 2686.83V688.125L1331.62 639.851V2736.54L613.426 2686.83Z" fill="white"/>
<mask id="mask2_167_14" style="mask-type:luminance" maskUnits="userSpaceOnUse" x="613" y="639" width="719" height="2098">
<path d="M613.426 2686.83V688.125L1331.62 639.851V2736.54L613.426 2686.83Z" fill="white"/>
</mask>
<g mask="url(#mask2_167_14)">
<path d="M3462.49 1158.93L2690.14 1181.61C2687.57 757.53 2685.45 151.581 2689.63 95.3461C2689.42 98.2081 2687.98 113.347 2680.56 130.44L2578.24 41.9301C2567.27 67.4241 2566.94 88.7451 2566.05 145.723C2565.54 178.054 2565.19 224.46 2565 283.652C2564.69 382.718 2564.8 519.444 2565.36 690.046C2566.31 980.28 2568.22 1272.19 2568.23 1275.11L2568.81 1363.3L2833.78 1358.37V1993.66L2334.09 1984.16L2035.54 1386.73L1625.44 1394.03L2176.25 397.047L2089.13 290.609L1483.59 1396.55L1223.03 1401.19C1223.39 1300.89 1223.99 1122.58 1224.35 945.012C1224.67 788.169 1224.74 662.601 1224.56 571.802C1224.19 390.732 1223.53 388.663 1219.83 377.186L1171.16 420.126C1169.21 414.065 1168.79 408.933 1168.72 407.965C1171.27 445.639 1170.13 995.558 1168.61 1402.16L896.509 1407C847.092 1114.68 731.552 431.65 727.667 412.778L637.038 470.288L636.817 469.167C641.752 495.579 743.876 1102.87 812.088 1509.23L821.908 1567.72L1392.08 1563.69L1037.85 2210.65L342.662 2185.84V2340.09L1083.75 2374.49L1532.25 1562.7L1978.77 1559.54L2187.7 1981.37L1635.69 1970.87V3169.13L1693.52 3174.65V2061.73L2234.12 2075.1L2779.32 3175.85L2879.68 3075.97L2381.35 2078.74L2900.8 2091.59V1357.12L3462.49 1346.65V1158.93H3462.49Z" fill="#D8DEE8"/>
</g>
<path d="M1862.51 2715.92H2770.3V663.519H1862.51V2715.92Z" fill="url(#paint4_linear_167_14)"/>
<path d="M2696.69 2622.16L2696.69 755.854L1862.51 755.854L1862.51 2622.16H2696.69Z" fill="white"/>
<mask id="mask3_167_14" style="mask-type:luminance" maskUnits="userSpaceOnUse" x="1862" y="755" width="835" height="1868">
<path d="M2696.69 2622.16L2696.69 755.854L1862.51 755.854L1862.51 2622.16H2696.69Z" fill="white"/>
</mask>
<g mask="url(#mask3_167_14)">
<path d="M3026.75 1273.6H2336.73C2334.32 926.659 2332.34 430.868 2336.25 385.188C2336.05 387.512 2334.71 399.784 2327.77 413.205L2231.43 332.559C2221.04 352.676 2220.72 370.215 2219.88 417.092C2219.4 443.693 2219.06 481.904 2218.88 530.664C2218.58 612.273 2218.69 724.942 2219.22 865.544C2220.12 1104.72 2221.93 1345.27 2221.95 1347.67L2222.5 1420.34H2469.83V1935.48H1996.7L1699.98 1431.82H1273.94L1841.19 598.894L1754.04 502.787L1121.34 1431.82H833.628C834.039 1341.91 834.713 1182.09 835.117 1022.93C835.474 882.36 835.551 769.81 835.347 688.411C834.94 526.079 834.192 524.175 830.04 513.605L775.177 548.512C772.98 542.916 772.498 538.266 772.424 537.391C775.308 571.47 774.02 1066.08 772.298 1431.82H458.921C400.778 1162.34 263.319 525.644 258.658 507.856L149.263 554.259L148.995 553.197C154.987 578.189 278.083 1147.83 359.359 1524.61L370.999 1578.56H1021.4L623.12 2163.39H-215.583V2310.13H675.774L1174 1578.56H1642.3L1852.57 1935.48H1284.86V2981.37H1346.2V2013.53H1898.56L2419.63 2898L2511.9 2809.98L2042.68 2013.53H2531.17V1420.34H3026.75V1273.6Z" fill="#D8DEE8"/>
</g>
<path d="M1862.51 2715.92L1331.62 2841.77V534.622L1862.51 663.519V2715.92Z" fill="url(#paint5_linear_167_14)"/>
<path d="M1331.62 2736.54V639.851L1862.51 757.129V2622.31L1331.62 2736.54Z" fill="#D8DEE8"/>
<mask id="mask4_167_14" style="mask-type:luminance" maskUnits="userSpaceOnUse" x="1331" y="639" width="532" height="2098">
<path d="M1331.62 2736.54V639.851L1862.51 757.129V2622.31L1331.62 2736.54Z" fill="white"/>
</mask>
<g mask="url(#mask4_167_14)">
<path d="M2393.06 1327.57L2095.76 1297.87C2094.65 969.844 2093.72 500.97 2095.54 458.345C2095.45 460.513 2094.82 471.919 2091.59 483.631L2046.2 392.832C2041.24 410.51 2041.08 427.26 2040.68 472.031C2040.45 497.442 2040.29 533.995 2040.21 580.677C2040.06 658.811 2040.12 766.75 2040.37 901.482C2040.8 1130.63 2041.66 1361.09 2041.67 1363.39L2041.94 1432.99L2156.73 1440.53V1919.94L1931.2 1932.28L1776.25 1427.25L1532.7 1411.92L1851.39 597.395L1805.33 488.197L1438.72 1406L1250.67 1394.16C1250.95 1291.48 1251.41 1108.97 1251.69 927.228C1251.93 766.721 1251.98 638.193 1251.84 545.197C1251.56 359.723 1251.06 357.409 1248.23 344.551L1210.62 374.315C1209.1 367.458 1208.77 362.012 1208.71 360.99C1210.71 400.78 1209.82 970.289 1208.63 1391.52L981.975 1377.25C937.611 1046.9 829.631 243.322 825.891 220.208L736.572 253.885L736.349 252.485C741.32 285.343 841.442 1016.82 905.539 1485.92L914.592 1552.16L1375.06 1565.37L1103.27 2245.79L415.685 2320.04V2516.3L1140.97 2413.12L1471.58 1568.13L1744.8 1575.97L1857.33 1936.32L1539.28 1953.73V3077.99L1575.91 3067.03V2034.96L1881.18 2012.68L2133.96 2822.08L2175.62 2728.9L1954.24 2007.35L2184.21 1990.57V1442.33L2393.07 1456.04V1327.57H2393.06Z" fill="#A2A7AE"/>
</g>
<path d="M807.3 2826.34L792.977 2812.89C770.138 2791.43 769.915 2755.72 792.489 2733.17L1677.56 1849.39L1767.79 1941.35L889.088 2824.24C866.679 2846.75 830.066 2847.73 807.3 2826.34Z" fill="url(#paint6_linear_167_14)"/>
<path d="M2583.22 981.188C2328.54 700.53 1902.82 676.244 1633.41 937.141C1359.04 1202.82 1360.34 1652.58 1634.86 1931.12C1902.93 2203.12 2325.35 2202.04 2579.92 1938.66C2830.09 1679.83 2832.1 1255.46 2583.22 981.188ZM1713.08 1852.76C1484.37 1619.11 1483.53 1243.19 1712.21 1020.52C1937.43 801.213 2294.74 819.877 2509.49 1055.03C2720.13 1285.67 2718.65 1643.7 2507.02 1861.53C2292.27 2082.59 1937.29 2081.81 1713.08 1852.76Z" fill="url(#paint7_linear_167_14)"/>
<path opacity="0.3" d="M1677.56 1849.39L1564.71 1962.07C1578.32 2009.94 1573.45 2044.11 1563.34 2068.73C1525.32 2161.32 1401.76 2148.14 1310.21 2281.7C1264.27 2348.72 1287.59 2363.41 1240.3 2418.28C1162.12 2508.99 1088.8 2479.97 1020.12 2561.22C950.653 2643.39 982.478 2724.18 930.994 2748.06C908.968 2758.28 873.132 2757.37 811.001 2714.69L792.49 2733.18C769.916 2755.72 770.139 2791.43 792.978 2812.89L807.301 2826.34C830.067 2847.73 866.68 2846.75 889.088 2824.24L1767.79 1941.35L1677.56 1849.39Z" fill="url(#paint8_linear_167_14)"/>
<path opacity="0.1" d="M2555.99 1892.43C2333.93 2121.22 1966.61 2120.74 1734.4 1883.82C1497.36 1641.96 1496.45 1252.59 1733.43 1022.06C1966.71 795.138 2336.52 814.782 2558.61 1058.24C2776.29 1296.88 2774.71 1667.08 2555.99 1892.43Z" fill="white"/>
<path d="M2618.81 997.937C2364.14 717.279 1938.42 692.994 1669.01 953.89C1394.64 1219.57 1395.94 1669.33 1670.46 1947.87C1938.53 2219.87 2360.95 2218.79 2615.52 1955.41C2865.69 1696.58 2867.7 1272.21 2618.81 997.937ZM1748.68 1869.51C1519.97 1635.86 1519.12 1259.94 1747.8 1037.27C1973.03 817.963 2330.33 836.628 2545.09 1071.78C2755.73 1302.42 2754.24 1660.45 2542.62 1878.28C2327.87 2099.34 1972.89 2098.56 1748.68 1869.51Z" fill="url(#paint9_linear_167_14)"/>
<path d="M2592.79 1024.01C2352.19 759.469 1950.68 737.247 1696.94 983.444C1438.81 1233.9 1439.93 1657.46 1698.17 1920.11C1950.69 2176.95 2349.27 2176.6 2589.79 1928.19C2826.39 1683.84 2828.21 1282.87 2592.79 1024.01ZM1748.68 1869.51C1519.97 1635.86 1519.12 1259.94 1747.8 1037.27C1973.03 817.963 2330.33 836.628 2545.09 1071.78C2755.73 1302.42 2754.24 1660.45 2542.62 1878.28C2327.87 2099.34 1972.89 2098.56 1748.68 1869.51Z" fill="url(#paint10_linear_167_14)"/>
<path d="M2294.6 2440.34C2294.6 2516.97 2231.63 2581.27 2153.71 2583.97C2075.51 2586.67 2011.92 2526.35 2011.92 2449.23C2011.92 2372.12 2075.51 2307.79 2153.71 2305.58C2231.63 2303.36 2294.6 2363.7 2294.6 2440.34Z" fill="url(#paint11_linear_167_14)"/>
<path d="M2319.07 2440.34C2319.07 2516.97 2256.09 2581.27 2178.17 2583.97C2099.98 2586.67 2036.39 2526.35 2036.39 2449.23C2036.39 2372.12 2099.98 2307.79 2178.17 2305.58C2256.09 2303.36 2319.07 2363.7 2319.07 2440.34Z" fill="url(#paint12_linear_167_14)"/>
<mask id="mask5_167_14" style="mask-type:luminance" maskUnits="userSpaceOnUse" x="1323" y="193" width="1649" height="1835">
<path d="M1724.79 1854.52C1496.07 1620.86 1169.14 863.139 1404.41 543.527C1779.49 33.972 2569.78 138.165 2849.02 488.989C3190.87 918.476 2730.35 1645.45 2518.73 1863.28C2303.98 2084.34 1949 2083.57 1724.79 1854.52Z" fill="white"/>
</mask>
<g mask="url(#mask5_167_14)">
<path d="M2866.57 961.05C2866.57 1271.16 2428.14 1845.4 2227.08 2092.65C2176.79 2154.5 2082.49 2156.89 2031.9 2097.36C1827.52 1856.85 1369.76 1282.02 1369.76 962.213C1369.76 548.883 1712.91 218.748 2129.69 224.743C2539.44 230.637 2866.57 560.253 2866.57 961.05Z" fill="url(#paint13_linear_167_14)"/>
<path d="M2893.03 961.05C2893.03 1271.16 2454.61 1845.4 2253.55 2092.65C2203.26 2154.5 2108.96 2156.89 2058.37 2097.36C1853.99 1856.85 1396.23 1282.02 1396.23 962.213C1396.23 548.883 1739.38 218.748 2156.15 224.743C2565.9 230.637 2893.03 560.253 2893.03 961.05Z" fill="url(#paint14_linear_167_14)"/>
<path d="M2569.9 961.301C2569.9 1186.34 2385.53 1370.47 2156.15 1372.59C1924.59 1374.73 1735.25 1190.89 1735.25 961.95C1735.25 733.013 1924.59 548.877 2156.15 550.655C2385.53 552.416 2569.9 736.262 2569.9 961.301Z" fill="white"/>
<g opacity="0.3">
<path d="M2152.85 1792.51C2200.28 1484.06 2405.47 1383.65 2370.38 1094.56C2329.84 760.63 2028.7 670.085 2021.39 370.828C2020.21 322.641 2026.89 276.276 2039.46 231.978C1677.13 282.447 1396.23 588.492 1396.23 962.213C1396.23 1282.02 1853.99 1856.85 2058.37 2097.36C2088.16 2132.41 2133.12 2145.98 2175.32 2138.59C2139.04 2004.6 2137.94 1889.43 2152.85 1792.51Z" fill="url(#paint15_linear_167_14)"/>
</g>
</g>
<path d="M914.357 1413.56C948.275 1377.35 854.378 1241.3 804.121 1181.69C760.215 1129.61 715.089 1076.08 659.673 1082.85C611.019 1088.8 563.676 1140.11 560.84 1189.29C553.21 1321.58 866.137 1465.04 914.357 1413.56Z" fill="url(#paint16_linear_167_14)"/>
<path d="M507.11 2811.59C500.725 2816.78 499.551 2829.74 498.785 2838.21C498.44 2841.99 498.27 2843.89 498.693 2845.22C501.778 2854.97 520.687 2856 550.34 2859.03C597.199 2863.82 611.144 2867.5 614.811 2860.53C618.248 2854 609.931 2843.3 608.994 2842.12C603.959 2835.77 597.779 2833.47 585.831 2829.53C563.724 2822.26 548.786 2818.27 544.263 2817.07C516.021 2809.53 511.304 2808.18 507.11 2811.59Z" fill="url(#paint17_linear_167_14)"/>
<path d="M534.977 2768.78L539.667 2822.18C538.336 2824.75 522.464 2832.49 509.857 2825.86L497.808 2773.37L534.977 2768.78Z" fill="#D8DEE8"/>
<path d="M878.734 2804.72C871.082 2813.17 869.338 2828.74 875.992 2836.4C882.533 2843.94 892.368 2838.29 920.262 2839.12C950.141 2840.01 957.943 2847.07 978.247 2841.47C986.45 2839.2 1000.94 2833.7 1000.66 2827.84C1000.47 2823.72 993.093 2821.6 968.459 2813.34C933.492 2801.63 933.646 2800.99 926.22 2799.76C907.569 2796.67 888.841 2793.57 878.734 2804.72Z" fill="url(#paint18_linear_167_14)"/>
<path d="M897.878 2755.99L912.864 2805.84C911.731 2808.52 896.496 2817.43 883.422 2811.78L861.165 2763.4L897.878 2755.99Z" fill="#D8DEE8"/>
<path d="M764.725 1664.21C766.872 1831.75 778.304 2020.12 805.735 2224.77C832.845 2427.04 870.838 2609.79 912.282 2770.5C893.161 2775.65 874.041 2780.79 854.922 2785.94C806.413 2740.71 745.22 2669.5 715.693 2568.88C697.367 2506.43 703.474 2474.34 691.85 2397.53C673.341 2275.22 635.85 2211.15 597.101 2112.52C562.28 2023.9 521.121 1893.83 499.052 1719.97C587.611 1701.39 676.168 1682.8 764.725 1664.21Z" fill="url(#paint19_linear_167_14)"/>
<path d="M592.133 1648.23C580.43 1861.3 570.805 2078.34 563.512 2299.22C558.037 2464.97 554.018 2628.62 551.347 2790.11C531.817 2792.52 512.286 2794.94 492.753 2797.35C473.881 2762.21 448.815 2708.49 431.644 2639.64C410.788 2556.01 415.618 2506.35 406.472 2419.69C396.21 2322.48 381.304 2301.3 354.899 2178.68C301.306 1929.82 274.508 1805.38 334.292 1727.98C353.696 1702.85 414.536 1639.82 592.133 1648.23Z" fill="url(#paint20_linear_167_14)"/>
<path d="M307.485 1112.72C353.224 1099.86 420.259 1084.82 502.355 1080.18C619.446 1073.56 677.992 1070.25 719.479 1098.13C815.299 1162.53 741.115 1311.17 780.338 1679.63C785.94 1732.25 787.196 1785.25 791.252 1838.01C797.969 1925.36 799.499 1930.11 793.42 1938.96C755.303 1994.47 613.096 1910.74 404.662 1943.84C288.039 1962.36 235.146 2005.02 203.196 1974.25C165.935 1938.36 197.897 1841.84 225.41 1758.75C256.991 1663.38 276.501 1662.15 294.426 1590.32C313.163 1515.25 301.83 1476.59 298.912 1358.2C297.516 1301.55 297.813 1217.25 307.485 1112.72Z" fill="url(#paint21_linear_167_14)"/>
<g opacity="0.3">
<path d="M590.923 1804.46C536.445 1800.2 501.104 1830.99 454.078 1806.99C389.594 1774.08 368.875 1671.67 372.984 1599.19C379.228 1489.07 442.11 1460.04 431.27 1388.85C425.408 1350.36 397.924 1299.25 299.243 1247.03C297.927 1290.98 298.178 1328.44 298.911 1358.2C301.829 1476.59 313.162 1515.25 294.425 1590.32C276.499 1662.15 256.99 1663.38 225.409 1758.75C197.896 1841.84 165.935 1938.36 203.195 1974.25C235.146 2005.02 288.038 1962.36 404.661 1943.84C584.259 1915.32 714.615 1973.46 771.651 1954.61C702.731 1840.72 640.221 1808.32 590.923 1804.46Z" fill="url(#paint22_linear_167_14)"/>
</g>
<path d="M381.795 1120.28C342.888 1088.31 264.654 1124.5 243.742 1134.17C127.121 1188.12 22.4119 1333.48 48.3559 1487.1C52.2459 1510.14 70.2889 1617.9 161.54 1670.12C243.876 1717.23 355.053 1705.12 444.13 1638.39C456.302 1627.58 468.478 1616.78 480.652 1605.98C492.628 1593.04 504.607 1580.09 516.582 1567.14C497.756 1551.48 465.768 1528.9 420.843 1514.4C361.614 1495.29 318.493 1529.58 291.012 1503.51C272.046 1485.51 272.004 1453.73 276.687 1434.47C286.127 1395.65 320.348 1384.73 348.911 1357.18C416.017 1292.44 428.38 1158.56 381.795 1120.28Z" fill="url(#paint23_linear_167_14)"/>
<path d="M940.936 1621.78L419.425 1614L558.104 1680.93L942.27 1655.78L940.936 1621.78Z" fill="url(#paint24_linear_167_14)"/>
<path d="M401.02 1627.86V1627.86C401.02 1637.62 407.127 1646.34 416.299 1649.67L582.94 1715L583.699 1669.71L419.425 1614C410.207 1611.35 401.02 1618.27 401.02 1627.86Z" fill="url(#paint25_linear_167_14)"/>
<path d="M481.324 1597C478.123 1596.28 496.917 1558.84 511.671 1563.16C526.421 1567.48 598.58 1609.3 605.139 1626.52C611.699 1643.74 611.699 1643.74 611.699 1643.74C611.699 1643.74 580.223 1646.2 560.703 1639.64C541.18 1633.08 507.351 1602.8 481.324 1597Z" fill="white"/>
<path d="M597.534 1351.93L560.773 1686.64C559.505 1698.18 575.673 1715.39 587.278 1714.84L1126.55 1681.74C1135.41 1681.32 1142.79 1674.79 1144.29 1666.05L1211.97 1342.79C1213.99 1331.02 1192.85 1318.87 1180.91 1319.2L615.794 1335.09C606.356 1335.36 598.563 1342.55 597.534 1351.93Z" fill="url(#paint26_linear_167_14)"/>
<path d="M609.858 1361.69L573.097 1696.4C571.829 1707.95 581.179 1717.9 592.784 1717.35L1138.87 1691.5C1147.73 1691.08 1155.11 1684.55 1156.61 1675.81L1212.4 1351.07C1214.43 1339.3 1205.17 1328.63 1193.24 1328.97L628.118 1344.86C618.683 1345.12 610.886 1352.31 609.858 1361.69Z" fill="url(#paint27_linear_167_14)"/>
<path opacity="0.3" d="M930.522 1613.07C882.839 1592.86 899.669 1554.32 843.362 1506.3C769.08 1442.94 693.367 1470.42 666.861 1421.31C658.607 1406.02 654.664 1382.22 669.042 1343.71L628.119 1344.86C618.683 1345.12 610.886 1352.31 609.858 1361.69L573.097 1696.4C571.831 1707.94 581.181 1717.9 592.784 1717.35L1138.87 1691.5C1147.73 1691.08 1155.11 1684.56 1156.61 1675.81L1164.31 1631C1147.74 1621.78 1127.94 1613.4 1104.84 1608.71C1024.73 1592.46 985.418 1636.33 930.522 1613.07Z" fill="url(#paint28_linear_167_14)"/>
<path d="M1173.28 1644.68C1174.16 1641.98 1172.28 1639.21 1169.45 1639.06C1157.91 1638.47 1131.14 1638.23 1116.36 1647.28C1097.16 1659.04 1072.34 1680.5 1093.24 1691.33L1112.76 1701.44C1113.66 1701.9 1114.64 1702.05 1115.62 1701.83C1122.56 1700.31 1151.75 1693.83 1154.94 1692.22C1157.85 1690.76 1168.98 1657.73 1173.28 1644.68Z" fill="#D8DEE8"/>
<path d="M511.097 952.247C511.388 986.96 507.515 1014.49 503.852 1033.34C499.656 1054.95 496.631 1060.53 492.771 1065.06C486.962 1071.87 478.158 1077.59 428.415 1089.93C401.346 1096.64 397.864 1096.45 397.266 1099.14C394.35 1112.24 468.162 1156.91 544.419 1146.14C591.09 1139.55 633.553 1112.93 630.947 1098.94C628.323 1084.87 581.705 1092.42 567.81 1066.96C558.144 1049.25 568.979 1024.11 581.786 1003.29C569.381 980.049 523.501 975.489 511.097 952.247Z" fill="white"/>
<path d="M597.719 965.972C608.733 951.341 609.412 925.797 596.721 909.651C585.799 895.757 568.612 893.776 558.323 892.586C528.507 889.144 490.888 901.59 477.802 929.032C470.048 945.295 486.821 979.085 489.447 985.16C492.422 992.029 497.813 994.385 502.802 999.579C509.715 1006.78 520.539 1018.23 538.205 1037.39C539.577 1031.74 541.664 1024.74 544.979 1017.16C546.255 1014.24 551.382 1002.84 559.138 993.382C574.677 974.432 587.278 979.838 597.719 965.972Z" fill="url(#paint29_linear_167_14)"/>
<path d="M513.005 1021.28C513.005 1021.28 532.606 1053.44 571.632 1050.9C606.573 1048.62 611.691 970.265 589.373 953.637C581.927 948.09 567.015 945.787 554.891 949.184C547.73 951.192 545.304 954.167 533.539 957.217C522.685 960.034 519.622 958.831 516.345 961.586C512.248 965.036 509.246 973.489 516.089 996.396C509.422 989.647 501.421 987.056 495.75 989.733C494.847 990.162 492.447 991.793 491.097 994.266C486.213 1003.22 494.387 1014.65 513.005 1021.28Z" fill="white"/>
<path d="M514.766 956.901C516.451 958.158 511.3 964.444 510.917 973.342C510.169 990.614 527.652 1011.35 545.487 1013.1C556.032 1014.14 558.929 1007.79 576.361 1005.95C587.153 1004.81 596.137 1006.18 601.788 1007.42C607.265 1026.36 602.111 1045.24 589.449 1054.01C575.818 1063.44 558.404 1057.72 551.124 1055.32C546.254 1053.72 530.647 1048.63 522.491 1034.31C513.992 1019.4 522.333 1010.41 512.583 1000.32C507.665 995.236 501.206 993.032 494.917 983.182C493.209 980.505 492.07 978.138 491.372 976.546C500.388 966.992 512.326 955.081 514.766 956.901Z" fill="url(#paint30_linear_167_14)"/>
<path d="M589.104 1014.44C589.104 1014.44 581.557 1018.38 568.517 1017.65C567.883 1017.61 567.183 1017.8 567.102 1018.12C566.803 1019.36 575.168 1024.91 582.877 1022.74C588.35 1021.2 592.608 1016.02 591.872 1014.7C591.559 1014.15 590.322 1014.22 589.104 1014.44Z" fill="white"/>
<defs>
<linearGradient id="paint0_linear_167_14" x1="964.861" y1="920.533" x2="432.579" y2="1736.16" gradientUnits="userSpaceOnUse">
<stop offset="0.0036" stop-color="#E38DDD"/>
<stop offset="1" stop-color="#9571F6"/>
</linearGradient>
<linearGradient id="paint1_linear_167_14" x1="845.945" y1="8.57376" x2="998.593" y2="1276.01" gradientUnits="userSpaceOnUse">
<stop stop-color="#AA80F9"/>
<stop offset="0.9964" stop-color="#6165D7"/>
</linearGradient>
<linearGradient id="paint2_linear_167_14" x1="704.372" y1="1516.37" x2="591.207" y2="2552.97" gradientUnits="userSpaceOnUse">
<stop offset="0.0036" stop-color="#E38DDD"/>
<stop offset="1" stop-color="#9571F6"/>
</linearGradient>
<linearGradient id="paint3_linear_167_14" x1="553.266" y1="1688.2" x2="1331.62" y2="1688.2" gradientUnits="userSpaceOnUse">
<stop stop-color="#FFC444"/>
<stop offset="0.9964" stop-color="#F36F56"/>
</linearGradient>
<linearGradient id="paint4_linear_167_14" x1="2110.11" y1="1158.36" x2="3012.03" y2="3481.49" gradientUnits="userSpaceOnUse">
<stop stop-color="#FFC444"/>
<stop offset="0.9964" stop-color="#F36F56"/>
</linearGradient>
<linearGradient id="paint5_linear_167_14" x1="1114.07" y1="1686.88" x2="2099.63" y2="1692.85" gradientUnits="userSpaceOnUse">
<stop stop-color="#FFC444"/>
<stop offset="0.9964" stop-color="#F36F56"/>
</linearGradient>
<linearGradient id="paint6_linear_167_14" x1="775.702" y1="2345.58" x2="1767.79" y2="2345.58" gradientUnits="userSpaceOnUse">
<stop offset="0.0036" stop-color="#26264F"/>
<stop offset="1" stop-color="#444B8C"/>
</linearGradient>
<linearGradient id="paint7_linear_167_14" x1="1428.3" y1="1445.47" x2="2768.72" y2="1445.47" gradientUnits="userSpaceOnUse">
<stop offset="0.0036" stop-color="#26264F"/>
<stop offset="1" stop-color="#444B8C"/>
</linearGradient>
<linearGradient id="paint8_linear_167_14" x1="775.702" y1="2345.58" x2="1767.79" y2="2345.58" gradientUnits="userSpaceOnUse">
<stop offset="0.0036" stop-color="#26264F"/>
<stop offset="1" stop-color="#444B8C"/>
</linearGradient>
<linearGradient id="paint9_linear_167_14" x1="2787.95" y1="1777.5" x2="1891.25" y2="1345.01" gradientUnits="userSpaceOnUse">
<stop offset="0.0036" stop-color="#26264F"/>
<stop offset="1" stop-color="#444B8C"/>
</linearGradient>
<linearGradient id="paint10_linear_167_14" x1="1503.91" y1="1462.55" x2="2768.3" y2="1462.55" gradientUnits="userSpaceOnUse">
<stop offset="0.0036" stop-color="#26264F"/>
<stop offset="1" stop-color="#444B8C"/>
</linearGradient>
<linearGradient id="paint11_linear_167_14" x1="2335.28" y1="2168.5" x2="1881.06" y2="2857.94" gradientUnits="userSpaceOnUse">
<stop stop-color="#311944"/>
<stop offset="1" stop-color="#893976"/>
</linearGradient>
<linearGradient id="paint12_linear_167_14" x1="2359.74" y1="2168.5" x2="1905.52" y2="2857.94" gradientUnits="userSpaceOnUse">
<stop stop-color="#FF9085"/>
<stop offset="1" stop-color="#FB6FBB"/>
</linearGradient>
<linearGradient id="paint13_linear_167_14" x1="2022.97" y1="693.844" x2="2767.01" y2="2610.29" gradientUnits="userSpaceOnUse">
<stop stop-color="#311944"/>
<stop offset="1" stop-color="#893976"/>
</linearGradient>
<linearGradient id="paint14_linear_167_14" x1="2049.44" y1="693.844" x2="2793.47" y2="2610.29" gradientUnits="userSpaceOnUse">
<stop stop-color="#FF9085"/>
<stop offset="1" stop-color="#FB6FBB"/>
</linearGradient>
<linearGradient id="paint15_linear_167_14" x1="1784.99" y1="796.678" x2="2529.2" y2="2713.57" gradientUnits="userSpaceOnUse">
<stop stop-color="#FF9085"/>
<stop offset="1" stop-color="#FB6FBB"/>
</linearGradient>
<linearGradient id="paint16_linear_167_14" x1="827.333" y1="877.687" x2="437.473" y2="2746.88" gradientUnits="userSpaceOnUse">
<stop stop-color="#FFC444"/>
<stop offset="0.9964" stop-color="#F36F56"/>
</linearGradient>
<linearGradient id="paint17_linear_167_14" x1="615.022" y1="2835.47" x2="498.312" y2="2838.85" gradientUnits="userSpaceOnUse">
<stop stop-color="#444B8C"/>
<stop offset="0.9964" stop-color="#26264F"/>
</linearGradient>
<linearGradient id="paint18_linear_167_14" x1="994.006" y1="2803.33" x2="874.4" y2="2836.22" gradientUnits="userSpaceOnUse">
<stop stop-color="#444B8C"/>
<stop offset="0.9964" stop-color="#26264F"/>
</linearGradient>
<linearGradient id="paint19_linear_167_14" x1="953.262" y1="2601.42" x2="622.407" y2="1855.6" gradientUnits="userSpaceOnUse">
<stop stop-color="#AA80F9"/>
<stop offset="0.9964" stop-color="#6165D7"/>
</linearGradient>
<linearGradient id="paint20_linear_167_14" x1="790.776" y1="2636.76" x2="371.046" y2="1937.07" gradientUnits="userSpaceOnUse">
<stop stop-color="#AA80F9"/>
<stop offset="0.9964" stop-color="#6165D7"/>
</linearGradient>
<linearGradient id="paint21_linear_167_14" x1="692.343" y1="849.531" x2="302.483" y2="2718.72" gradientUnits="userSpaceOnUse">
<stop stop-color="#FFC444"/>
<stop offset="0.9964" stop-color="#F36F56"/>
</linearGradient>
<linearGradient id="paint22_linear_167_14" x1="357.067" y1="2448.13" x2="505.027" y2="1745.32" gradientUnits="userSpaceOnUse">
<stop stop-color="#FFC444"/>
<stop offset="0.9964" stop-color="#F36F56"/>
</linearGradient>
<linearGradient id="paint23_linear_167_14" x1="425.274" y1="793.829" x2="35.4142" y2="2663.01" gradientUnits="userSpaceOnUse">
<stop stop-color="#FFC444"/>
<stop offset="0.9964" stop-color="#F36F56"/>
</linearGradient>
<linearGradient id="paint24_linear_167_14" x1="757.65" y1="1837.39" x2="694.564" y2="1658.64" gradientUnits="userSpaceOnUse">
<stop stop-color="#311944"/>
<stop offset="1" stop-color="#893976"/>
</linearGradient>
<linearGradient id="paint25_linear_167_14" x1="482.053" y1="1578.41" x2="505.185" y2="1738.23" gradientUnits="userSpaceOnUse">
<stop stop-color="#311944"/>
<stop offset="1" stop-color="#893976"/>
</linearGradient>
<linearGradient id="paint26_linear_167_14" x1="940.398" y1="1592.41" x2="817.402" y2="1417.76" gradientUnits="userSpaceOnUse">
<stop stop-color="#444B8C"/>
<stop offset="0.9964" stop-color="#26264F"/>
</linearGradient>
<linearGradient id="paint27_linear_167_14" x1="704.47" y1="1881.46" x2="973.64" y2="1334.71" gradientUnits="userSpaceOnUse">
<stop stop-color="#311944"/>
<stop offset="1" stop-color="#893976"/>
</linearGradient>
<linearGradient id="paint28_linear_167_14" x1="572.982" y1="1530.54" x2="1164.31" y2="1530.54" gradientUnits="userSpaceOnUse">
<stop stop-color="#311944"/>
<stop offset="1" stop-color="#893976"/>
</linearGradient>
<linearGradient id="paint29_linear_167_14" x1="467.907" y1="1128.7" x2="555.371" y2="904.126" gradientUnits="userSpaceOnUse">
<stop stop-color="#311944"/>
<stop offset="1" stop-color="#6B3976"/>
</linearGradient>
<linearGradient id="paint30_linear_167_14" x1="494.92" y1="1139.34" x2="582.473" y2="914.536" gradientUnits="userSpaceOnUse">
<stop stop-color="#311944"/>
<stop offset="1" stop-color="#6B3976"/>
</linearGradient>
</defs>
</svg>
