<svg width="26" height="26" viewBox="0 0 26 26" fill="none" xmlns="http://www.w3.org/2000/svg">
<path d="M12.9995 0C8.02446 0 3.97705 4.048 3.97705 9.02316C3.97705 13.8122 12.1633 25.001 12.5118 25.4748L12.8371 25.9175C12.8752 25.9696 12.9358 26 12.9995 26C13.0642 26 13.1244 25.9696 13.1628 25.9175L13.4879 25.4748C13.8367 25.001 22.0227 13.8122 22.0227 9.02316C22.0227 4.048 17.9746 0 12.9995 0ZM12.9995 5.79108C14.7821 5.79108 16.2316 7.24066 16.2316 9.02316C16.2316 10.8047 14.782 12.2552 12.9995 12.2552C11.218 12.2552 9.76741 10.8047 9.76741 9.02316C9.76741 7.24066 11.2179 5.79108 12.9995 5.79108Z" fill="#23A758"/>
</svg>
