<svg width="1116" height="511" viewBox="0 0 1116 511" fill="none" xmlns="http://www.w3.org/2000/svg">
<path d="M1074.27 509.403C1010.28 509.403 28.979 509.477 28.979 509.403C-6.96617 472.943 -17.5537 385.907 60.294 301.849C88.8106 271.064 13.1564 212.025 62.2665 117.313C80.9286 81.3205 155.471 19.4566 352.19 67.4625C435.835 87.8742 506.812 55.2812 522.526 43.5125C531.377 36.8891 541.072 31.0998 551.456 26.0976C659.718 -26.3098 846.774 7.06638 928.422 70.0604C939.992 78.9902 992.604 125.19 951.136 188.685C924.95 228.781 1034.65 267.069 1073.62 312.848C1172.73 429.244 1075.17 507.888 1074.27 509.403Z" fill="#DCEAFF"/>
<path d="M763.356 240.909L766.405 241.675L770.461 225.51L767.413 224.745L763.356 240.909Z" fill="#ADC8FE"/>
<path d="M767.89 219.473C767.889 219.487 767.89 219.473 767.889 219.487C767.737 220.735 768.098 222.077 769.275 222.517C770.85 223.107 771.916 222.082 772.314 220.497C772.315 220.49 772.415 220.092 772.417 220.085C772.551 219.531 773.835 219.984 774.021 220.523C774.355 221.492 774.366 222.586 773.958 223.646C773.213 225.582 771.194 226.774 769.139 226.492C766.414 226.119 764.689 223.487 765.34 220.894C765.522 220.169 765.869 219.529 766.331 219.005C766.778 218.497 767.982 218.801 767.89 219.473Z" fill="#ADC8FE"/>
<path d="M766.344 247.225C766.346 247.211 766.344 247.225 766.346 247.211C766.498 245.961 766.137 244.62 764.96 244.179C763.385 243.59 762.319 244.614 761.921 246.199C761.919 246.207 761.82 246.604 761.818 246.612C761.684 247.166 760.4 246.713 760.214 246.173C759.88 245.205 759.869 244.111 760.277 243.051C761.022 241.114 763.041 239.923 765.096 240.205C767.821 240.578 769.546 243.21 768.895 245.803C768.713 246.528 768.366 247.168 767.905 247.692C767.456 248.2 766.253 247.895 766.344 247.225Z" fill="#ADC8FE"/>
<path d="M759.431 174.299C759.431 174.299 757.215 171.52 755.777 169.089C754.338 166.658 745.515 161.533 744.884 165.847C744.306 169.807 747.162 168.626 748.203 171.752C749.245 174.879 750.518 176.221 757 179.081L759.431 174.299Z" fill="#FFB27D"/>
<path d="M757.318 175.85C759.253 172.96 759.831 172.81 759.831 172.81C759.831 172.81 791.828 185.061 794.882 186.084C797.936 187.106 843.586 189.683 843.586 189.683L857.363 218.75C857.363 218.75 796.528 205.432 788.844 202.694C776.146 198.171 755.777 180.452 755.777 180.452C755.777 180.452 755.798 178.12 757.318 175.85Z" fill="#E58638"/>
<path d="M836.807 447.636C836.807 447.636 836.11 458.418 834.024 460.954H801.929C802.133 459.879 803.041 457.225 807.054 456.552C812.125 455.705 820.614 452.284 823.683 445.85C826.915 439.082 836.807 447.636 836.807 447.636Z" fill="#163560"/>
<path d="M893.856 443.204C893.856 443.204 895.877 459.555 893.13 459.797C892.765 459.829 879.909 459.807 876.414 460.309C870.706 461.129 861.185 460.414 861.185 460.414C859.993 460.461 859.212 459.222 859.819 458.235C860.485 457.154 861.755 455.998 864.179 455.55C869.233 454.616 877.656 451.053 880.609 444.569C883.715 437.748 893.856 443.204 893.856 443.204Z" fill="#163560"/>
<path d="M821.717 304.153C821.717 304.153 829.786 331.256 852.914 378.326C860.487 393.744 865.553 406.22 868.942 416.039C869.382 417.305 869.794 418.525 870.172 419.699C870.79 421.592 871.341 423.365 871.828 425.028C872.2 426.3 872.536 427.507 872.846 428.648C875.877 439.977 875.815 445.127 875.815 445.127C875.815 445.127 881.066 447.027 887.341 446.426C890.537 446.116 897.547 443.241 897.547 443.241C897.547 443.241 896.791 435.651 895.265 424.922C895.093 423.741 894.915 422.528 894.729 421.275C894.482 419.6 894.213 417.866 893.932 416.092C893.739 414.898 893.54 413.685 893.334 412.465C890.646 396.48 886.661 377.923 881.341 366.35C870.412 342.597 868.186 277.59 868.186 277.59L821.717 304.153Z" fill="#233862"/>
<path d="M808.81 290.324C809.064 305.558 810.274 337.507 815.683 374.337C818.295 392.135 819.703 406.398 820.426 417.444C820.508 418.743 820.583 419.996 820.645 421.203C820.755 423.148 820.838 424.981 820.907 426.696C820.954 427.995 820.996 429.228 821.023 430.402C821.326 442.291 820.687 447.751 820.687 447.751C820.687 447.751 821.147 448.022 822.102 448.365H822.11C823.739 448.952 826.797 449.743 831.402 449.743C833.47 449.743 835.251 449.479 836.68 449.143C839.168 448.563 840.591 447.765 840.591 447.765C840.591 447.765 841.808 440.9 843.189 430.943C843.361 429.749 843.526 428.516 843.697 427.237C843.924 425.549 844.144 423.794 844.371 421.981C844.515 420.768 844.666 419.541 844.81 418.288C846.639 402.468 848.054 383.675 846.529 370.98C846.288 368.956 846.171 366.707 846.164 364.267V364.26C846.151 352.832 848.583 337.441 851.504 323.092C851.504 323.092 851.511 323.052 851.532 322.973C854.543 308.208 858.061 294.571 859.966 287.508C860.824 284.31 861.354 282.464 861.354 282.464L859.753 282.411H859.745L847.099 282.022L812.603 280.947L810.48 280.881L808.762 280.828C808.762 280.828 808.707 284.244 808.81 290.324Z" fill="#2A4E96"/>
<path d="M844.513 182.603L835.967 188.679L823.616 186.183C823.787 185.102 824.602 180.621 825.345 176.562C825.39 176.323 825.434 176.083 825.477 175.849C826.112 172.396 826.661 169.429 826.661 169.429L838.198 163.91L842.499 161.853C842.488 161.925 842.165 165.685 842.121 166.234C841.313 175.981 844.513 182.603 844.513 182.603Z" fill="#FFB27D"/>
<path d="M824.48 179.537C824.751 179.428 841.282 174.745 843.077 175.315C844.873 175.884 845.936 179.219 845.936 179.219L820.415 186.197C820.415 186.197 821.026 180.933 824.48 179.537Z" fill="#E58638"/>
<path d="M868.992 286.009C866.195 298.278 807.776 259.778 808.554 252.291C808.639 251.469 808.725 250.64 808.81 249.818C809.889 239.392 810.923 229.191 810.994 222.533C811.051 216.758 811.879 210.853 812.986 205.489C813.999 200.536 815.248 196.042 816.332 192.541C817.096 190.076 818.523 187.904 820.415 186.198C821.757 184.985 823.334 184.012 825.075 183.348C825.546 183.156 826.031 182.999 826.524 182.862C833.56 180.902 843.294 178.477 845.935 179.217C853.085 181.238 858.395 193.315 862.155 208.715C869.192 237.542 870.819 278.014 868.992 286.009Z" fill="#F99746"/>
<path d="M841.254 166.405C838.721 171.059 829.281 175.083 825.344 176.562C825.389 176.323 825.434 176.083 825.476 175.849C826.112 172.396 826.661 169.429 826.661 169.429L838.197 163.91C840.747 163.872 842.299 164.49 841.254 166.405Z" fill="#FCA56B"/>
<path d="M821.056 168.781C821.056 168.781 841.867 175.013 845.711 162.512C849.555 150.011 854.829 142.396 841.704 137.889C828.578 133.381 824.519 137.417 822.178 141.29C819.838 145.163 815.74 166.838 821.056 168.781Z" fill="#FFB27D"/>
<path d="M822.995 140.085C822.995 140.085 824.323 154.632 827.457 154C830.59 153.369 833.433 152.901 832.974 157.286C832.515 161.671 828.169 166.734 837.828 167.51C847.486 168.286 861.371 144.375 858.718 139.848C851.062 126.786 811.931 124.151 822.995 140.085Z" fill="#163560"/>
<path d="M810.317 280.827C816.103 282.835 810.216 275.308 810.317 273.74C810.767 266.842 807.948 258.121 808.811 249.818L844.145 229.543C844.145 229.543 852.529 280.505 810.317 280.827Z" fill="#E58638"/>
<path d="M868.992 286.009C853.908 312.845 851.506 323.092 851.506 323.092C838.378 321.655 815.882 296.88 808.746 290.266C808.746 290.266 807.776 259.778 808.554 252.291L819.458 251.989C819.458 251.989 839.169 256.785 844.279 250.276C849.388 243.769 847.176 211.825 847.176 211.825L862.155 208.715C869.192 237.542 873.041 278.806 868.992 286.009Z" fill="#2A4E96"/>
<path d="M779.49 234.584C779.49 234.584 772.309 229.921 770.947 229.515C769.586 229.109 765.12 228.669 764.913 229.007C764.706 229.344 764.095 230.378 764.874 230.728C765.655 231.078 766.626 230.955 766.334 231.199C766.043 231.444 763.107 230.103 762.431 231.54C761.754 232.976 761.158 237.899 764.602 239.391C768.045 240.884 776.547 239.535 777.161 239.707C782.359 241.157 779.49 234.584 779.49 234.584Z" fill="#FFB27D"/>
<path d="M779.423 233.323C779.423 233.323 814.468 239.043 817.573 237.591C822.529 235.275 815.65 201.144 815.65 201.144C815.65 201.144 815.354 193.408 824.766 191.584C832.946 189.998 840.838 195.88 840.838 195.88C840.838 195.88 848.015 202.044 847.098 208.882C845.065 224.039 841.904 254.866 831.343 259.592C817.721 265.686 778.306 242.691 778.306 242.691C778.306 242.691 776.994 241.148 777.18 238.282C777.345 235.756 779.423 233.323 779.423 233.323Z" fill="#F99746"/>
<path d="M850.081 211.222L847.176 211.825C847.176 211.825 841.039 186.321 820.415 186.197C821.757 184.985 823.333 184.012 825.075 183.348C832.633 185.294 845.756 191.493 850.081 211.222Z" fill="#2A4E96"/>
<g opacity="0.5">
<path d="M868.941 416.039C869.381 417.305 869.793 418.525 870.172 419.699C877.917 419.706 885.271 418.314 890.708 416.956C891.876 416.665 892.962 416.369 893.931 416.092C893.738 414.898 893.539 413.685 893.333 412.465C887.828 414.054 878.584 416.25 868.941 416.039Z" fill="white"/>
</g>
<g opacity="0.5">
<path d="M871.828 425.028C872.199 426.3 872.535 427.507 872.846 428.648C879.89 428.456 886.509 427.184 891.506 425.938C892.894 425.588 894.152 425.239 895.265 424.922C895.093 423.742 894.915 422.528 894.729 421.275C889.684 422.752 881.051 424.916 871.828 425.028Z" fill="white"/>
</g>
<path d="M758.56 173.167C758.56 173.167 758.158 170.401 757.309 168.394C756.46 166.386 755.38 163.84 755.149 165.152C754.917 166.464 755.766 168.703 755.149 169.784C754.531 170.864 758.56 173.167 758.56 173.167Z" fill="#FFB27D"/>
<path d="M820.425 417.444C820.508 418.743 820.583 419.996 820.644 421.203C827.793 422.488 834.762 422.534 840.054 422.278C841.662 422.198 843.112 422.093 844.371 421.981C844.515 420.767 844.666 419.541 844.81 418.287C839.559 418.783 830.04 419.33 820.425 417.444Z" fill="white"/>
<path d="M820.906 426.696C820.954 427.995 820.996 429.228 821.023 430.402C827.628 431.437 834.006 431.47 838.927 431.226C840.515 431.147 841.945 431.048 843.189 430.942C843.361 429.749 843.526 428.515 843.697 427.236C838.741 427.698 829.972 428.219 820.906 426.696Z" fill="white"/>
<path d="M216.18 235.983V236.636C216.18 249.141 205.587 259.312 192.573 259.312H121.827C113.965 259.312 107.572 265.454 107.572 273.003V275.166C107.572 282.716 113.966 288.857 121.827 288.857H199.929C201.517 288.857 202.809 290.145 202.809 291.733C202.809 293.419 202.124 294.948 201.017 296.055C199.916 297.162 198.388 297.842 196.702 297.842H121.827C108.809 297.842 98.2157 287.672 98.2157 275.166V273.003C98.2157 260.503 108.809 250.332 121.827 250.332H192.573C200.429 250.332 206.827 244.186 206.827 236.636V235.983C206.827 228.433 200.429 222.288 192.573 222.288H120.508C107.493 222.288 96.901 212.117 96.901 199.611V196.573C96.901 184.068 107.494 173.897 120.508 173.897H192.573C200.429 173.897 206.827 167.755 206.827 160.206C206.827 152.656 200.429 146.51 192.573 146.51H50.5022C51.349 143.556 52.3121 140.564 53.4003 137.529H192.573C205.587 137.529 216.18 147.7 216.18 160.206C216.18 172.706 205.587 182.882 192.573 182.882H120.508C112.651 182.882 106.253 189.023 106.253 196.573V199.611C106.253 207.166 112.651 213.307 120.508 213.307H192.573C205.587 213.306 216.18 223.478 216.18 235.983Z" fill="#BDD1F9"/>
<path d="M623.03 140.215H502.082V142.934H623.03V140.215Z" fill="#99B9FF"/>
<path d="M500.685 141.177C500.685 139.592 501.97 138.307 503.554 138.307C505.139 138.307 506.423 139.592 506.423 141.177C506.423 142.763 505.139 144.047 503.554 144.047C501.97 144.047 500.685 142.763 500.685 141.177Z" fill="#99B9FF"/>
<path d="M619.333 141.177C619.333 139.592 620.617 138.307 622.202 138.307C623.786 138.307 625.07 139.592 625.07 141.177C625.07 142.763 623.786 144.047 622.202 144.047C620.617 144.047 619.333 142.763 619.333 141.177Z" fill="#99B9FF"/>
<path d="M611.28 140.289V233.843C601.995 235.429 577.762 234.069 563.947 235.655C550.132 237.241 518.783 235.111 518.783 235.111V140.724C518.783 139.174 520.036 137.919 521.585 137.917C535.35 137.894 595.693 137.804 608.773 137.783C610.159 137.781 611.28 138.902 611.28 140.289Z" fill="#F99746"/>
<path d="M611.28 197.409V233.843C601.995 235.429 577.762 234.069 563.947 235.655C550.132 237.241 518.783 235.111 518.783 235.111V200.048C518.998 198.795 519.123 198.07 519.123 198.07C519.123 198.07 539.261 199.631 557.152 198.499C574.954 197.372 596.342 200.282 611.28 197.409Z" fill="#FFAF73"/>
<path d="M535.746 218.819C528.178 218.819 519.328 218.456 518.831 218.435L518.925 216.171C519.088 216.178 535.26 216.843 542.59 216.399L544.318 216.293C553.194 215.743 571.664 214.597 579.382 215.884C587.313 217.206 611.787 215.585 612.034 215.568L612.185 217.829C611.169 217.898 587.197 219.484 579.01 218.119C571.546 216.874 552.564 218.051 544.457 218.554L542.727 218.66C540.817 218.777 538.357 218.819 535.746 218.819Z" fill="white"/>
<path d="M535.744 223.804C528.176 223.804 519.329 223.44 518.832 223.42L518.926 221.156C519.089 221.162 535.261 221.828 542.59 221.384L544.318 221.278C553.194 220.727 571.665 219.582 579.382 220.868C587.314 222.191 611.788 220.57 612.035 220.553L612.186 222.814C611.169 222.882 587.198 224.468 579.01 223.103C571.547 221.858 552.564 223.036 544.458 223.538L542.727 223.645C540.816 223.761 538.357 223.804 535.744 223.804Z" fill="white"/>
<path d="M796.76 134.95C796.76 134.95 767.876 158.257 764.949 156.788C762.021 155.328 761.487 151.639 761.487 151.639C755.442 152.806 750.434 160.606 748.18 164.692C747.36 166.187 746.911 167.189 746.911 167.189C744.217 167.837 742.671 165.823 742.671 165.823C745.832 153.868 758.784 139.476 772.073 134.578C785.353 129.68 795.335 133.784 796.76 134.95Z" fill="#99B9FF"/>
<path d="M799.558 137.754C801.995 142.934 795.827 150.967 785.782 155.697C775.737 160.426 765.618 160.061 763.181 154.881C760.744 149.701 766.912 141.667 776.957 136.937C787.003 132.209 797.121 132.574 799.558 137.754Z" fill="#D4E4FF"/>
<path d="M783.317 146.35C783.452 146.637 783.052 147.11 782.425 147.406C781.797 147.701 781.178 147.707 781.043 147.421C780.908 147.134 781.307 146.661 781.935 146.365C782.563 146.07 783.182 146.063 783.317 146.35Z" fill="#99B9FF"/>
<path d="M775.617 149.976C775.753 150.263 775.352 150.735 774.725 151.031C774.097 151.327 773.478 151.333 773.343 151.046C773.208 150.759 773.607 150.286 774.235 149.991C774.863 149.695 775.482 149.688 775.617 149.976Z" fill="#99B9FF"/>
<path d="M787.167 144.537C787.302 144.824 786.903 145.297 786.275 145.593C785.647 145.888 785.028 145.895 784.893 145.608C784.758 145.321 785.158 144.848 785.785 144.552C786.413 144.257 787.032 144.25 787.167 144.537Z" fill="#99B9FF"/>
<path d="M791.017 142.724C791.153 143.012 790.752 143.485 790.125 143.78C789.497 144.076 788.879 144.082 788.743 143.795C788.608 143.508 789.008 143.035 789.636 142.739C790.263 142.444 790.882 142.437 791.017 142.724Z" fill="#99B9FF"/>
<path d="M796.004 140.376C796.139 140.664 795.739 141.136 795.112 141.432C794.484 141.728 793.865 141.735 793.73 141.447C793.595 141.16 793.995 140.687 794.622 140.392C795.25 140.096 795.869 140.089 796.004 140.376Z" fill="#99B9FF"/>
<path d="M779.467 148.163C779.602 148.45 779.202 148.923 778.574 149.218C777.947 149.514 777.328 149.52 777.193 149.234C777.058 148.946 777.458 148.474 778.085 148.178C778.713 147.882 779.331 147.875 779.467 148.163Z" fill="#99B9FF"/>
<path d="M770.885 152.204C771.021 152.49 770.621 152.964 769.994 153.258C769.365 153.554 768.747 153.561 768.612 153.273C768.476 152.986 768.876 152.514 769.504 152.218C770.132 151.922 770.751 151.916 770.885 152.204Z" fill="#99B9FF"/>
<path d="M782.227 144.033C782.362 144.32 781.962 144.793 781.335 145.088C780.706 145.384 780.088 145.391 779.953 145.103C779.818 144.816 780.217 144.343 780.845 144.047C781.473 143.753 782.091 143.745 782.227 144.033Z" fill="#99B9FF"/>
<path d="M774.526 147.659C774.662 147.945 774.262 148.418 773.634 148.714C773.007 149.009 772.388 149.016 772.252 148.729C772.117 148.442 772.517 147.969 773.145 147.674C773.773 147.377 774.391 147.371 774.526 147.659Z" fill="#99B9FF"/>
<path d="M770.522 149.143C770.657 149.43 770.257 149.902 769.63 150.197C769.001 150.494 768.383 150.5 768.248 150.213C768.113 149.926 768.512 149.452 769.14 149.157C769.768 148.862 770.387 148.855 770.522 149.143Z" fill="#99B9FF"/>
<path d="M792.935 138.589C793.07 138.877 792.67 139.349 792.043 139.646C791.415 139.941 790.796 139.948 790.661 139.66C790.526 139.373 790.925 138.901 791.553 138.605C792.181 138.309 792.8 138.302 792.935 138.589Z" fill="#99B9FF"/>
<path d="M773.097 145.507C773.232 145.794 772.833 146.267 772.205 146.562C771.577 146.858 770.958 146.865 770.823 146.577C770.688 146.29 771.088 145.817 771.715 145.523C772.343 145.226 772.962 145.22 773.097 145.507Z" fill="#99B9FF"/>
<path d="M786.077 142.22C786.212 142.507 785.812 142.979 785.184 143.275C784.557 143.571 783.938 143.578 783.803 143.291C783.668 143.003 784.068 142.531 784.695 142.235C785.323 141.939 785.941 141.933 786.077 142.22Z" fill="#99B9FF"/>
<path d="M789.927 140.407C790.062 140.694 789.662 141.167 789.035 141.463C788.407 141.758 787.788 141.765 787.653 141.478C787.518 141.19 787.918 140.718 788.545 140.423C789.173 140.126 789.792 140.12 789.927 140.407Z" fill="#99B9FF"/>
<path d="M778.376 145.846C778.512 146.133 778.112 146.605 777.484 146.901C776.856 147.197 776.237 147.204 776.103 146.917C775.967 146.629 776.367 146.156 776.994 145.861C777.623 145.565 778.241 145.558 778.376 145.846Z" fill="#99B9FF"/>
<path d="M784.288 148.415C784.423 148.702 784.024 149.175 783.396 149.471C782.768 149.766 782.15 149.773 782.014 149.486C781.879 149.199 782.279 148.726 782.907 148.43C783.534 148.134 784.153 148.128 784.288 148.415Z" fill="#99B9FF"/>
<path d="M776.588 152.04C776.723 152.327 776.323 152.8 775.696 153.096C775.069 153.392 774.45 153.398 774.314 153.111C774.179 152.824 774.579 152.351 775.206 152.055C775.834 151.76 776.453 151.753 776.588 152.04Z" fill="#99B9FF"/>
<path d="M773.903 154.575C774.039 154.862 773.639 155.335 773.011 155.631C772.383 155.926 771.765 155.933 771.63 155.646C771.494 155.358 771.894 154.886 772.522 154.59C773.15 154.295 773.768 154.288 773.903 154.575Z" fill="#99B9FF"/>
<path d="M788.138 146.602C788.274 146.889 787.874 147.362 787.247 147.658C786.618 147.953 786 147.96 785.865 147.673C785.729 147.386 786.129 146.913 786.757 146.618C787.385 146.323 788.003 146.315 788.138 146.602Z" fill="#99B9FF"/>
<path d="M791.988 144.789C792.124 145.076 791.724 145.549 791.097 145.844C790.468 146.14 789.85 146.147 789.715 145.859C789.579 145.572 789.979 145.099 790.607 144.805C791.235 144.509 791.853 144.502 791.988 144.789Z" fill="#99B9FF"/>
<path d="M795.152 143.3C795.286 143.587 794.887 144.06 794.259 144.356C793.631 144.651 793.013 144.659 792.878 144.371C792.742 144.084 793.142 143.611 793.77 143.316C794.397 143.02 795.016 143.013 795.152 143.3Z" fill="#99B9FF"/>
<path d="M793.079 147.106C793.214 147.394 792.814 147.867 792.187 148.162C791.559 148.458 790.94 148.465 790.805 148.177C790.67 147.89 791.07 147.417 791.697 147.122C792.324 146.826 792.944 146.819 793.079 147.106Z" fill="#99B9FF"/>
<path d="M780.438 150.228C780.573 150.515 780.174 150.987 779.546 151.283C778.918 151.579 778.3 151.586 778.164 151.298C778.029 151.011 778.429 150.538 779.056 150.243C779.685 149.947 780.303 149.94 780.438 150.228Z" fill="#99B9FF"/>
<path d="M785.379 150.732C785.514 151.02 785.114 151.492 784.486 151.788C783.858 152.083 783.24 152.09 783.105 151.803C782.97 151.515 783.369 151.043 783.997 150.747C784.625 150.452 785.243 150.445 785.379 150.732Z" fill="#99B9FF"/>
<path d="M779.992 139.282C780.126 139.569 779.727 140.042 779.099 140.338C778.472 140.633 777.853 140.639 777.717 140.352C777.583 140.066 777.982 139.592 778.61 139.297C779.238 139.002 779.857 138.995 779.992 139.282Z" fill="#99B9FF"/>
<path d="M786.514 153.144C786.648 153.432 786.249 153.905 785.621 154.2C784.993 154.496 784.375 154.503 784.239 154.215C784.104 153.928 784.504 153.455 785.131 153.16C785.76 152.864 786.379 152.857 786.514 153.144Z" fill="#99B9FF"/>
<path d="M789.228 148.919C789.364 149.206 788.964 149.679 788.336 149.975C787.708 150.27 787.09 150.278 786.955 149.99C786.819 149.703 787.219 149.23 787.847 148.935C788.474 148.639 789.094 148.632 789.228 148.919Z" fill="#99B9FF"/>
<path d="M781.528 152.545C781.664 152.832 781.264 153.305 780.636 153.6C780.008 153.895 779.39 153.903 779.255 153.615C779.119 153.328 779.519 152.856 780.147 152.559C780.775 152.265 781.393 152.258 781.528 152.545Z" fill="#99B9FF"/>
<path d="M778.039 154.188C778.175 154.475 777.775 154.947 777.147 155.243C776.52 155.539 775.901 155.546 775.766 155.258C775.63 154.971 776.03 154.499 776.658 154.203C777.286 153.907 777.904 153.901 778.039 154.188Z" fill="#99B9FF"/>
<path d="M781.139 141.72C781.274 142.007 780.874 142.481 780.247 142.775C779.619 143.071 779 143.078 778.865 142.79C778.73 142.503 779.13 142.03 779.757 141.735C780.385 141.44 781.004 141.433 781.139 141.72Z" fill="#99B9FF"/>
<path d="M784.989 139.908C785.124 140.194 784.724 140.668 784.097 140.963C783.469 141.259 782.85 141.265 782.715 140.978C782.58 140.691 782.98 140.218 783.607 139.923C784.235 139.627 784.854 139.62 784.989 139.908Z" fill="#99B9FF"/>
<path d="M784.087 137.99C784.222 138.277 783.822 138.749 783.194 139.045C782.567 139.341 781.948 139.348 781.813 139.061C781.677 138.774 782.077 138.3 782.704 138.005C783.333 137.709 783.952 137.702 784.087 137.99Z" fill="#99B9FF"/>
<path d="M790.119 150.812C790.255 151.099 789.855 151.572 789.227 151.867C788.599 152.163 787.98 152.169 787.846 151.882C787.71 151.595 788.109 151.122 788.737 150.827C789.365 150.532 789.984 150.525 790.119 150.812Z" fill="#99B9FF"/>
<path d="M782.794 154.261C782.93 154.548 782.53 155.021 781.903 155.317C781.274 155.612 780.656 155.619 780.52 155.332C780.385 155.044 780.785 154.571 781.413 154.276C782.041 153.98 782.659 153.973 782.794 154.261Z" fill="#99B9FF"/>
<path d="M776.386 141.615C776.522 141.902 776.122 142.375 775.494 142.67C774.866 142.966 774.248 142.973 774.112 142.685C773.977 142.398 774.377 141.926 775.005 141.63C775.633 141.334 776.251 141.328 776.386 141.615Z" fill="#99B9FF"/>
<path d="M788.839 138.095C788.975 138.382 788.575 138.855 787.947 139.151C787.32 139.446 786.701 139.452 786.565 139.166C786.43 138.879 786.83 138.406 787.458 138.111C788.085 137.815 788.704 137.808 788.839 138.095Z" fill="#99B9FF"/>
<path d="M777.289 143.533C777.425 143.82 777.025 144.293 776.397 144.589C775.769 144.884 775.15 144.892 775.015 144.604C774.88 144.317 775.28 143.844 775.907 143.548C776.535 143.253 777.154 143.246 777.289 143.533Z" fill="#99B9FF"/>
<path d="M716.995 459.693H711.03V125.481C711.03 124.126 712.128 123.028 713.483 123.028H714.749C715.989 123.028 716.995 124.034 716.995 125.275V459.693Z" fill="#AEC3FF"/>
<path d="M717.169 255.479L716.823 251.402C720.433 251.289 723.605 250.254 726.521 248.238C735.924 241.738 741.552 225.745 742.796 201.992C743.75 183.775 741.725 167.37 741.704 167.206L748.395 166.895C748.737 169.614 756.49 233.696 731.56 250.935C727.444 253.781 722.602 255.309 717.169 255.479Z" fill="#99B9FF"/>
<path d="M772.16 323.836H718.282C715.924 323.836 714.013 321.923 714.013 319.565C714.013 317.206 715.925 315.294 718.282 315.294H772.16C774.519 315.294 776.429 317.206 776.429 319.565C776.429 321.923 774.519 323.836 772.16 323.836Z" fill="#AEC3FF"/>
<path d="M752.32 171.141H714.629C712.65 171.141 711.03 169.521 711.03 167.541C711.03 165.561 712.65 163.941 714.629 163.941H752.32C754.299 163.941 755.918 165.561 755.918 167.541C755.918 169.521 754.299 171.141 752.32 171.141Z" fill="#AEC3FF"/>
<path d="M770.082 260.548L766.811 306.665H753.417L750.75 260.548H770.082Z" fill="#F99746"/>
<path d="M766.811 306.665H753.417V315.294H766.811V306.665Z" fill="white"/>
<path d="M770.082 257.672H750.75V260.548H770.082V257.672Z" fill="#D87932"/>
<path d="M765.77 276.317C765.77 274.756 764.505 273.49 762.944 273.49C761.384 273.49 760.119 274.756 760.119 276.317C760.119 277.878 761.384 279.144 762.944 279.144C764.505 279.144 765.77 277.878 765.77 276.317Z" fill="white"/>
<path d="M762.002 283.18C762.002 281.247 760.436 279.679 758.503 279.679C756.57 279.679 755.004 281.247 755.004 283.18C755.004 285.114 756.57 286.681 758.503 286.681C760.436 286.681 762.002 285.114 762.002 283.18Z" fill="white"/>
<path d="M758.763 277.377C758.763 276.401 757.972 275.609 756.996 275.609C756.02 275.609 755.229 276.401 755.229 277.377C755.229 278.352 756.02 279.144 756.996 279.144C757.972 279.144 758.763 278.352 758.763 277.377Z" fill="white"/>
<path d="M758.152 276.766C758.152 276.428 757.879 276.155 757.541 276.155C757.204 276.155 756.93 276.428 756.93 276.766C756.93 277.103 757.204 277.377 757.541 277.377C757.879 277.377 758.152 277.103 758.152 276.766Z" fill="#F99746"/>
<path d="M758.029 284.532C758.029 283.925 757.538 283.433 756.931 283.433C756.324 283.433 755.832 283.925 755.832 284.532C755.832 285.138 756.324 285.63 756.931 285.63C757.538 285.63 758.029 285.138 758.029 284.532Z" fill="#F99746"/>
<path d="M765.12 277.224C765.12 276.567 764.588 276.035 763.932 276.035C763.275 276.035 762.743 276.567 762.743 277.224C762.743 277.88 763.275 278.412 763.932 278.412C764.588 278.412 765.12 277.88 765.12 277.224Z" fill="#F99746"/>
<path d="M745.695 274.085L742.423 306.665H729.03L726.363 274.085H745.695Z" fill="#F99746"/>
<path d="M742.423 306.665H729.03V315.294H742.423V306.665Z" fill="white"/>
<path d="M745.695 272.053H726.363V274.085H745.695V272.053Z" fill="#D87932"/>
<path d="M741.383 282.912C741.383 281.351 740.118 280.086 738.557 280.086C736.997 280.086 735.732 281.351 735.732 282.912C735.732 284.473 736.997 285.739 738.557 285.739C740.118 285.739 741.383 284.473 741.383 282.912Z" fill="white"/>
<path d="M737.615 289.776C737.615 287.842 736.048 286.274 734.116 286.274C732.183 286.274 730.616 287.842 730.616 289.776C730.616 291.709 732.183 293.276 734.116 293.276C736.048 293.276 737.615 291.708 737.615 289.776Z" fill="white"/>
<path d="M734.375 283.972C734.375 282.996 733.585 282.204 732.609 282.204C731.633 282.204 730.842 282.996 730.842 283.972C730.842 284.948 731.633 285.739 732.609 285.739C733.585 285.739 734.375 284.948 734.375 283.972Z" fill="white"/>
<path d="M733.765 283.361C733.765 283.023 733.492 282.75 733.154 282.75C732.817 282.75 732.543 283.023 732.543 283.361C732.543 283.699 732.817 283.972 733.154 283.972C733.492 283.972 733.765 283.698 733.765 283.361Z" fill="#F99746"/>
<path d="M733.642 291.127C733.642 290.52 733.15 290.029 732.543 290.029C731.937 290.029 731.445 290.52 731.445 291.127C731.445 291.734 731.937 292.226 732.543 292.226C733.15 292.226 733.642 291.734 733.642 291.127Z" fill="#F99746"/>
<path d="M740.732 283.819C740.732 283.163 740.2 282.63 739.543 282.63C738.887 282.63 738.356 283.163 738.356 283.819C738.356 284.476 738.887 285.008 739.543 285.008C740.2 285.008 740.732 284.476 740.732 283.819Z" fill="#F99746"/>
<path d="M761.486 151.639C755.442 152.806 750.433 160.606 748.179 164.692C748.456 159.613 758.066 148.037 760.657 148.953C763.248 149.86 761.486 151.639 761.486 151.639Z" fill="#7FA5EA"/>
<path d="M752.185 490.333L742.777 508.037H737.927L741.685 490.333H752.185Z" fill="#95B1EF"/>
<path d="M952.771 490.333L962.18 508.037H967.029L963.272 490.333H952.771Z" fill="#95B1EF"/>
<path d="M1054.52 366.132L1031.08 430.305C1016.69 469.707 979.22 495.918 937.286 495.918H768.441C732.283 495.918 701.017 470.697 693.352 435.344L684.031 392.341C706.659 395.951 730.672 397.925 755.169 398.666C896.766 402.967 1054.52 366.132 1054.52 366.132Z" fill="#BDD1F9"/>
<path d="M852.712 495.918H768.441C732.283 495.918 701.017 470.697 693.352 435.344L684.031 392.341C706.659 395.951 730.672 397.925 755.169 398.666C754.162 414.457 755.451 483.316 852.712 495.918Z" fill="#AEC3FF"/>
<path d="M795.493 401.669C775.941 401.669 758.371 401.087 743.771 400.326C702.775 398.193 675.662 394.236 675.393 394.197C673.263 393.883 671.791 391.9 672.105 389.77C672.42 387.639 674.4 386.168 676.531 386.48C676.797 386.52 703.626 390.432 744.283 392.543C781.771 394.49 839.023 395.259 898.877 387.871C958.801 380.476 999.872 373.146 1023.78 368.299C1049.68 363.047 1061.56 359.498 1061.68 359.463C1063.74 358.843 1065.91 360.01 1066.53 362.072C1067.15 364.134 1065.99 366.309 1063.93 366.931C1063.44 367.077 1051.71 370.586 1025.54 375.9C1001.47 380.785 960.131 388.171 899.831 395.613C862.71 400.194 826.597 401.669 795.493 401.669Z" fill="#95B1EF"/>
<path d="M467.466 115.622H355.4V258.402H467.466V115.622Z" fill="#99B9FF"/>
<path d="M462.925 120.09H359.942V254.485H462.925V120.09Z" fill="#BDD1F9"/>
<path d="M209.738 337.796H71.264V508.327H209.738V337.796Z" fill="#BDD1F9"/>
<path d="M209.738 363.223H71.264V365.539H209.738V363.223Z" fill="#AEC3FF"/>
<path d="M112.237 360.966H75.431V341.286H112.237V360.966ZM75.8941 360.502H111.774V341.748H75.8941V360.502Z" fill="#AEC3FF"/>
<path d="M132.262 351.126C132.262 347.481 135.215 344.527 138.858 344.527C142.501 344.527 145.453 347.481 145.453 351.126C145.453 354.77 142.501 357.724 138.858 357.724C135.215 357.724 132.262 354.77 132.262 351.126Z" fill="#AEC3FF"/>
<path d="M150.087 351.126C150.087 348.155 152.494 345.747 155.464 345.747C158.433 345.747 160.84 348.155 160.84 351.126C160.84 354.097 158.433 356.505 155.464 356.505C152.494 356.505 150.087 354.097 150.087 351.126Z" fill="#AEC3FF"/>
<path d="M198.734 344.802H169.259V357.449H198.734V344.802Z" fill="#AEC3FF"/>
<path d="M138.857 480.239C167.194 480.239 190.165 457.259 190.165 428.911C190.165 400.563 167.194 377.583 138.857 377.583C110.521 377.583 87.55 400.563 87.55 428.911C87.55 457.259 110.521 480.239 138.857 480.239Z" fill="#AEC3FF"/>
<path d="M140.927 470.133C163.684 469.008 181.219 449.639 180.094 426.873C178.968 404.107 159.608 386.564 136.852 387.69C114.095 388.816 96.5598 408.185 97.6853 430.951C98.8108 453.717 118.171 471.259 140.927 470.133Z" fill="#95B1EF"/>
<path d="M179.418 440.009H176.644C173.213 440.009 170.405 437.2 170.405 433.766V428.217C170.405 424.783 173.213 421.974 176.644 421.974H179.418C182.85 421.974 185.658 424.783 185.658 428.217V433.766C185.658 437.2 182.85 440.009 179.418 440.009Z" fill="#AEC3FF"/>
<path d="M494.305 335.486H340.556V508.037H494.305V335.486Z" fill="#BDD1F9"/>
<path d="M494.305 388.419H340.556V390.461H494.305V388.419Z" fill="#AEC3FF"/>
<path d="M430.942 344.802H406.045C405.224 344.802 404.552 344.129 404.552 343.307V342.877C404.552 342.055 405.224 341.383 406.045 341.383H430.942C431.764 341.383 432.436 342.055 432.436 342.877V343.307C432.436 344.129 431.764 344.802 430.942 344.802Z" fill="#AEC3FF"/>
<path d="M494.305 451.04H340.556V453.082H494.305V451.04Z" fill="#AEC3FF"/>
<path d="M430.942 398.101H406.045C405.224 398.101 404.552 397.428 404.552 396.607V396.176C404.552 395.354 405.224 394.682 406.045 394.682H430.942C431.764 394.682 432.436 395.354 432.436 396.176V396.607C432.436 397.428 431.764 398.101 430.942 398.101Z" fill="#AEC3FF"/>
<path d="M430.942 463.512H406.045C405.224 463.512 404.552 462.84 404.552 462.018V461.587C404.552 460.766 405.224 460.093 406.045 460.093H430.942C431.764 460.093 432.436 460.765 432.436 461.587V462.018C432.436 462.84 431.764 463.512 430.942 463.512Z" fill="#AEC3FF"/>
<path d="M502.79 326.489H330.978V337.796H502.79V326.489Z" fill="#95B1EF"/>
<path d="M409.354 301.849C407.466 301.849 405.921 300.303 405.921 298.414V267.162C405.921 265.273 407.466 263.727 409.354 263.727C411.242 263.727 412.787 265.273 412.787 267.162V298.414C412.787 300.303 411.243 301.849 409.354 301.849Z" fill="#95B1EF"/>
<path d="M391.155 284.783C391.155 284.783 399.454 281.66 402.253 283.56C405.052 285.459 401.384 291.348 399.165 291.734C396.945 292.121 390.479 291.155 390.479 291.155L391.155 284.783Z" fill="#FFB27D"/>
<path d="M392.494 288.757C393.798 285.204 392.698 283.437 392.698 283.437C392.698 283.437 362.153 277.516 359.306 275.621C356.459 273.726 330.69 237.976 330.69 237.976L290.195 241.748C290.195 241.748 340.709 284.199 348.017 288.86C360.092 296.561 389.283 292.173 389.283 292.173C389.283 292.173 391.47 291.548 392.494 288.757Z" fill="#ED7D2B"/>
<path d="M391.491 294.144L394.323 296.48L406.7 281.465L403.868 279.129L391.491 294.144Z" fill="#35488B"/>
<path d="M406.984 273.813C406.975 273.827 406.984 273.813 406.975 273.827C406.19 275.068 405.898 276.664 406.919 277.719C408.285 279.13 409.922 278.584 411.135 277.112C411.141 277.106 411.445 276.737 411.451 276.729C411.87 276.212 412.997 277.334 412.923 277.996C412.79 279.185 412.254 280.344 411.292 281.258C409.537 282.927 406.81 283.17 404.784 281.843C402.097 280.084 401.597 276.442 403.583 274.033C404.138 273.36 404.823 272.86 405.574 272.538C406.3 272.226 407.416 273.151 406.984 273.813Z" fill="#35488B"/>
<path d="M391.447 302.308C391.457 302.294 391.448 302.308 391.457 302.294C392.242 301.053 392.534 299.457 391.513 298.402C390.147 296.991 388.51 297.537 387.296 299.009C387.291 299.016 386.986 299.385 386.98 299.391C386.561 299.909 385.434 298.787 385.508 298.125C385.641 296.936 386.179 295.777 387.139 294.863C388.895 293.195 391.621 292.95 393.647 294.278C396.334 296.038 396.834 299.679 394.849 302.087C394.294 302.761 393.608 303.261 392.858 303.583C392.132 303.895 391.015 302.97 391.447 302.308Z" fill="#35488B"/>
<path d="M402.253 283.56C402.253 283.56 397.424 283.412 397.269 285.804C397.115 288.198 396.739 291.875 399.165 291.734C401.591 291.594 408.394 286.101 402.253 283.56Z" fill="#FFB27D"/>
<path d="M419.141 288.31C419.141 288.31 449.612 260.553 461.404 276.103C464.48 280.16 457.799 284.973 452.995 285.717C444.404 287.048 430.192 282.601 419.141 288.31Z" fill="#758BEA"/>
<path d="M468.019 301.848C468.019 312.411 456.606 321.63 439.679 326.521H384.038C367.111 321.629 355.698 312.411 355.698 301.848H468.019Z" fill="#BDD1F9"/>
<path d="M470.789 301.849H352.927C351.567 301.849 350.455 300.736 350.455 299.375C350.455 298.015 351.567 296.903 352.927 296.903H470.789C472.148 296.903 473.261 298.016 473.261 299.375C473.261 300.736 472.148 301.849 470.789 301.849Z" fill="#A2C5FC"/>
<path d="M431.926 306.81C431.926 306.81 433.972 318.316 428.355 321.449C422.739 324.582 418.306 317.924 423.232 314.922C428.157 311.919 430.121 312.056 431.926 306.81Z" fill="#758BEA"/>
<path d="M432.343 296.902C432.343 296.902 447.839 298.968 453.93 310.576C460.021 322.183 464.861 338.474 452.413 340.97C439.964 343.467 434.193 337.117 438.059 322.499C443.521 301.849 432.343 296.902 432.343 296.902Z" fill="#758BEA"/>
<path d="M209.738 482.736C209.738 482.736 204.283 487.794 205.347 491.388C206.411 494.982 211.335 497.378 212 501.77C212.665 506.163 215.327 508.559 217.721 508.559C220.116 508.559 229.139 508.559 229.139 508.559C229.139 508.559 230.902 505.467 226.644 504.536C222.386 503.604 220.781 498.443 221.047 493.651C221.314 488.859 220.648 482.47 220.648 482.47L211.601 480.34L209.738 482.736Z" fill="#2C3A64"/>
<path d="M276.664 495.665C276.664 495.665 275.392 507.176 277.787 508.374H308.674C308.674 508.374 308.729 504.716 303.806 503.917C298.883 503.119 290.235 500.191 288.772 493.668C287.308 487.146 276.664 495.665 276.664 495.665Z" fill="#2C3A64"/>
<path d="M302.54 332.085C302.54 332.085 300.924 352.262 299.024 376.517C296.441 409.466 293.335 449.937 293.029 457.604C292.498 470.917 290.366 492.213 290.366 492.213C290.366 492.213 285.313 497.273 275.198 495.141C275.198 495.141 266.185 464.74 263.61 432.574C263.57 432.048 263.53 431.516 263.49 430.985C261.095 398.241 257.372 329.289 257.372 329.289L302.54 332.085Z" fill="#35488B"/>
<path d="M302.54 332.085C302.54 332.085 300.924 352.262 299.024 376.517L263.61 432.574C263.57 432.048 263.53 431.516 263.49 430.985C261.095 398.241 257.372 329.289 257.372 329.289L302.54 332.085Z" fill="#2C3A64"/>
<path d="M295.156 334.477C295.156 334.477 293.658 338.234 291.124 344.441C285.203 358.908 273.623 386.703 262.158 411.334C256.843 422.75 251.552 433.483 246.86 441.895C227.7 476.244 221.71 485.824 221.71 485.824C221.71 485.824 221.433 485.716 220.972 485.517C218.983 484.679 213.478 482.244 210.958 480.009C210.344 479.463 209.906 478.933 209.737 478.434C209.737 478.434 217.063 412.141 229.896 395.977C237.145 386.842 245.661 359.438 246.061 349.858C246.237 345.632 246.767 339.587 247.297 334.14C247.773 329.223 248.264 324.798 248.503 322.662C248.603 321.793 248.656 321.302 248.656 321.302L282.3 330.836L295.156 334.477Z" fill="#35488B"/>
<path d="M288.309 343.875C273.242 343.09 266.546 341.415 257.918 339.302C252.728 338.031 249.302 335.361 247.298 334.139C247.774 329.222 248.265 324.798 248.504 322.661L262.035 329.583L288.309 343.875Z" fill="#2C3A64"/>
<path d="M307.994 219.437C307.994 219.437 319.883 240.364 331.504 243.096C331.504 243.096 331.15 237.955 329.278 233.458C328.679 232.021 328.95 230.369 329.931 229.161C330.4 228.584 330.838 228.033 331.247 227.511C334.173 223.76 335.563 221.465 335.563 221.465L331.619 210.858L328.944 203.662C327.658 205.997 326.239 207.987 324.762 209.689C317.146 218.449 307.994 219.437 307.994 219.437Z" fill="#FFB27D"/>
<path d="M324.762 209.689C324.762 209.689 323.343 220.176 331.247 227.51C334.173 223.76 335.564 221.465 335.564 221.465L331.62 210.858C327.391 209.568 324.762 209.689 324.762 209.689Z" fill="#ED975D"/>
<path d="M338.697 223.011C338.697 223.011 320.933 216.083 325.416 205.083C329.899 194.083 330.625 185.779 342.156 189.738C353.688 193.696 354.167 198.787 353.563 202.822C352.96 206.858 343.433 224.53 338.697 223.011Z" fill="#FFB27D"/>
<path d="M328.538 269.598C326.611 275.175 324.077 280.891 321.112 286.292C320.529 287.36 319.96 288.412 319.422 289.457C319.062 290.149 318.716 290.841 318.378 291.525C311.896 304.6 308.909 315.932 307.619 324.836C307.373 326.549 307.182 328.17 307.051 329.698C306.467 336.229 245.416 314.963 247.382 305.829C248.68 299.814 250.454 293.491 252.112 288.105C254.531 280.216 256.697 274.331 256.697 274.331C268.116 247.142 284.328 232.506 296.952 224.778C299.24 223.372 301.406 222.197 303.41 221.221C311.082 217.457 316.304 216.519 316.304 216.519C316.304 216.519 318.916 229.58 330.112 234.758C330.127 234.796 331.863 241.849 331.87 241.88C333.745 248.594 332.255 258.865 328.538 269.598Z" fill="#F99746"/>
<path d="M322.866 184.648C322.742 184.403 322.38 184.14 321.499 183.87C321.499 183.87 322.325 183.592 323.287 183.804C323.785 182.586 324.998 180.512 327.272 180.497C327.272 180.497 325.968 180.836 325.487 182.142C328.603 180.166 334.379 179.593 348.797 184.397C367.799 190.729 358.305 201.765 355.426 202.649C352.545 203.534 347.244 197.856 342.474 197.081C337.706 196.305 335.126 202.95 333.308 203.502C331.49 204.053 332.524 202.541 330.62 201.026C328.717 199.512 327.623 203.075 327.664 205.577C327.706 208.079 323.993 210.451 323.993 210.451C323.993 210.451 323.993 210.451 321.817 206.456C319.64 202.461 320.232 187.958 322.312 185.348C322.496 185.117 322.679 184.883 322.866 184.648Z" fill="#2B478B"/>
<path d="M290.899 259.671C290.899 259.671 292.945 275.153 299.855 286.868C306.767 298.584 309.828 280.349 309.828 280.349L290.899 259.671Z" fill="#ED7D2B"/>
<path d="M318.378 291.524C311.896 304.599 308.909 315.931 307.619 324.836C307.373 326.549 307.182 328.17 307.051 329.698C306.467 336.228 306.798 341.038 307.043 343.773C307.673 350.903 254.101 337.135 246.936 326.825C242.997 321.148 247.943 301.665 252.112 288.105C252.811 288.274 286.025 296.179 309.001 275.621L318.378 291.524Z" fill="#35488B"/>
<path d="M322.446 254.729L319.139 248.126C319.147 248.01 319.5 236.471 312.58 229.703C308.848 226.046 303.595 224.394 296.952 224.778C299.241 223.372 301.406 222.197 303.411 221.221C308.157 221.951 312.127 223.879 315.283 226.976C323.416 234.949 322.469 254.192 322.446 254.729Z" fill="#2C3A64"/>
<path d="M368.134 300.19C368.134 300.19 378.552 298.32 380.282 298.522C382.012 298.724 387.959 301.55 388.016 302.046C388.074 302.541 387.766 302.928 386.715 302.95C385.664 302.97 382.233 302.363 382.432 302.792C382.631 303.221 392.479 305.647 392.494 307.653C392.509 309.66 386.887 313.121 382.273 313.152C377.66 313.184 368.866 307.407 368.093 307.302C361.542 306.416 368.134 300.19 368.134 300.19Z" fill="#FFB27D"/>
<path d="M370.086 304.436C370.29 302.379 368.134 300.19 368.134 300.19C368.134 300.19 337.21 291.678 334.651 289.094C332.091 286.511 320.236 245.369 320.236 245.369C320.236 245.369 316.155 228.719 306.6 226.883C298.296 225.288 292.558 229.398 288.803 234.216C284.328 239.957 283.888 247.877 287.602 254.138C295.939 268.191 312.756 296.087 317.667 300.852C328.597 311.459 368.089 309.273 368.089 309.273C368.089 309.273 369.676 308.568 370.086 304.436Z" fill="#F99746"/>
<path d="M947.904 205.105C947.904 205.105 962.137 200.78 970.529 208.92C978.922 217.061 977.269 226.404 989.242 225.677C1001.21 224.95 1003.95 229.354 1002.4 236.241C1000.85 243.129 1015.67 241.191 1020.15 249.598C1024.64 258.003 1025.27 273.48 1002.16 272.683C979.047 271.885 968.799 259.443 958.903 264.611C949.006 269.779 932.691 261.463 936.973 254.22C941.256 246.978 932.947 248.931 931.478 234.138C930.01 219.345 937.908 206.218 947.904 205.105Z" fill="#163560"/>
<path d="M928.795 244.853C928.795 244.853 929.561 238.755 932.518 236.073C935.454 233.409 938.887 232.188 939.638 233.989C940.39 235.789 938.21 240.824 937.474 242.422C936.737 244.019 936.704 246.627 933.54 247.304C930.376 247.98 928.795 244.853 928.795 244.853Z" fill="#FFB27D"/>
<path d="M936.737 244.019L932.043 240.25C931.345 239.69 931.233 238.67 931.794 237.971L940.263 227.415C940.823 226.716 941.842 226.605 942.54 227.166L947.234 230.935C947.932 231.495 948.044 232.515 947.484 233.213L939.014 243.77C938.454 244.468 937.435 244.58 936.737 244.019Z" fill="#F99746"/>
<path d="M936.685 243.032L933.018 240.087C932.418 239.606 932.323 238.73 932.804 238.13L940.636 228.367C941.117 227.768 941.993 227.672 942.592 228.153L946.259 231.098C946.858 231.579 946.954 232.455 946.473 233.055L938.64 242.818C938.16 243.417 937.284 243.513 936.685 243.032Z" fill="#8C9DF4"/>
<path d="M977.671 252.149C965.175 249.509 965.263 250.792 957.086 251.004C957.086 251.004 947.351 251.523 940.85 253.383C929.971 256.495 921.299 268.192 921.299 268.192L934.929 247.303L927.947 243.579C927.947 243.579 896.348 272.712 904.064 284.183C910.494 293.742 935.916 273.918 935.31 276.76C935.303 276.794 935.297 276.825 935.293 276.854C933.425 289.891 943.72 309.098 943.72 309.098L962.902 324.165L981.204 311.137H981.208L982.697 310.599C982.697 310.599 985.714 309.099 986.614 301.963C986.724 301.079 987.362 293.544 987.997 285.949C988.68 277.75 989.355 269.49 989.355 269.49L977.671 252.149Z" fill="#8C9DF4"/>
<path d="M945.13 313.341C945.13 313.341 937.912 334.456 939.193 349.915C939.968 359.258 952.51 425.697 953.211 430.008C953.873 434.072 962.886 486.683 962.886 486.683C962.886 486.683 961.335 495.442 964.647 494.507C969.241 493.21 970.693 491.655 970.693 491.655C970.693 491.655 977.563 403.527 973.311 372.046C969.06 340.565 969.01 313.341 969.01 313.341H945.13Z" fill="#ED7D2B"/>
<path d="M982.523 312.523C982.523 312.523 995.987 330.594 997.241 342.81C998.497 355.026 999.211 397.936 1001.88 409.845C1004.56 421.754 1014.38 444.672 1014.38 481.817C1014.38 481.817 1013.36 483.945 1010.21 485.079C1009.2 485.442 1009.66 483.629 1008.35 483.93C1005.75 484.527 984.605 431.411 983.418 429.021C976.776 415.642 963.75 369.255 949.178 344.638C945.68 338.728 951.325 315.227 951.325 315.227L982.523 312.523Z" fill="#F99746"/>
<path d="M962.399 255.553C964.798 254.466 965.847 252.679 965.326 250.083C964.561 246.273 963.153 242.712 962.987 237.156L962.186 237.342L948.715 240.483C948.715 240.483 949.312 248.831 949.314 248.864C949.674 254.268 950.983 260.723 962.399 255.553Z" fill="#FFB27D"/>
<path d="M948.715 240.483C948.715 240.483 949.166 244.742 949.31 248.764C956.891 248.295 960.671 241.236 962.186 237.342L948.715 240.483Z" fill="#E8945B"/>
<path d="M946.308 244.376C946.308 244.376 964.272 244.071 963.91 232.883C963.548 221.693 965.623 214.119 954.137 213.841C942.653 213.562 940.563 217.904 939.776 221.668C938.989 225.432 941.626 244.168 946.308 244.376Z" fill="#FFB27D"/>
<path d="M945.171 214.372C945.171 214.372 951.206 228.978 959.781 230.88C968.356 232.782 971.967 230.38 971.967 230.38C971.967 230.38 965.273 225.416 963.616 216.414C963.616 216.414 949.115 207.191 945.171 214.372Z" fill="#163560"/>
<path d="M947.475 213.746C947.475 213.746 943.418 215.42 941.829 218.474C940.273 221.46 938.995 222.425 939.481 227.176C939.481 227.176 934.971 220.226 939.471 214.382C944.242 208.184 947.475 213.746 947.475 213.746Z" fill="#163560"/>
<path d="M981.205 311.137H981.209L982.698 310.599C982.698 310.599 985.715 309.099 986.614 301.963C986.725 301.08 987.362 293.544 987.997 285.949C987.997 285.949 981.233 279.214 979.164 283.238C977.096 287.26 981.874 294.848 980.12 299.331C978.36 303.816 975.323 309.831 981.205 311.137Z" fill="#6980E2"/>
<path d="M943.72 309.099C943.72 309.099 947.263 311.903 954.302 312.045C962.709 312.214 983.543 309.9 983.543 309.9C983.543 309.9 984.469 312.488 984.431 315.22C984.431 315.22 958.986 321.64 944.245 316.157C944.245 316.157 942.343 312.579 943.72 309.099Z" fill="#233862"/>
<path d="M952.285 319.293C950.169 319.293 948.448 317.344 948.448 314.949C948.448 312.554 950.169 310.606 952.285 310.606C954.4 310.606 956.121 312.554 956.121 314.949C956.121 317.344 954.4 319.293 952.285 319.293ZM952.285 311.877C950.87 311.877 949.72 313.255 949.72 314.949C949.72 316.643 950.87 318.021 952.285 318.021C953.698 318.021 954.849 316.643 954.849 314.949C954.849 313.255 953.698 311.877 952.285 311.877Z" fill="white"/>
<path d="M978.803 420.207C978.803 420.207 996.825 416.212 1006.89 411.472C1006.89 411.472 1017.07 468.487 1020.93 487.979C1021.53 491.013 1023.06 495.604 1023.64 498.338C1024.73 503.435 1023.5 508.037 1023.5 508.037H992.303C992.303 508.037 992.5 503.237 997.979 501.46C1003.46 499.682 1009.18 495.878 1009.04 493.507C1008.89 491.137 978.803 420.207 978.803 420.207Z" fill="#FFB93E"/>
<path d="M949.263 421.713L975.916 421.515C975.916 421.515 973.681 486.498 974.7 493.411C975.719 500.324 975.916 508.037 975.916 508.037H941.563C941.563 508.037 941.118 504.001 946.598 500.73C952.077 497.46 958.295 500.274 960.368 495.682C962.442 491.09 949.263 421.713 949.263 421.713Z" fill="#FFB93E"/>
<path d="M947.151 237.692C947.28 238.526 946.83 239.287 946.144 239.393C945.459 239.499 944.799 238.91 944.67 238.076C944.541 237.243 944.991 236.481 945.677 236.375C946.362 236.269 947.022 236.858 947.151 237.692Z" fill="white"/>
<path d="M1036.11 288.322C1036.11 288.322 1039.35 282.275 1042.36 281.89C1045.37 281.504 1050.82 279.432 1050.47 280.591C1050.13 281.751 1046.67 282.177 1046.39 282.878C1046.12 283.58 1051.69 284.091 1053.27 284.062C1054.84 284.032 1058.53 283.586 1058.48 284.38C1058.44 285.174 1052.19 289.011 1047.54 288.981C1042.88 288.95 1037.34 291.258 1037.34 291.258L1036.11 288.322Z" fill="#FFB27D"/>
<path d="M978.409 277.467C978.409 277.467 996.349 305.643 1006.58 308.267C1014.63 310.335 1038.38 294.718 1038.38 294.718C1039.77 289.514 1037.23 286.482 1037.23 286.482C1037.23 286.482 1013.17 291.926 1011.01 291.258C1002.32 288.568 994.497 266.794 989.355 259.52C985.043 253.42 977.671 252.149 977.671 252.149L978.409 277.467Z" fill="#8C9DF4"/>
<path d="M920.5 265.889L929.946 259.387L925.207 269.903L915.947 270.752L920.5 265.889Z" fill="#8C9DF4"/>
<path d="M531.53 413.411C531.53 413.411 501.206 420.352 501.206 440.268C501.206 440.268 501.512 450.295 512.395 447.524C520.882 445.363 511.39 433.564 531.53 413.411Z" fill="#8C9DF4"/>
<path d="M529.698 410.863C529.698 410.863 508.277 406.59 506.306 411.598C503.266 419.323 518.132 409.155 529.698 410.863Z" fill="#8C9DF4"/>
<path d="M1111.26 510.773H1.88687C1.21939 510.773 0.67395 510.227 0.67395 509.559V509.251C0.67395 508.583 1.21939 508.037 1.88687 508.037H1111.26C1111.93 508.037 1112.47 508.583 1112.47 509.251V509.559C1112.47 510.227 1111.93 510.773 1111.26 510.773Z" fill="#233862"/>
<path d="M553.829 411.848C553.829 411.848 566.831 426.836 561.667 436.3C560.945 437.624 559.424 439.92 555.257 438.415C551.09 436.91 556.144 431.439 555.951 424.521C555.798 419.033 553.829 411.848 553.829 411.848Z" fill="#8C9DF4"/>
<path d="M542.724 408.917C546.108 409.45 553.98 407.099 554.555 407.043C559.438 406.574 554.729 401.767 554.729 401.767C554.729 401.767 547.055 400.081 545.768 400.179C545.347 400.213 544.649 400.353 543.894 400.538L545.213 401.825C545.213 401.825 538.818 402.499 538.751 403.986C538.68 405.477 539.771 408.453 542.724 408.917Z" fill="#FFB27D"/>
<path d="M545.767 400.18L540.332 400.841C540.332 402.269 544.514 401.802 544.718 402.508C544.923 403.215 545.887 401.524 545.887 401.524L545.767 400.18Z" fill="#FFB27D"/>
<path d="M596.468 400.617C596.468 400.617 589.153 401.332 589.625 402.108C590.097 402.885 593.304 403.222 593.304 403.222L595.876 401.568L596.468 400.617Z" fill="#FFB27D"/>
<path d="M553.222 404.147C552.046 400.744 553.685 399.683 553.685 399.683C553.685 399.683 587.197 383.784 589.938 382.033C592.679 380.282 611.101 346.714 611.101 346.714C611.101 346.714 617.931 332.988 626.629 333.264C634.187 333.504 638.387 338.218 640.718 343.16C643.495 349.049 642.324 356.045 637.853 360.778C627.819 371.402 607.667 392.437 602.447 395.63C590.827 402.737 556.007 408.484 556.007 408.484C556.007 408.484 554.146 406.818 553.222 404.147Z" fill="#E58638"/>
<path d="M558.125 440.58C563.182 446.411 573.849 450.18 594.427 451.135C596.079 451.212 597.742 451.276 599.412 451.327C601.13 451.38 602.853 451.416 604.575 451.439C610.168 451.517 615.732 451.453 621.036 451.274C626.177 451.099 631.075 450.817 635.512 450.448C644.19 449.726 651.118 448.676 654.696 447.471C655.768 447.111 656.539 446.738 656.968 446.353C657.336 446.026 657.633 445.641 657.858 445.204C659.156 442.795 658.477 438.849 656.909 434.499C654.624 428.167 650.428 420.988 647.603 416.494C647.037 415.597 646.532 414.812 646.103 414.156C645.242 412.837 644.706 412.066 644.706 412.066C644.706 412.066 635.094 412.958 621.934 414.664C619.249 415.01 616.414 415.395 613.486 415.81C585.191 419.812 556.997 427.007 557.026 436.554C557.029 438.008 556.933 439.206 558.125 440.58Z" fill="#2B478B"/>
<path d="M593.161 451.02C594.88 451.072 602.853 451.416 604.575 451.439C610.168 451.517 615.732 451.453 621.036 451.274L626.023 431.173C618.31 441.936 595.64 450.326 593.161 451.02Z" fill="#2C3A64"/>
<path d="M609.827 509.405H582.398C582.829 508.36 583.875 506.998 586.421 506.552C590.741 505.794 598.241 503.456 597.28 497.218C596.306 490.894 606.827 490.079 606.827 490.079C606.827 490.079 611.205 506.998 609.827 509.405Z" fill="#2C3A64"/>
<path d="M557.68 439.547C557.68 439.547 591.708 493.1 594.538 499.465C594.538 499.465 606.115 500.542 608.9 492.268C608.9 492.268 588.673 435.752 579.784 431.094C570.894 426.437 557.68 439.547 557.68 439.547Z" fill="#2B478B"/>
<path d="M626.3 326.798C626.3 326.798 614.583 342.84 604.139 343.699C604.139 343.699 604.889 340.302 606.565 336.998C607.641 334.875 607.619 332.364 606.442 330.295C606.425 330.264 606.407 330.233 606.389 330.202C604.337 326.565 603.428 324.391 603.428 324.391L608.232 315.696L609.224 311.021C610.036 313.216 610.987 315.241 612.048 316.911C617.521 325.507 626.3 326.798 626.3 326.798Z" fill="#FFB27D"/>
<path d="M612.506 316.826C612.506 316.826 614.205 324.863 606.389 330.202C604.337 326.565 603.428 324.391 603.428 324.391L608.232 315.695C612.071 315.126 612.506 316.826 612.506 316.826Z" fill="#ED975D"/>
<path d="M601.966 329.238C601.966 329.238 616.664 321.227 611.537 312.147C606.41 303.067 604.854 295.918 595.252 300.648C585.651 305.379 585.8 309.865 586.775 313.312C587.749 316.76 598.011 331.087 601.966 329.238Z" fill="#FFB27D"/>
<path d="M611.485 294.069C611.566 293.841 611.851 293.572 612.59 293.238C612.59 293.238 611.839 293.088 611.024 293.38C610.455 292.375 609.169 290.704 607.187 290.944C607.187 290.944 608.36 291.094 608.924 292.179C605.991 290.805 600.897 290.948 588.876 296.737C573.034 304.366 582.528 312.919 585.134 313.369C587.741 313.819 591.726 308.284 595.792 307.078C599.858 305.872 602.844 311.372 604.489 311.649C606.133 311.927 605.065 310.725 606.554 309.195C608.043 307.664 609.392 310.645 609.634 312.828C609.877 315.012 612.506 316.826 612.506 316.826C612.506 316.826 613.373 316.664 614.824 312.943C616.276 309.221 614.147 296.658 612.045 294.616C611.859 294.436 611.674 294.253 611.485 294.069Z" fill="#2B478B"/>
<path d="M699.242 491.897C699.242 491.897 702.661 497.088 703.456 498.77C704.251 500.452 702.691 504.031 700.346 504.57C698.279 505.045 697.969 508.713 697.969 508.713H707.992C709.053 508.713 710.01 508.128 710.42 507.228C711.833 504.115 712.156 500.069 712.441 498.715C713.038 495.869 714.223 493.481 713.699 490.581C713.178 487.692 708.241 486.021 699.242 486.048C689.356 486.078 699.242 491.897 699.242 491.897Z" fill="#233862"/>
<path d="M669.774 429.306C662.216 437.319 606.714 420.742 611.366 416.519C612.55 415.445 612.145 414.157 612.626 412.428C614.928 404.232 610.344 390.207 608.378 384.771C607.919 383.51 607.603 382.714 607.544 382.552C605.667 377.477 604.216 372.194 603.267 367.088C601.437 357.291 601.471 348.18 603.973 342.598C603.99 342.568 603.995 342.543 604.011 342.521C614.409 339.481 620.133 324.179 620.133 324.179C620.133 324.179 653.07 333.538 665.025 380.555C665.025 380.555 665.642 383.553 666.404 388.053H666.408C666.638 389.433 666.885 390.957 667.132 392.579C668.409 400.945 669.15 411.675 669.907 419.662C669.936 419.939 669.962 420.22 669.992 420.51C670.371 423.954 671.03 427.974 669.774 429.306Z" fill="#F99746"/>
<path d="M626.07 421.355C626.07 421.355 631.603 422.084 642.762 422.907C654.325 423.763 666.582 425.587 668.575 429.473C669.234 430.761 668.774 434.016 667.485 438.517C664.633 448.465 657.722 464.482 649.831 478.684C670.103 479.857 697.681 484.335 697.681 484.335C702.192 489.437 700.302 495.409 700.302 495.409C698.855 495.421 694.506 496.036 688.569 496.994C667.059 500.457 640.865 507.58 624.621 507.58C621.068 507.58 618.409 505.056 617.328 501.757V501.753C610.656 481.43 626.07 421.355 626.07 421.355Z" fill="#2B478B"/>
<path d="M667.485 440.027C656.296 439.673 628.232 425.891 628.692 425.78C633.918 424.495 638.591 423.604 642.762 423.043C654.325 423.975 666.582 425.959 668.575 430.188C669.234 431.588 668.774 435.13 667.485 440.027Z" fill="#2C3A64"/>
<path d="M625.658 326.471C625.658 326.471 611.579 329.402 610.205 341.744C609.203 350.734 616.336 371.088 616.336 371.088L620.898 369.217C620.898 369.217 612.274 344.085 613.601 339.809C615.302 334.327 623.396 326.126 630.841 329.402L625.658 326.471Z" fill="#2B478B"/>
<path d="M669.774 429.306C662.216 437.319 605.518 420.918 610.17 416.695C611.353 415.622 612.144 414.157 612.625 412.428C614.928 404.232 610.344 390.207 608.378 384.771C607.919 383.51 603.584 368.578 603.524 368.417L619.485 364.959C619.485 364.959 624.002 372.738 629.866 376.732C637.552 381.974 649.984 388.028 666.403 388.054H666.407C666.637 389.433 666.885 390.957 667.131 392.58C668.408 400.946 669.149 411.675 669.906 419.663C669.936 419.939 669.962 420.221 669.991 420.51C670.37 423.954 671.03 427.974 669.774 429.306Z" fill="#2B478B"/>
<path d="M549.434 508.037H538.445V385.532C538.445 376.964 531.478 369.993 522.913 369.993H494.305V359H522.913C537.537 359 549.434 370.902 549.434 385.532V508.037Z" fill="#BDD1F9"/>
<path d="M518.877 357.724H516.893V371.771H518.877V357.724Z" fill="#91B5F8"/>
<path d="M551.386 395.649V393.664H537.345V395.649H551.386Z" fill="#91B5F8"/>
<path d="M551.386 419.233V417.248H537.345V419.233H551.386Z" fill="#91B5F8"/>
<path d="M550.318 491.63H537.04V508.037H550.318V491.63Z" fill="#91B5F8"/>
<path d="M551.104 391.297L602.723 411.591C603.756 411.997 604.92 411.489 605.326 410.457L605.667 409.589C606.009 408.717 605.581 407.733 604.709 407.391L552.799 386.982L551.104 391.297Z" fill="#2B478B"/>
<path d="M546.094 389.603L547.242 390.054L547.589 387.438C547.888 385.191 550.148 383.774 552.167 384.568L567.245 390.495L568.74 386.69L549.645 379.183C547.786 378.452 545.693 379.695 545.321 381.751L544.455 386.53C544.215 387.85 544.9 389.133 546.094 389.603Z" fill="#2B478B"/>
<path d="M556.546 390.066L565.972 393.772L568.089 388.381L558.663 384.676L556.546 390.066Z" fill="#2B478B"/>
<path d="M564.7 390.456C564.83 390.128 564.668 389.757 564.34 389.628C564.012 389.499 563.641 389.66 563.512 389.988C563.383 390.317 563.545 390.688 563.873 390.817C564.201 390.947 564.571 390.785 564.7 390.456Z" fill="#6C7AFF"/>
<path d="M560.897 388.961C561.026 388.633 560.864 388.262 560.537 388.133C560.208 388.004 559.837 388.165 559.708 388.494C559.579 388.822 559.741 389.193 560.069 389.322C560.397 389.451 560.768 389.29 560.897 388.961Z" fill="#6C7AFF"/>
<path d="M607.307 399.973C607.307 399.973 604.78 400.567 602.066 400.657C599.626 400.738 597.045 400.285 595.875 400.774C593.404 401.804 585.575 407.187 589.354 409.492C593.134 411.798 597.031 410.989 599.613 408.895C602.196 406.801 609.217 406.631 609.217 406.631L607.307 399.973Z" fill="#FFB27D"/>
<path d="M633.62 337.796C650.595 342.696 660.933 383.452 658.542 395.65C656.151 407.847 608.234 408.484 608.234 408.484C608.234 408.484 605.542 406.376 605.225 404.199C604.819 401.42 605.253 400.146 605.253 400.146C605.253 400.146 635.552 391.918 636.245 388.419C636.937 384.92 621.66 366.37 621.891 356.308C622.123 346.246 624.372 335.126 633.62 337.796Z" fill="#F99746"/>
<path d="M568.876 508.037C568.876 508.037 562.309 497.646 543.679 499.834C525.049 502.022 511.777 512.041 467.333 500.856C422.887 489.671 426.9 509.741 401.591 505.418C376.282 501.096 365.171 508.037 365.171 508.037H568.876Z" fill="#8C9DF4"/>
<path d="M521.87 357.724C521.87 357.724 526.96 346.34 536.761 348.415C536.761 348.415 539.275 349.043 538.646 351.62C538.018 354.198 530.352 350.69 521.87 357.724Z" fill="#8C9DF4"/>
</svg>
