<svg width="71" height="95" viewBox="0 0 71 95" fill="none" xmlns="http://www.w3.org/2000/svg">
<g filter="url(#filter0_d_61_519)">
<path d="M65.46 31.3689C65.46 26.9595 64.5127 22.7715 62.8089 18.9993L62.8072 19.001L35.2838 38.4577L22.6807 65.0942L27.9574 72.3848C28.4821 73.1089 28.903 73.9012 29.2097 74.7412L32.4537 83.6487C33.4641 86.4259 37.3982 86.4089 38.3881 83.6232L41.5248 74.7838C41.8332 73.9165 42.2643 73.097 42.8027 72.3524L58.8458 50.191H58.8441C62.9809 45.0369 65.46 38.4926 65.46 31.3689Z" fill="#00C89E"/>
<path d="M35.3165 1.27788C26.2505 1.29321 18.0995 5.36532 12.5859 11.7631L25.8706 23.1276L37.1011 24.7978L43.839 2.48758C41.1367 1.69531 38.276 1.27277 35.3165 1.27788Z" fill="#00ABF2"/>
<path d="M43.8383 2.48755L17.7534 32.4516L33.5646 52.5914L62.8068 19.0009L62.8085 18.9992C59.2271 11.0662 52.3062 4.96489 43.8383 2.48755Z" fill="#00C3FF"/>
<path d="M42.3234 72.3847L37.0467 65.094L28.359 53.0929L22.6807 65.094L27.9574 72.3847C28.4821 73.1088 28.903 73.901 29.2097 74.741L32.4537 83.6486C33.4641 86.4258 37.3982 86.4087 38.3881 83.623L41.5248 74.7836C41.7836 74.0556 42.13 73.362 42.5527 72.7172C42.4785 72.6051 42.4025 72.4939 42.3234 72.3847Z" fill="#00AB7E"/>
<path d="M12.5856 11.7631C8.01431 17.0619 5.25413 23.959 5.27799 31.4677C5.29332 35.8396 6.23894 39.9901 7.93253 43.7334L19.8601 39.0097L25.8617 23.1394L25.8703 23.1275L12.5856 11.7631Z" fill="#FF4F80"/>
<path d="M19.644 31.4677C19.6309 27.3361 20.4622 23.3904 21.973 19.7935L12.5856 11.7631C8.01431 17.0619 5.25413 23.959 5.27799 31.4677C5.29332 35.8396 6.23894 39.9901 7.93253 43.7334L19.8601 39.0097L20.3284 37.7711C19.8877 35.7391 19.6515 33.6306 19.644 31.4677Z" fill="#FF1146"/>
<path d="M44.8764 39.5965L25.8618 23.1394L20.1597 29.689L7.93262 43.7334C8.98046 46.0574 10.3163 48.2263 11.894 50.1908H11.8923L22.6808 65.0941L44.8764 39.5965Z" fill="#FFDC5A"/>
<path d="M26.2583 50.1909H26.26C24.6823 48.2264 23.3465 46.0574 22.2987 43.7334C20.6051 39.9902 19.6594 35.8397 19.6441 31.4677C19.6427 31.0618 19.6513 30.6582 19.6661 30.2561L7.93262 43.7334C8.98046 46.0574 10.3163 48.2264 11.894 50.1909H11.8923L22.6808 65.0941L30.5241 56.0839L26.2583 50.1909Z" fill="#FFC027"/>
<path d="M25.8618 23.1395C28.167 20.4765 31.5713 18.7931 35.3691 18.7931C42.3138 18.7931 47.9432 24.4242 47.9432 31.3689C47.9432 34.5159 46.788 37.3919 44.8763 39.5966C42.5711 42.2597 39.1669 43.9431 35.3691 43.9431C28.4243 43.9431 22.7949 38.3137 22.7949 31.3689C22.7949 28.222 23.9501 25.346 25.8618 23.1395Z" fill="white"/>
<path d="M26.952 11.7631C30.9759 7.09384 36.4057 3.6656 42.5698 2.14682C40.2463 1.5757 37.8168 1.27362 35.3165 1.27788C26.2505 1.29321 18.0995 5.36532 12.5859 11.7631L21.9733 19.7935C23.208 16.8536 24.896 14.1464 26.952 11.7631Z" fill="#008CC9"/>
<path d="M63.9737 18.4734C60.1963 10.1067 52.9883 3.83307 44.1982 1.2615C41.3433 0.42442 38.3736 0 35.3696 0C35.3512 0 35.3324 0 35.314 0C26.2269 0.0153343 17.5899 3.99885 11.6181 10.9284C6.68162 16.6507 3.9763 23.9464 4.00016 31.4723C4.01583 35.9324 4.94714 40.2348 6.76766 44.2587C7.84413 46.6461 9.22081 48.895 10.86 50.9442L26.9229 73.1346C27.3777 73.7621 27.7431 74.45 28.0091 75.1783L31.253 84.0854C31.8977 85.8573 33.5296 86.9997 35.4142 86.9997H35.4317C37.3252 86.9926 38.9585 85.8352 39.5926 84.0503L42.729 75.2117C42.9967 74.4588 43.37 73.7487 43.838 73.1016L56.4726 55.6482C56.8865 55.0766 56.7585 54.2777 56.1869 53.8638C55.6151 53.4498 54.8164 53.5779 54.4025 54.1495L41.7674 71.6032C41.1567 72.4478 40.6701 73.3737 40.3207 74.3561L37.1841 83.1949C36.8582 84.1121 36.0601 84.4415 35.422 84.4438C35.1148 84.4367 34.0724 84.3597 33.6545 83.2111L30.4101 74.3026C30.0627 73.3512 29.5856 72.4534 28.9927 71.6353L24.311 65.1674L30.8931 57.6061C31.3566 57.0738 31.3007 56.2665 30.7684 55.8033C30.236 55.3398 29.4289 55.3955 28.9656 55.928L22.7728 63.0421L12.9629 49.49C12.9406 49.4559 12.9164 49.4225 12.8905 49.3904C11.5402 47.709 10.384 45.8799 9.44367 43.9437L21.5879 29.9946C21.5426 30.4495 21.5174 30.9077 21.5174 31.3684C21.5174 39.0064 27.7314 45.2204 35.3694 45.2204C36.4769 45.2204 37.5687 45.0873 38.6247 44.8321L32.5835 51.772C32.12 52.3043 32.1759 53.1116 32.7082 53.5748C32.9503 53.7856 33.2492 53.8889 33.5466 53.8889C33.9034 53.8889 34.2583 53.7403 34.511 53.45L62.4118 21.4012C63.5862 24.5795 64.1826 27.9231 64.1826 31.3684C64.1826 37.9955 61.9921 44.2276 57.848 49.3904C57.8222 49.4225 57.7982 49.4555 57.7761 49.4894L57.6369 49.6816C57.2228 50.2533 57.3506 51.0522 57.9222 51.4662C58.4939 51.8802 59.2926 51.7523 59.7068 51.1808L59.8784 50.944C64.3023 45.4102 66.7379 38.461 66.7379 31.3689C66.7379 26.8732 65.8078 22.5345 63.9737 18.4734ZM35.3184 2.55572C37.4104 2.55231 39.4868 2.7733 41.5127 3.21339L36.7905 8.63765C36.3271 9.16992 36.383 9.97701 36.9153 10.4405C37.1572 10.6512 37.4562 10.7545 37.7537 10.7545C38.1105 10.7545 38.4654 10.6059 38.7181 10.3156L44.2566 3.95353C51.7202 6.36698 57.864 11.7147 61.2985 18.7876L49.1507 32.7408C49.1958 32.2866 49.221 31.8289 49.221 31.3687C49.221 23.7298 43.0071 17.515 35.369 17.515C34.2609 17.515 33.1686 17.6483 32.112 17.9038L35.1411 14.4245C35.6045 13.892 35.5486 13.0849 35.0164 12.6215C34.4841 12.1581 33.677 12.2139 33.2136 12.7462L25.7384 21.3328L14.4144 11.6454C19.8534 5.86776 27.3998 2.56918 35.3184 2.55572ZM6.55588 31.4638C6.53526 24.9774 8.72398 18.676 12.7434 13.5799L24.0612 23.2616L8.32903 41.3319C7.16482 38.186 6.5678 34.8758 6.55588 31.4638ZM24.0728 31.3689C24.0728 28.652 25.0511 26.0266 26.8275 23.9762C26.8275 23.976 26.8277 23.976 26.8278 23.9759C28.976 21.4943 32.089 20.0709 35.3689 20.0709C41.5977 20.0709 46.6652 25.1392 46.6652 31.3689C46.6652 34.0863 45.687 36.711 43.9101 38.7602C41.7619 41.2418 38.6489 42.665 35.369 42.665C29.1402 42.6652 24.0728 37.5977 24.0728 31.3689Z" fill="black"/>
</g>
<defs>
<filter id="filter0_d_61_519" x="0" y="0" width="70.7378" height="94.9998" filterUnits="userSpaceOnUse" color-interpolation-filters="sRGB">
<feFlood flood-opacity="0" result="BackgroundImageFix"/>
<feColorMatrix in="SourceAlpha" type="matrix" values="0 0 0 0 0 0 0 0 0 0 0 0 0 0 0 0 0 0 127 0" result="hardAlpha"/>
<feOffset dy="4"/>
<feGaussianBlur stdDeviation="2"/>
<feComposite in2="hardAlpha" operator="out"/>
<feColorMatrix type="matrix" values="0 0 0 0 0 0 0 0 0 0 0 0 0 0 0 0 0 0 0.25 0"/>
<feBlend mode="normal" in2="BackgroundImageFix" result="effect1_dropShadow_61_519"/>
<feBlend mode="normal" in="SourceGraphic" in2="effect1_dropShadow_61_519" result="shape"/>
</filter>
</defs>
</svg>
