<svg width="365" height="96" viewBox="0 0 365 96" fill="none" xmlns="http://www.w3.org/2000/svg">
<path fill-rule="evenodd" clip-rule="evenodd" d="M48.7561 96H58V86.2683L48.7561 86.2683L48.7561 96ZM48.7561 85.2683L58 85.2683V76H48.7561V85.2683ZM47.7561 76V85.2683L38 85.2683V76H47.7561ZM47.7561 86.2683L47.7561 96H38V86.2683L47.7561 86.2683Z" fill="#8E8E8E"/>
<path fill-rule="evenodd" clip-rule="evenodd" d="M96 96L48 0L31.5633 32.8734V7.4563H22.3894V51.2212L0 96L48 57.1651L96 96Z" fill="url(#paint0_linear_7_3)"/>
<path d="M121.435 53.735C120.526 51.8237 119.21 50.351 117.487 49.317C115.764 48.2517 113.758 47.719 111.471 47.719C109.184 47.719 107.116 48.2517 105.267 49.317C103.45 50.351 102.008 51.855 100.943 53.829C99.909 55.7717 99.392 58.0277 99.392 60.597C99.392 63.1663 99.909 65.4223 100.943 67.365C102.008 69.3077 103.45 70.8117 105.267 71.877C107.116 72.911 109.184 73.428 111.471 73.428C114.667 73.428 117.299 72.4723 119.367 70.561C121.435 68.6497 122.641 66.0647 122.986 62.806H109.92V59.328H127.545V62.618C127.294 65.3127 126.448 67.788 125.007 70.044C123.566 72.2687 121.67 74.039 119.32 75.355C116.97 76.6397 114.354 77.282 111.471 77.282C108.432 77.282 105.659 76.577 103.152 75.167C100.645 73.7257 98.6557 71.736 97.183 69.198C95.7417 66.66 95.021 63.793 95.021 60.597C95.021 57.401 95.7417 54.534 97.183 51.996C98.6557 49.4267 100.645 47.437 103.152 46.027C105.659 44.5857 108.432 43.865 111.471 43.865C114.949 43.865 118.02 44.7267 120.683 46.45C123.378 48.1733 125.336 50.6017 126.558 53.735H121.435ZM158.439 44.241V77H154.162V62.148H137.477V77H133.2V44.241H137.477V58.623H154.162V44.241H158.439ZM185.106 69.715H170.818L168.186 77H163.674L175.518 44.429H180.453L192.25 77H187.738L185.106 69.715ZM183.884 66.237L177.962 49.693L172.04 66.237H183.884ZM214.661 77L206.859 63.605H201.689V77H197.412V44.241H207.987C210.462 44.241 212.546 44.664 214.238 45.51C215.961 46.356 217.246 47.4997 218.092 48.941C218.938 50.3823 219.361 52.0273 219.361 53.876C219.361 56.132 218.703 58.1217 217.387 59.845C216.102 61.5683 214.16 62.712 211.559 63.276L219.784 77H214.661ZM201.689 60.174H207.987C210.306 60.174 212.045 59.61 213.204 58.482C214.363 57.3227 214.943 55.7873 214.943 53.876C214.943 51.9333 214.363 50.4293 213.204 49.364C212.076 48.2987 210.337 47.766 207.987 47.766H201.689V60.174ZM248.924 77.329C246.762 77.329 244.819 76.953 243.096 76.201C241.404 75.4177 240.072 74.3523 239.101 73.005C238.13 71.6263 237.628 70.044 237.597 68.258H242.156C242.313 69.7933 242.939 71.0937 244.036 72.159C245.164 73.193 246.793 73.71 248.924 73.71C250.961 73.71 252.559 73.2087 253.718 72.206C254.909 71.172 255.504 69.856 255.504 68.258C255.504 67.0047 255.159 65.9863 254.47 65.203C253.781 64.4197 252.919 63.8243 251.885 63.417C250.851 63.0097 249.457 62.571 247.702 62.101C245.54 61.537 243.801 60.973 242.485 60.409C241.2 59.845 240.088 58.9677 239.148 57.777C238.239 56.555 237.785 54.9257 237.785 52.889C237.785 51.103 238.239 49.5207 239.148 48.142C240.057 46.7633 241.326 45.698 242.955 44.946C244.616 44.194 246.511 43.818 248.642 43.818C251.713 43.818 254.219 44.5857 256.162 46.121C258.136 47.6563 259.248 49.693 259.499 52.231H254.799C254.642 50.9777 253.984 49.881 252.825 48.941C251.666 47.9697 250.13 47.484 248.219 47.484C246.433 47.484 244.976 47.954 243.848 48.894C242.72 49.8027 242.156 51.0873 242.156 52.748C242.156 53.9387 242.485 54.91 243.143 55.662C243.832 56.414 244.663 56.9937 245.634 57.401C246.637 57.777 248.031 58.2157 249.817 58.717C251.979 59.3123 253.718 59.9077 255.034 60.503C256.35 61.067 257.478 61.96 258.418 63.182C259.358 64.3727 259.828 66.002 259.828 68.07C259.828 69.668 259.405 71.172 258.559 72.582C257.713 73.992 256.46 75.1357 254.799 76.013C253.138 76.8903 251.18 77.329 248.924 77.329ZM270.399 47.719V58.67H282.337V62.195H270.399V73.475H283.747V77H266.122V44.194H283.747V47.719H270.399ZM331.391 44.241L321.897 77H317.103L309.489 50.633L301.593 77L296.846 77.047L287.681 44.241H292.24L299.384 72.018L307.28 44.241H312.074L319.594 71.924L326.785 44.241H331.391ZM355.435 69.715H341.147L338.515 77H334.003L345.847 44.429H350.782L362.579 77H358.067L355.435 69.715ZM354.213 66.237L348.291 49.693L342.369 66.237H354.213Z" fill="#23A758"/>
<defs>
<linearGradient id="paint0_linear_7_3" x1="48" y1="0" x2="48" y2="96" gradientUnits="userSpaceOnUse">
<stop stop-color="#34FF85"/>
<stop offset="1" stop-color="#084B23"/>
</linearGradient>
</defs>
</svg>
