<svg width="655" height="282" viewBox="0 0 655 282" fill="none" xmlns="http://www.w3.org/2000/svg">
<rect x="81.1616" y="84.9661" width="17.12" height="17.12" fill="#FFBEBE"/>
<rect x="478.093" y="27.8993" width="36.7764" height="36.7764" fill="#8FFFFF"/>
<rect x="535.794" y="194.027" width="36.7764" height="36.7764" fill="#FFBEBE"/>
<rect x="98.2817" y="175.639" width="36.7764" height="36.7764" fill="#8FFFFF"/>
<rect x="162.323" y="57.0668" width="36.7764" height="36.7764" fill="#B4FFA0"/>
<path d="M22.1926 85.2831H32.9719V96.0624H22.1926V85.2831Z" fill="#B4FFA0"/>
<path d="M135.058 15.8519H145.837V26.6312H135.058V15.8519Z" fill="#A5BCFF"/>
<path d="M0 270.75H10.7793V281.53H0V270.75Z" fill="#8FFFFF"/>
<path d="M644.221 270.75H655V281.53H644.221V270.75Z" fill="#B4FFA0"/>
<rect x="290.407" width="10.7793" height="10.7793" fill="#D9D9D9"/>
<rect x="607.444" y="58.969" width="10.7793" height="10.7793" fill="#D9D9D9"/>
<rect x="407.711" y="10.7793" width="10.7793" height="10.7793" fill="#B4FFA0"/>
<rect x="603.64" y="129.351" width="18.3882" height="18.3882" fill="#B4FFA0"/>
</svg>
