<svg width="226" height="207" viewBox="0 0 226 207" fill="none" xmlns="http://www.w3.org/2000/svg">
<path d="M170.242 78.3494L170.179 104.319L117.995 68.0461L118.056 42.0764L170.242 78.3494Z" fill="#32272D"/>
<path d="M180.438 71.1384L170.242 78.3493L118.056 42.0764L128.252 34.8654L180.438 71.1384Z" fill="#665861"/>
<path d="M180.438 97.0184L52.2453 186.693L0.0610352 150.42L131.925 63.319L180.438 97.0184Z" fill="#22241E"/>
<path d="M131.722 18.3866L131.61 66.2257L78.2678 103.484L78.3805 55.6445L131.722 18.3866Z" fill="#FFAB00"/>
<path d="M78.3805 55.6443L78.2678 103.483L66.2842 95.1659L66.3969 47.3268L78.3805 55.6443Z" fill="#DC7A04"/>
<path d="M131.722 18.3864L78.3805 55.6443L66.3969 47.3267L119.737 10.0688L131.722 18.3864Z" fill="#FFC040"/>
<path d="M77.6013 55.9172L77.4886 103.756L24.1488 141.014L24.2615 93.1751L77.6013 55.9172Z" fill="#FFAB00"/>
<path d="M24.2614 93.1752L24.1487 141.014L12.1632 132.699L12.2759 84.86L24.2614 93.1752Z" fill="#FF8C00"/>
<path d="M77.6012 55.9174L24.2614 93.1753L12.2759 84.8601L65.6176 47.6022L77.6012 55.9174Z" fill="#FFC040"/>
<path d="M170.215 89.2953L170.179 104.33L116.843 141.586L116.879 126.551L170.215 89.2953Z" fill="#FFAB00"/>
<path d="M116.879 126.551L116.843 141.586L78.0844 114.689L78.1206 99.6539L116.879 126.551Z" fill="#DC7A04"/>
<path d="M170.215 89.2955L116.879 126.551L78.1207 99.6539L131.457 62.3983L170.215 89.2955Z" fill="#FFC040"/>
<path d="M116.281 126.939L116.245 141.974L62.9092 179.23L62.9436 164.195L116.281 126.939Z" fill="#FFAB00"/>
<path d="M62.9436 164.195L62.9092 179.23L24.1506 152.335L24.1869 137.298L62.9436 164.195Z" fill="#876B08"/>
<path d="M116.282 126.939L62.9437 164.195L24.187 137.298L77.523 100.044L116.282 126.939Z" fill="#FFC040"/>
<path d="M66.3608 77.0477C65.251 73.9967 67.7894 70.8216 65.4898 71.1637C63.3811 71.4782 63.9732 74.2033 59.7998 76.8044C59.5629 76.9513 36.6157 91.9311 32.1672 93.0675C31.4853 93.242 30.7862 93.3637 30.154 93.7126C28.4197 94.6654 28.1427 96.828 30.2266 98.7059C33.0038 101.211 31.8367 100.116 41.6925 119.995C42.9876 122.609 44.5003 125.162 44.3991 128.353C44.3704 129.26 44.3494 129.706 45.0409 130.282C45.3904 130.573 45.7953 130.805 46.2213 130.803C47.5105 130.794 48.1122 129.028 49.1474 128.395C49.7797 128.009 50.5742 128.046 51.26 127.793C54.0524 126.767 68.0301 118.734 78.1839 108.782C79.4445 107.547 80.9535 106.677 82.5464 106.28C83.0297 106.158 83.553 106.062 83.9121 105.655C84.4947 104.994 84.6971 103.164 82.6305 101.993C82.0422 101.661 81.4119 101.431 80.8351 101.071C78.9269 99.8768 77.9012 97.4547 76.4744 95.6044C71.3861 89.0017 70.6049 88.9352 68.0511 81.7127L66.3608 77.0477Z" fill="#FFF9BD"/>
<path d="M54.0753 123.493C60.22 118.381 65.4191 114.404 71.5637 109.574C73.9264 107.586 76.526 103.892 75.1087 101.052C73.2178 97.0759 67.7818 96.7912 67.31 91.9609C66.8382 85.7119 62.8195 82.018 61.1654 76.6207C61.1043 76.4003 61.0566 76.1707 61.0164 75.9365C60.6612 76.2235 60.2601 76.5128 59.7998 76.802C59.5629 76.949 36.6157 91.9288 32.1672 93.0652C31.4853 93.2397 30.7862 93.3614 30.154 93.7103C28.4197 94.6631 28.1427 96.8257 30.2266 98.7036C33.0038 101.208 31.8367 100.113 41.6925 119.992C42.4222 121.464 43.2206 122.917 43.7611 124.476C47.2565 125.105 50.7194 126.182 54.0753 123.493Z" fill="#FFF9BD"/>
<path d="M82.6304 101.993C82.0421 101.661 81.4118 101.431 80.8349 101.071C78.9268 99.8768 77.9011 97.4547 76.4743 95.6044C71.386 89.0017 70.6047 88.9352 68.051 81.7127L66.3587 77.0477C65.249 73.9967 67.7874 70.8216 65.4877 71.1637C63.6121 71.4438 63.8699 73.6293 61.0144 75.9389C61.0545 76.1708 61.1023 76.4003 61.1634 76.623C62.8175 82.0203 66.8362 85.7142 67.308 91.9633C67.7798 96.7936 73.2158 97.076 75.1067 101.055C76.524 103.894 73.9244 107.588 71.5617 109.576C65.4171 114.404 60.2179 118.383 54.0733 123.496C50.7174 126.184 47.2545 125.107 43.7572 124.48C44.1755 125.69 44.4391 126.962 44.3952 128.358C44.3665 129.265 44.3455 129.71 45.0369 130.286C45.3865 130.578 45.7914 130.81 46.2173 130.808C47.5066 130.798 48.1083 129.033 49.1435 128.399C49.7757 128.014 50.5703 128.05 51.256 127.798C54.0485 126.772 68.0262 118.739 78.18 108.787C79.4406 107.552 80.9495 106.681 82.5425 106.284C83.0257 106.163 83.5491 106.066 83.9082 105.66C84.4946 104.994 84.6951 103.167 82.6304 101.993Z" fill="#FFF1BD"/>
<path d="M36.2314 118.691L73.2824 144.571C72.4706 144.004 71.3475 144.079 70.1156 144.936L33.0646 119.056C34.2966 118.199 35.4178 118.123 36.2314 118.691Z" fill="#FFE173"/>
<mask id="mask0_9_3855" style="mask-type:luminance" maskUnits="userSpaceOnUse" x="33" y="118" width="41" height="27">
<path d="M36.2314 118.691L73.2824 144.571C72.4706 144.004 71.3475 144.079 70.1156 144.936L33.0646 119.056C34.2966 118.199 35.4178 118.123 36.2314 118.691Z" fill="white"/>
</mask>
<g mask="url(#mask0_9_3855)">
<path d="M70.1137 144.933L33.0627 119.053C33.7217 118.596 34.3482 118.362 34.9136 118.328L71.9645 144.208C71.3992 144.242 70.7727 144.476 70.1137 144.933Z" fill="#FFE173"/>
<path d="M71.9646 144.21L34.9136 118.33C35.4064 118.303 35.8514 118.427 36.2296 118.691L73.2806 144.571C72.9024 144.307 72.4573 144.18 71.9646 144.21Z" fill="#FFE173"/>
</g>
<path d="M61.9313 150.613L24.8802 124.733L33.0629 119.053L70.1139 144.934L61.9313 150.613Z" fill="#FFE173"/>
<path d="M58.7949 163.297L21.7438 137.417C20.9416 136.857 20.4412 135.668 20.4374 133.98C20.4298 130.596 22.4296 126.432 24.8801 124.731L61.9311 150.611C59.4806 152.312 57.4807 156.476 57.4884 159.86C57.4922 161.548 57.9926 162.737 58.7949 163.297Z" fill="#FFE173"/>
<mask id="mask1_9_3855" style="mask-type:luminance" maskUnits="userSpaceOnUse" x="20" y="124" width="42" height="40">
<path d="M58.7949 163.297L21.7438 137.417C20.9416 136.857 20.4412 135.668 20.4374 133.98C20.4298 130.596 22.4296 126.432 24.8801 124.731L61.9311 150.611C59.4806 152.312 57.4807 156.476 57.4884 159.86C57.4922 161.548 57.9926 162.737 58.7949 163.297Z" fill="white"/>
</mask>
<g mask="url(#mask1_9_3855)">
<path d="M58.7948 163.297L21.7438 137.417C20.9416 136.857 20.4412 135.667 20.4374 133.98C20.4355 132.828 20.6647 131.583 21.0658 130.378L58.1168 156.258C57.7157 157.463 57.4845 158.708 57.4884 159.86C57.4922 161.548 57.9926 162.737 58.7948 163.297Z" fill="#FFE173"/>
<path d="M58.1167 156.26L21.0657 130.38C21.3579 129.501 21.7418 128.642 22.1926 127.855L59.2436 153.735C58.7947 154.523 58.4108 155.381 58.1167 156.26Z" fill="#FFE173"/>
<path d="M59.2457 153.733L22.1947 127.853C22.9415 126.547 23.8736 125.431 24.8802 124.731L61.9312 150.611C60.9246 151.311 59.9925 152.427 59.2457 153.733Z" fill="#FFE173"/>
</g>
<path d="M70.1137 144.933C72.5643 143.232 74.5775 144.612 74.5851 147.996C74.5927 151.389 72.5929 155.554 70.1423 157.255L61.9597 162.932C59.5091 164.633 57.4959 163.254 57.4883 159.86C57.4807 156.477 59.4805 152.312 61.9311 150.611L70.1137 144.933Z" fill="#FFD270"/>
<path d="M130.943 54.1865L167.994 80.0666C167.182 79.4995 166.059 79.5753 164.827 80.4317L127.776 54.5515C129.008 53.6952 130.131 53.6195 130.943 54.1865Z" fill="#FFE173"/>
<mask id="mask2_9_3855" style="mask-type:luminance" maskUnits="userSpaceOnUse" x="127" y="53" width="41" height="28">
<path d="M130.943 54.1865L167.994 80.0666C167.182 79.4995 166.059 79.5753 164.827 80.4317L127.776 54.5515C129.008 53.6952 130.131 53.6195 130.943 54.1865Z" fill="white"/>
</mask>
<g mask="url(#mask2_9_3855)">
<path d="M164.825 80.4315L127.774 54.5514C128.433 54.0945 129.06 53.8604 129.625 53.8259L166.676 79.706C166.111 79.7405 165.484 79.9747 164.825 80.4315Z" fill="#FFE173"/>
<path d="M166.676 79.7064L129.625 53.8263C130.118 53.7965 130.563 53.9227 130.943 54.1867L167.994 80.0668C167.616 79.8028 167.169 79.6789 166.676 79.7064Z" fill="#FFE173"/>
</g>
<path d="M156.643 86.109L119.592 60.2289L127.774 54.5515L164.825 80.4317L156.643 86.109Z" fill="#FFE173"/>
<path d="M153.506 98.7955L116.455 72.9154C115.653 72.3552 115.153 71.166 115.149 69.4786C115.141 66.0947 117.141 61.9302 119.592 60.229L156.643 86.1091C154.192 87.8103 152.192 91.9748 152.2 95.3587C152.204 97.0461 152.704 98.2353 153.506 98.7955Z" fill="#FFE173"/>
<mask id="mask3_9_3855" style="mask-type:luminance" maskUnits="userSpaceOnUse" x="115" y="60" width="42" height="39">
<path d="M153.506 98.7955L116.455 72.9154C115.653 72.3552 115.153 71.166 115.149 69.4786C115.141 66.0947 117.141 61.9302 119.592 60.229L156.643 86.1091C154.192 87.8103 152.192 91.9748 152.2 95.3587C152.204 97.0461 152.704 98.2353 153.506 98.7955Z" fill="white"/>
</mask>
<g mask="url(#mask3_9_3855)">
<path d="M153.506 98.7953L116.455 72.9152C115.653 72.355 115.153 71.1658 115.149 69.4784C115.147 68.3259 115.376 67.0816 115.779 65.8763L152.83 91.7565C152.429 92.9618 152.198 94.2061 152.202 95.3585C152.204 97.0459 152.704 98.2351 153.506 98.7953Z" fill="#FFE173"/>
<path d="M152.83 91.7566L115.779 65.8765C116.071 64.9972 116.455 64.1386 116.906 63.3512L153.957 89.2313C153.506 90.0187 153.122 90.8774 152.83 91.7566Z" fill="#FFE173"/>
<path d="M153.93 89.2313L116.879 63.3512C117.626 62.045 118.558 60.9292 119.565 60.229L156.616 86.1091C155.607 86.8093 154.677 87.9251 153.93 89.2313Z" fill="#FFE173"/>
</g>
<path d="M164.825 80.4315C167.276 78.7303 169.289 80.1101 169.297 83.494C169.304 86.8872 167.305 91.0516 164.854 92.7528L156.671 98.4302C154.221 100.131 152.208 98.7516 152.2 95.3585C152.192 91.9746 154.192 87.81 156.643 86.1089L164.825 80.4315Z" fill="#FFD270"/>
<path d="M52.3008 160.724L0.114627 124.451L0.0534809 150.42L0 169.943L52.1843 206.214L52.2454 186.693L52.3008 160.724Z" fill="#32272D"/>
<path d="M62.4967 153.513L52.3009 160.724L0.114746 124.451L10.3124 117.242L62.4967 153.513Z" fill="#665861"/>
<path d="M180.438 71.1383L170.242 78.3493L170.181 104.195L62.3228 179.645L62.4355 179.482L62.4966 153.512L52.3008 160.723L52.2397 186.693L52.1843 206.214L180.377 116.542L180.438 97.0184L180.377 97.062L180.438 71.1383Z" fill="#4B3D46"/>
<path d="M78.6805 75.5693C80.4167 81.6898 82.9112 87.8333 82.4967 94.452C82.2981 97.5995 83.9273 97.3538 84.804 96.7753C91.0575 92.6475 84.6875 96.8189 96.1612 93.1021C104.296 90.4665 112.391 86.8576 120.222 82.2684C121.242 81.6715 121.662 81.0172 122.892 81.2077C126.122 81.7059 126.521 79.1966 125.161 77.6998C122.686 74.9724 124.573 79.3459 118.577 67.688C117.531 65.6516 115.632 62.6465 114.582 58.3305C114.219 56.8359 113.055 50.619 112.996 49.4344C112.912 47.7792 113.29 45.9127 113.432 44.2597C113.613 42.1453 112.469 40.9608 109.679 44.4274C107.02 47.731 105.843 47.3935 93.3114 51.8197C90.4673 52.8252 87.5373 53.3992 84.6551 54.2165C81.8626 55.0085 79.1236 56.2941 76.375 57.3387C74.4574 58.0688 74.4001 56.953 73.3801 57.0357C72.6658 57.0953 71.0365 58.5991 73.6647 61.8292C76.6711 65.5208 75.3398 63.7921 78.6805 75.5693Z" fill="#FFF9BD"/>
<path d="M125.161 77.6951C122.686 74.9677 124.573 79.3411 118.577 67.6832C117.531 65.6469 115.632 62.6417 114.582 58.3257C114.219 56.8312 113.055 50.6143 112.996 49.4296C112.912 47.7744 113.29 45.9079 113.432 44.255C113.613 42.1406 112.469 40.956 109.678 44.4226C109.268 44.9322 108.893 45.3547 108.506 45.722C109.237 47.7997 109.742 49.9026 110.559 52.1938C110.559 52.7631 111.268 53.3302 111.504 53.8972C113.632 57.8735 111.504 62.9861 113.395 66.68C114.813 69.5199 116.94 71.5103 118.358 74.0655C121.429 79.7475 113.63 80.3145 110.322 80.5992C104.178 81.4509 99.2153 85.9965 93.7793 88.2694C90.706 89.4058 87.6347 87.9847 84.7983 86.8483C83.9942 86.5269 82.7335 86.295 81.7919 86.52C82.3477 89.105 82.6667 91.7382 82.4948 94.4518C82.2961 97.5993 83.9254 97.3536 84.8021 96.7751C91.0556 92.6473 84.6856 96.8188 96.1592 93.1019C104.294 90.4664 112.389 86.8574 120.22 82.2682C121.24 81.6713 121.66 81.017 122.89 81.2076C126.122 81.7012 126.521 79.1942 125.161 77.6951Z" fill="#FFF1BD"/>
<path d="M157.811 56.9711C159.383 53.1418 159.964 50.9975 160.953 45.0951C157.937 44.9482 152.864 42.9394 152.841 43.9013C152.761 47.2577 152.272 51.0044 150.442 53.5252C148.89 55.6625 146.743 58.7801 144.537 61.9575C146.525 63.1719 148.406 64.7124 150.265 66.3355C153.733 62.8069 156.87 59.26 157.811 56.9711Z" fill="#FFBFA2"/>
<path d="M160.63 52.4232C161.446 49.7555 162.122 47.5194 162.5 46.3624C166.51 34.0984 165.717 28.6024 163.375 27.6933C160.764 26.6808 156.228 31.3665 154.264 38.7313C153.244 42.5583 152.236 46.3853 151.674 49.1517C153.987 51.7023 157.508 52.2602 160.63 52.4232Z" fill="#F2F2F2"/>
<path d="M173.39 161.412C173.266 161.828 172.683 162.319 172.439 162.622C171.432 163.873 170.594 164.835 169.839 166.344C169.037 167.946 168.301 169.597 167.646 171.293C166.907 173.203 166.258 175.292 166.529 177.375C166.8 179.457 168.311 181.443 170.055 181.234C171.008 181.119 171.837 180.401 172.532 179.606C174.133 177.776 175.166 175.334 176.375 173.146C177.183 171.679 177.947 170.129 178.281 168.412C178.467 167.457 178.505 166.447 178.348 165.49C178.266 164.991 178.132 164.505 177.936 164.059C177.743 163.618 177.506 163.371 177.437 162.863C177.305 161.91 177.319 160.82 176.946 159.941C176.627 159.19 175.739 158.905 175.092 159.027C174.37 159.162 173.724 159.727 173.271 160.446C173.21 160.712 173.457 161.075 173.409 161.343C173.401 161.366 173.397 161.389 173.39 161.412Z" fill="#275EBE"/>
<path d="M160.948 151.735C160.293 152.245 159.697 152.86 159.049 153.386C158.411 153.905 157.75 154.304 157.118 154.844C155.731 156.028 154.299 157.13 152.828 158.145C151.715 158.912 150.576 159.633 149.533 160.542C148.72 161.251 147.961 162.085 147.373 163.086C147.048 163.641 146.919 163.956 147.024 164.64C147.117 165.246 147.35 165.811 147.589 166.346C148.042 167.363 148.576 168.4 149.409 168.919C150.213 169.42 151.18 169.355 152.045 169.039C153.344 168.563 154.767 167.535 155.709 166.32C156.717 165.019 157.846 164.002 159.252 163.481C160.369 163.065 161.582 162.964 162.585 162.222C163.473 161.566 164.094 160.409 164.302 159.158C164.546 157.695 164.164 156.169 164.338 154.683C164.451 153.73 164.73 152.707 164.598 151.729C164.485 150.895 163.727 150.273 163.093 150.131C162.386 149.972 161.645 150.25 161.047 150.751L160.948 151.735Z" fill="#275EBE"/>
<path d="M154.391 96.2793C154.509 101.867 155.036 107.441 155.965 112.905C156.476 115.915 156.459 118.929 157.009 121.895C157.431 124.161 158.386 126.255 160.529 125.736C162.503 125.256 166.111 121.289 166.718 116.055C167.045 113.234 167.157 109.188 167.446 106.36C168.042 100.51 173.713 82.0112 164.331 77.5735C162.65 76.7791 161.173 73.324 159.414 73.3033C158.365 73.2896 157.559 74.449 157.026 75.5785C155.222 79.3963 154.713 83.935 154.498 88.3521C154.372 90.9876 154.335 93.6346 154.391 96.2793Z" fill="#4B3D46"/>
<path d="M155.812 109.79C155.961 116.236 156.717 122.637 157.351 129.026C158.016 135.727 158.109 142.226 157.599 148.971C157.483 150.512 157.355 152.05 157.234 153.59C157.091 155.432 157.047 157.569 158.153 158.795C158.724 159.428 159.515 159.683 160.281 159.69C161.444 159.699 162.564 159.151 163.456 158.228C164.563 157.085 164.369 155.693 164.39 154.015C164.451 148.953 166.517 144.276 167.293 139.306C167.682 136.808 167.744 134.251 167.803 131.709C167.919 126.698 167.174 122.279 165.704 117.639C165.348 116.518 164.817 115.295 163.876 115.031L155.812 109.79Z" fill="#32272D"/>
<path d="M182.625 88.841C182.585 88.5839 182.543 88.3268 182.501 88.0697C181.983 84.9474 181.265 81.7632 179.792 79.1116C179.433 78.4665 178.002 75.7437 177.55 77.3714C177.279 78.3425 177.544 79.7865 177.575 80.8105C177.395 79.9312 177.187 79.0634 176.933 78.2116C176.814 77.8099 176.694 77.5138 176.566 77.3003C176.045 76.4233 175.407 76.9375 174.253 77.2658C172.861 77.6607 171.409 77.5574 170.001 77.8076C165.532 78.6065 165.194 79.7934 162.227 76.8434C161.668 81.4693 162.447 85.8083 162.428 86.8368C162.327 92.1331 165.612 92.5671 165.757 95.3587C166.097 101.828 166.731 114.611 167.425 121.023C167.694 123.516 168.769 126.025 169.673 128.165C170.727 130.661 171.787 132.052 173.735 131.781C174.62 131.659 176.142 130.408 176.631 129.474C176.944 128.875 177.013 127.69 177.193 126.987C177.588 125.435 177.936 123.863 178.237 122.279C178.482 121.002 178.461 119.726 178.698 118.479C179.311 115.245 180.027 112.033 180.692 108.814C181.12 106.739 181.547 104.666 181.958 102.586C182.558 99.5553 183.123 96.4744 183.064 93.3545C183.033 91.837 182.856 90.331 182.625 88.841Z" fill="#4B3D46"/>
<path d="M185.677 13.7167C185.853 15.2227 186.021 16.777 186.288 18.3978C187.346 24.8052 186.599 29.6608 183.969 35.5311C183.396 36.8098 182.772 38.1322 181.759 38.9242C178.799 41.2429 178.136 37.937 178.233 35.4622C178.371 31.9841 177.693 28.5244 177.853 25.0027C177.995 21.8667 178.344 18.6756 177.735 15.6222C177.271 13.3035 176.14 11.1478 174.425 9.89888C172.276 8.33547 171.875 3.84497 173.668 1.77878C174.713 0.575804 176.199 0.0546608 177.643 0.00415403C178.623 -0.0302824 179.632 0.144186 180.485 0.722718C181.135 1.1635 181.664 1.81321 182.147 2.49505C184.699 6.10169 185.213 9.73587 185.677 13.7167Z" fill="#32272D"/>
<path d="M176.91 29.298C174.857 28.1753 174.11 27.5601 171.951 26.9747C171.602 26.8806 170.425 27.4132 170.076 27.3236C167.453 26.6556 164.661 26.8048 162.229 28.0927C162.203 28.1065 162.176 28.1249 162.149 28.1386V47.4873H177.575L176.91 29.298Z" fill="#F3A984"/>
<path d="M184.432 38.4281C184.285 39.8767 178.497 53.7477 177.594 57.8709C176.835 61.3329 177.059 64.5722 177.766 67.7036C178.74 72.0266 180.631 76.1383 182.119 80.3372C185.494 89.8623 179.676 90.2159 178.872 90.5993C176.643 91.6576 174.079 91.2673 171.806 90.6337C168.185 89.6236 156.539 70.8098 156.681 69.1775C157.565 59.1565 153.239 52.6572 153.642 45.5427C153.882 41.3276 155.781 37.5442 157.628 33.9491C159.33 30.6386 160.046 26.8207 165.433 26.6417C166.449 26.6095 166.949 26.6095 166.055 29.0453C162.145 39.7091 171.873 40.3037 176.908 29.2956C177.347 29.6124 177.85 30.005 178.394 30.4572C179.112 31.0541 179.897 31.7543 180.682 32.5234C182.107 33.9146 183.532 35.5263 184.558 37.1356C185.19 38.1273 184.47 38.0608 184.432 38.4281Z" fill="#D9D9D9"/>
<path d="M165.434 26.644C164.932 26.6601 164.437 26.7473 163.946 26.8736C160.478 31.5317 156.224 35.8294 154.285 41.78C153.81 43.2378 155.093 46.1901 154.684 47.6548L156.331 47.4872C157.341 44.5624 156.763 44.4706 158.927 39.211C160.684 34.9432 163.492 30.4435 166.175 27.1192C166.198 26.5292 166.072 26.6233 165.434 26.644Z" fill="#275EBE"/>
<path d="M177.773 67.7312C175.97 67.0126 174.11 64.7214 172.771 62.6438C170.244 58.0867 169.17 55.807 170.049 48.1759C167.891 48.9886 156.505 46.4908 154.287 41.7799C151.716 51.0846 157.724 57.398 156.684 69.1798C156.541 70.8098 168.187 89.6258 171.808 90.636C174.081 91.2673 177.84 68.087 177.773 67.7312Z" fill="#275EBE"/>
<path d="M175.769 28.6576C175.769 28.6576 175.137 30.6894 173.739 32.2C170.866 35.3038 166.38 35.1248 166.479 30.6526C166.678 21.6923 167.1 20.6638 170.368 19.2748C171.262 18.8937 172.198 18.6022 173.145 18.5792C176.595 18.4966 175.258 20.7602 175.128 22.3397C174.744 27.023 175.769 28.6576 175.769 28.6576Z" fill="#EE9C76"/>
<path d="M171.951 25.6502C172.238 25.3609 172.519 25.0625 172.794 24.7571C173.743 23.6965 174.818 22.4614 175.477 21.1184C177.594 16.8046 177.695 11.0216 174.683 7.26574C172.545 4.60036 169.151 3.50068 166.189 4.51082C165.387 4.78401 164.623 5.19725 163.881 5.6564C163.242 6.05357 162.606 6.49435 162.117 7.13028C161.796 7.5481 161.549 8.03941 161.324 8.53989C161.07 9.10235 160.837 9.68547 160.709 10.3053C160.132 13.097 161.677 15.9506 160.795 18.7055C160.602 19.307 160.312 19.8626 160.136 20.4709C159.96 21.0793 159.909 21.7841 160.187 22.3282C160.451 22.8471 160.801 23.1065 160.957 23.6804C161.169 24.4587 161.312 25.2852 161.496 26.0772C161.696 26.9404 161.899 27.8128 162.264 28.5956C163.154 30.5103 164.439 30.6297 166.032 29.879C168.181 28.8688 170.187 27.4271 171.951 25.6502Z" fill="#FFBFA2"/>
<path d="M179.089 12.539C178.929 7.10266 177.597 6.18208 175.88 4.44878C174.215 2.77058 171.972 2.01297 169.808 2.09103C167.596 2.17138 165.436 3.0828 163.568 4.48321C163.494 4.53831 163.419 4.59572 163.345 4.65541C162.376 5.41071 161.52 6.2785 161.007 7.54346C160.735 8.21153 160.527 8.93699 160.426 9.67164C160.235 11.0583 161.236 11.6414 162.246 12.0225C163.604 12.5322 165.528 11.8343 166.916 11.6529C167.566 11.568 168.234 11.4853 168.867 11.6827C169.499 11.8825 170.1 12.4265 170.246 13.1933C170.396 13.9923 170.039 14.7866 169.888 15.5855C169.592 17.1673 170.259 18.8891 171.367 19.773C172.024 20.2964 172.484 20.3355 173.187 19.9498C173.819 19.6031 174.467 19.0131 175.162 19.5319C175.806 20.0117 175.563 21.0173 175.412 21.745C175.382 21.8805 175.135 22.9136 175.487 22.9159C175.842 22.9228 179.282 19.0751 179.089 12.539Z" fill="#4B3D46"/>
<path d="M167.478 118.904C167.862 125.334 169.952 129.995 170.819 136.343C171.728 143.003 172.058 149.49 171.797 156.256C171.741 157.668 171.713 159.091 171.617 160.501C171.541 161.635 171.333 163.15 171.659 164.243C171.99 165.345 172.924 165.969 173.825 166.311C174.492 166.564 175.191 166.72 175.884 166.64C176.536 166.564 177.191 166.259 177.689 165.721C178.165 165.209 178.285 164.33 178.411 163.575C178.669 162.007 178.562 160.462 178.719 158.901C178.851 157.59 179.128 156.215 179.38 154.922C179.956 151.977 180.772 149.095 181.127 146.088C181.425 143.572 181.393 141.014 181.36 138.471C181.293 133.457 179.926 126.576 178.287 122.017C177.892 120.917 177.777 122.228 176.826 122.012L167.478 118.904Z" fill="#4B3D46"/>
<path d="M174.782 17.498C176.325 17.374 176.717 19.6744 175.657 21.4536C175.347 21.9724 174.801 22.4339 174.396 22.8471C171.632 25.6755 170.937 22.6152 171.816 21.651C173.857 19.4104 172.841 17.6541 174.782 17.498Z" fill="#FFBFA2"/>
<path d="M173.797 21.7128C173.974 21.5177 175.731 20.2711 174.534 19.4216C174.203 19.1875 173.833 19.5364 173.781 19.9589C173.755 20.177 173.812 20.4019 173.785 20.62C173.77 20.7486 173.724 20.8726 173.667 20.9828C173.51 21.2881 172.977 21.5819 173.082 22.0296C173.176 22.4245 173.695 21.8253 173.797 21.7128Z" fill="#F3A984"/>
<path d="M156.683 69.1801C156.518 69.8458 154.427 80.8746 154.371 82.1855C154.012 90.588 153.183 99.0249 152.467 107.43C152.408 108.123 152.352 108.844 152.551 109.498C152.765 110.203 153.248 110.738 153.739 111.204C158.583 115.814 165.192 116.388 171.359 116.771C173.118 116.881 175.063 116.918 176.409 115.557C177.387 114.567 177.836 113.036 178.224 111.571C180.023 104.78 181.379 97.7646 181.58 90.6408C181.79 83.136 180.606 74.458 177.771 67.7291C173.76 74.0471 160.579 77.1785 156.683 69.1801Z" fill="#275EBE"/>
<path d="M180.684 32.5258C176.946 37.3308 173.65 43.2126 170.049 48.1737C169.518 48.9038 169.377 49.4548 168.812 50.1458C168.067 51.0572 167.156 51.9893 166.095 51.9043C165.177 51.8308 164.43 51.0044 163.83 50.1664L163.026 49.5328C165.53 48.2036 176.442 35.974 178.398 30.4619C179.112 31.0588 179.899 31.759 180.684 32.5258Z" fill="#275EBE"/>
<path d="M175.015 67.4398C171.124 72.7981 167.195 78.4594 164.258 81.6735C163.998 81.9582 164.97 83.2782 165.276 83.4412C166.674 84.1804 166.195 86.6782 167.199 85.4753C169.34 82.9132 180.159 76.306 182.384 70.8857C183.956 67.0564 184.537 64.9121 185.526 59.0097C182.51 58.8628 179.55 57.5267 177.405 55.0702C177.504 58.9271 177.368 64.1981 175.015 67.4398Z" fill="#FFBFA2"/>
<path d="M176.78 55.3849C178.925 57.8414 183.051 58.863 186.067 59.0099C186.477 56.5581 187.331 52.6576 187.597 48.4081C188.515 33.6831 176.02 25.8867 176.78 55.3849Z" fill="#F2F2F2"/>
<path d="M159.987 83.1841C158.109 84.55 157.876 85.7301 157.655 86.04C157.584 86.1387 157.506 86.2305 157.451 86.3407C157.263 86.7081 157.46 87.0593 157.894 87.0111C158.831 86.9078 159.88 85.0987 161.055 85.3742C161.137 85.3926 161.206 85.4339 161.261 85.4867C161.872 84.2792 162.419 83.0165 162.409 81.5793C161.513 81.9375 160.921 82.5045 159.987 83.1841Z" fill="#FFBFA2"/>
<path d="M118.73 116.569L121.84 114.397L123.503 117.969L117.63 122.072L118.73 116.569Z" fill="#261D22"/>
<path d="M102.907 105.588L106.015 103.417L121.84 114.397L118.73 116.569L102.907 105.588Z" fill="#4B3D46"/>
<path d="M118.73 116.569L117.634 122.072L99.8456 109.728L102.907 105.589L118.73 116.569Z" fill="#32272D"/>
<path d="M120.249 93.8867L110.534 108.832C110.416 109.195 110.496 109.649 110.8 110.113C111.411 111.045 112.704 111.663 113.689 111.486C114.184 111.399 114.505 111.128 114.624 110.761L124.338 95.8151C124.218 96.1825 123.897 96.4534 123.404 96.5406C122.418 96.7151 121.125 96.0998 120.514 95.1678C120.208 94.7063 120.13 94.2494 120.249 93.8867Z" fill="#D9D9D9"/>
<mask id="mask4_9_3855" style="mask-type:luminance" maskUnits="userSpaceOnUse" x="110" y="93" width="15" height="19">
<path d="M120.249 93.8867L110.534 108.832C110.416 109.195 110.496 109.649 110.8 110.113C111.411 111.045 112.704 111.663 113.689 111.486C114.184 111.399 114.505 111.128 114.624 110.761L124.338 95.8151C124.218 96.1825 123.897 96.4534 123.404 96.5406C122.418 96.7151 121.125 96.0998 120.514 95.1678C120.208 94.7063 120.13 94.2494 120.249 93.8867Z" fill="white"/>
</mask>
<g mask="url(#mask4_9_3855)">
<path d="M120.249 93.8867L110.534 108.832C110.477 109.009 110.465 109.209 110.506 109.422L120.22 94.4767C120.18 94.2655 120.189 94.0658 120.249 93.8867Z" fill="#D9D9D9"/>
<path d="M120.22 94.4767L110.506 109.422C110.548 109.642 110.643 109.877 110.8 110.113C111.021 110.451 111.331 110.747 111.684 110.979L121.399 96.0332C121.045 95.8013 120.736 95.5052 120.514 95.1677C120.358 94.9335 120.262 94.6971 120.22 94.4767Z" fill="#D9D9D9"/>
<path d="M121.399 96.0334L111.684 110.979C111.944 111.151 112.227 111.286 112.515 111.378L122.229 96.4329C121.941 96.3411 121.658 96.2056 121.399 96.0334Z" fill="#D9D9D9"/>
<path d="M122.228 96.4352L112.513 111.381C112.914 111.509 113.323 111.555 113.688 111.488C114.183 111.401 114.503 111.13 114.622 110.763L124.336 95.8176C124.216 96.1849 123.895 96.4558 123.402 96.5431C123.038 96.6074 122.629 96.5637 122.228 96.4352Z" fill="#D9D9D9"/>
</g>
<path d="M121.185 93.1614C120.199 93.3359 119.901 94.2358 120.512 95.1679C121.123 96.1 122.417 96.7176 123.402 96.5408C124.384 96.3663 124.684 95.4663 124.071 94.5343C123.461 93.6022 122.168 92.9869 121.185 93.1614Z" fill="#F2F2F2"/>
<path d="M132.975 75.0662L120.732 93.8409C120.631 94.1508 120.699 94.5388 120.959 94.936C121.483 95.7326 122.587 96.2583 123.427 96.1091C123.849 96.0333 124.122 95.8015 124.225 95.4892L136.469 76.7145C136.368 77.0267 136.093 77.2586 135.67 77.3344C134.83 77.4836 133.726 76.9579 133.203 76.1613C132.941 75.7641 132.874 75.3738 132.975 75.0662Z" fill="#4B3D46"/>
<mask id="mask5_9_3855" style="mask-type:luminance" maskUnits="userSpaceOnUse" x="120" y="75" width="17" height="22">
<path d="M132.975 75.0662L120.732 93.8409C120.631 94.1508 120.699 94.5388 120.959 94.936C121.483 95.7326 122.587 96.2583 123.427 96.1091C123.849 96.0333 124.122 95.8015 124.225 95.4892L136.469 76.7145C136.368 77.0267 136.093 77.2586 135.67 77.3344C134.83 77.4836 133.726 76.9579 133.203 76.1613C132.941 75.7641 132.874 75.3738 132.975 75.0662Z" fill="white"/>
</mask>
<g mask="url(#mask5_9_3855)">
<path d="M132.975 75.0662L120.732 93.8409C120.682 93.9924 120.673 94.1623 120.707 94.3437L132.951 75.5689C132.916 75.3876 132.926 75.2177 132.975 75.0662Z" fill="#4B3D46"/>
<path d="M132.951 75.569L120.707 94.3437C120.744 94.532 120.826 94.7317 120.957 94.9337C121.147 95.223 121.412 95.4755 121.714 95.673L133.957 76.8982C133.655 76.7008 133.39 76.4483 133.201 76.159C133.069 75.957 132.987 75.7572 132.951 75.569Z" fill="#4B3D46"/>
<path d="M133.957 76.8981L121.714 95.6728C121.935 95.8197 122.178 95.9345 122.422 96.0149L134.666 77.2401C134.421 77.1621 134.179 77.045 133.957 76.8981Z" fill="#4B3D46"/>
<path d="M134.666 77.2403L122.422 96.015C122.764 96.1252 123.114 96.1643 123.425 96.1069C123.847 96.0311 124.12 95.7993 124.224 95.487L136.467 76.7123C136.366 77.0245 136.091 77.2564 135.669 77.3321C135.357 77.3895 135.008 77.3505 134.666 77.2403Z" fill="#4B3D46"/>
</g>
<path d="M133.776 74.4465C132.935 74.5957 132.679 75.3648 133.203 76.1614C133.726 76.958 134.83 77.4838 135.67 77.3346C136.509 77.1853 136.765 76.4162 136.241 75.6196C135.718 74.823 134.614 74.2972 133.776 74.4465Z" fill="#665861"/>
<path d="M208.823 173.481L206.942 172.168C206.606 171.931 206.138 171.966 205.624 172.324L207.505 173.637C208.019 173.279 208.485 173.247 208.823 173.481Z" fill="#D9D9D9"/>
<mask id="mask6_9_3855" style="mask-type:luminance" maskUnits="userSpaceOnUse" x="205" y="172" width="4" height="2">
<path d="M208.823 173.481L206.942 172.168C206.606 171.931 206.138 171.966 205.624 172.324L207.505 173.637C208.019 173.279 208.485 173.247 208.823 173.481Z" fill="white"/>
</mask>
<g mask="url(#mask6_9_3855)">
<path d="M208.823 173.481L206.942 172.168C206.779 172.055 206.586 172.002 206.372 172.021L208.254 173.334C208.468 173.318 208.661 173.368 208.823 173.481Z" fill="#D9D9D9"/>
</g>
<mask id="mask7_9_3855" style="mask-type:luminance" maskUnits="userSpaceOnUse" x="205" y="172" width="4" height="2">
<path d="M208.823 173.481L206.942 172.168C206.606 171.931 206.138 171.966 205.624 172.324L207.505 173.637C208.019 173.279 208.485 173.247 208.823 173.481Z" fill="white"/>
</mask>
<g mask="url(#mask7_9_3855)">
<path d="M208.254 173.337L206.372 172.023C206.248 172.035 206.118 172.067 205.983 172.124L207.864 173.438C208 173.38 208.13 173.346 208.254 173.337Z" fill="#D9D9D9"/>
</g>
<mask id="mask8_9_3855" style="mask-type:luminance" maskUnits="userSpaceOnUse" x="205" y="172" width="4" height="2">
<path d="M208.823 173.481L206.942 172.168C206.606 171.931 206.138 171.966 205.624 172.324L207.505 173.637C208.019 173.279 208.485 173.247 208.823 173.481Z" fill="white"/>
</mask>
<g mask="url(#mask8_9_3855)">
<path d="M207.862 173.435L205.981 172.122C205.864 172.17 205.744 172.237 205.622 172.322L207.503 173.635C207.627 173.552 207.748 173.486 207.862 173.435Z" fill="#D9D9D9"/>
</g>
<path d="M204.317 177.595L206.199 178.908C205.866 178.677 205.66 178.183 205.658 177.481C205.654 176.069 206.481 174.347 207.505 173.637L205.624 172.324C204.6 173.034 203.775 174.755 203.777 176.167C203.779 176.87 203.985 177.363 204.317 177.595Z" fill="#D9D9D9"/>
<mask id="mask9_9_3855" style="mask-type:luminance" maskUnits="userSpaceOnUse" x="203" y="172" width="5" height="7">
<path d="M204.317 177.595L206.199 178.908C205.866 178.677 205.66 178.183 205.658 177.481C205.654 176.069 206.481 174.347 207.505 173.637L205.624 172.324C204.6 173.034 203.775 174.755 203.777 176.167C203.779 176.87 203.985 177.363 204.317 177.595Z" fill="white"/>
</mask>
<g mask="url(#mask9_9_3855)">
<path d="M207.505 173.637L205.624 172.324L205.606 172.336L207.486 173.649L207.505 173.637Z" fill="#D9D9D9"/>
</g>
<mask id="mask10_9_3855" style="mask-type:luminance" maskUnits="userSpaceOnUse" x="203" y="172" width="5" height="7">
<path d="M204.317 177.595L206.199 178.908C205.866 178.677 205.66 178.183 205.658 177.481C205.654 176.069 206.481 174.347 207.505 173.637L205.624 172.324C204.6 173.034 203.775 174.755 203.777 176.167C203.779 176.87 203.985 177.363 204.317 177.595Z" fill="white"/>
</mask>
<g mask="url(#mask10_9_3855)">
<path d="M207.486 173.649L205.604 172.336C205.463 172.437 205.326 172.556 205.192 172.691L207.073 174.005C207.207 173.869 207.345 173.75 207.486 173.649Z" fill="#D9D9D9"/>
</g>
<mask id="mask11_9_3855" style="mask-type:luminance" maskUnits="userSpaceOnUse" x="203" y="172" width="5" height="7">
<path d="M204.317 177.595L206.199 178.908C205.866 178.677 205.66 178.183 205.658 177.481C205.654 176.069 206.481 174.347 207.505 173.637L205.624 172.324C204.6 173.034 203.775 174.755 203.777 176.167C203.779 176.87 203.985 177.363 204.317 177.595Z" fill="white"/>
</mask>
<g mask="url(#mask11_9_3855)">
<path d="M207.073 174.005L205.192 172.692C204.63 173.266 204.17 174.124 203.937 174.999L205.818 176.312C206.051 175.44 206.514 174.581 207.073 174.005Z" fill="#F2F2F2"/>
</g>
<mask id="mask12_9_3855" style="mask-type:luminance" maskUnits="userSpaceOnUse" x="203" y="172" width="5" height="7">
<path d="M204.317 177.595L206.199 178.908C205.866 178.677 205.66 178.183 205.658 177.481C205.654 176.069 206.481 174.347 207.505 173.637L205.624 172.324C204.6 173.034 203.775 174.755 203.777 176.167C203.779 176.87 203.985 177.363 204.317 177.595Z" fill="white"/>
</mask>
<g mask="url(#mask12_9_3855)">
<path d="M205.82 176.312L203.939 174.999C203.884 175.21 203.842 175.421 203.813 175.628L205.694 176.941C205.721 176.734 205.763 176.523 205.82 176.312Z" fill="#D9D9D9"/>
</g>
<mask id="mask13_9_3855" style="mask-type:luminance" maskUnits="userSpaceOnUse" x="203" y="172" width="5" height="7">
<path d="M204.317 177.595L206.199 178.908C205.866 178.677 205.66 178.183 205.658 177.481C205.654 176.069 206.481 174.347 207.505 173.637L205.624 172.324C204.6 173.034 203.775 174.755 203.777 176.167C203.779 176.87 203.985 177.363 204.317 177.595Z" fill="white"/>
</mask>
<g mask="url(#mask13_9_3855)">
<path d="M205.694 176.943L203.813 175.63C203.788 175.814 203.777 175.993 203.777 176.17C203.777 176.177 205.658 177.49 205.658 177.49C205.658 177.306 205.669 177.125 205.694 176.943Z" fill="#D9D9D9"/>
</g>
<mask id="mask14_9_3855" style="mask-type:luminance" maskUnits="userSpaceOnUse" x="203" y="172" width="5" height="7">
<path d="M204.317 177.595L206.199 178.908C205.866 178.677 205.66 178.183 205.658 177.481C205.654 176.069 206.481 174.347 207.505 173.637L205.624 172.324C204.6 173.034 203.775 174.755 203.777 176.167C203.779 176.87 203.985 177.363 204.317 177.595Z" fill="white"/>
</mask>
<g mask="url(#mask14_9_3855)">
<path d="M205.658 177.487L203.777 176.174C203.777 176.369 203.794 176.548 203.824 176.709L205.706 178.022C205.675 177.862 205.658 177.683 205.658 177.487Z" fill="#D9D9D9"/>
</g>
<mask id="mask15_9_3855" style="mask-type:luminance" maskUnits="userSpaceOnUse" x="203" y="172" width="5" height="7">
<path d="M204.317 177.595L206.199 178.908C205.866 178.677 205.66 178.183 205.658 177.481C205.654 176.069 206.481 174.347 207.505 173.637L205.624 172.324C204.6 173.034 203.775 174.755 203.777 176.167C203.779 176.87 203.985 177.363 204.317 177.595Z" fill="white"/>
</mask>
<g mask="url(#mask15_9_3855)">
<path d="M205.706 178.022L203.824 176.709C203.905 177.127 204.078 177.428 204.317 177.595L206.199 178.908C205.96 178.743 205.786 178.44 205.706 178.022Z" fill="#D9D9D9"/>
</g>
<path d="M207.505 173.637C206.481 174.347 205.656 176.069 205.658 177.48C205.662 178.892 206.493 179.462 207.516 178.752C208.54 178.043 209.365 176.321 209.363 174.909C209.36 173.497 208.527 172.928 207.505 173.637Z" fill="#10191B"/>
<path d="M205.903 177.48C205.903 177.873 205.973 178.19 206.103 178.408C206.237 178.637 206.436 178.764 206.686 178.764C206.9 178.764 207.144 178.672 207.394 178.497C208.349 177.836 209.121 176.227 209.119 174.909C209.117 174.211 208.898 173.759 208.521 173.651C208.462 173.635 208.401 173.626 208.336 173.626C208.124 173.626 207.878 173.718 207.627 173.892C206.672 174.553 205.901 176.165 205.903 177.48Z" fill="#F2F2F2"/>
<path d="M205.903 177.48C205.903 177.873 205.973 178.19 206.103 178.408C206.16 178.424 206.223 178.433 206.288 178.433C206.5 178.433 206.747 178.341 206.997 178.167C207.95 177.506 208.724 175.896 208.72 174.578C208.718 174.186 208.649 173.869 208.519 173.649C208.46 173.633 208.399 173.623 208.334 173.623C208.122 173.623 207.876 173.715 207.625 173.89C206.672 174.553 205.901 176.165 205.903 177.48Z" fill="#32272D"/>
<path d="M207.776 174.227L208.009 174.386C207.814 174.248 207.545 174.264 207.245 174.468L207.012 174.31C207.312 174.106 207.581 174.089 207.776 174.227Z" fill="#4B3D46"/>
<mask id="mask16_9_3855" style="mask-type:luminance" maskUnits="userSpaceOnUse" x="207" y="174" width="2" height="1">
<path d="M207.776 174.227L208.009 174.386C207.814 174.248 207.545 174.264 207.245 174.468L207.012 174.31C207.312 174.106 207.581 174.089 207.776 174.227Z" fill="white"/>
</mask>
<g mask="url(#mask16_9_3855)">
<path d="M207.245 174.468L207.012 174.31C207.127 174.232 207.236 174.181 207.339 174.156L207.572 174.314C207.469 174.34 207.36 174.39 207.245 174.468Z" fill="#4B3D46"/>
<path d="M207.572 174.315L207.339 174.156C207.497 174.117 207.639 174.138 207.757 174.214L207.99 174.372C207.874 174.298 207.73 174.276 207.572 174.315Z" fill="#4B3D46"/>
<path d="M207.99 174.374L207.757 174.216L207.776 174.227L208.009 174.386L207.99 174.374Z" fill="#4B3D46"/>
</g>
<path d="M206.47 177.512L206.237 177.354C206.046 177.219 205.927 176.932 205.929 176.525C205.933 175.708 206.418 174.716 207.012 174.31L207.245 174.468C206.651 174.875 206.166 175.866 206.162 176.684C206.16 177.09 206.279 177.377 206.47 177.512Z" fill="#4B3D46"/>
<mask id="mask17_9_3855" style="mask-type:luminance" maskUnits="userSpaceOnUse" x="205" y="174" width="3" height="4">
<path d="M206.47 177.512L206.237 177.354C206.046 177.219 205.927 176.932 205.929 176.525C205.933 175.708 206.418 174.716 207.012 174.31L207.245 174.468C206.651 174.875 206.166 175.866 206.162 176.684C206.16 177.09 206.279 177.377 206.47 177.512Z" fill="white"/>
</mask>
<g mask="url(#mask17_9_3855)">
<path d="M206.47 177.512L206.237 177.354C206.046 177.219 205.927 176.932 205.929 176.525C205.931 176.211 206.002 175.873 206.124 175.552L206.357 175.71C206.235 176.032 206.164 176.371 206.162 176.684C206.16 177.09 206.279 177.377 206.47 177.512Z" fill="#4B3D46"/>
<path d="M206.357 175.71L206.124 175.552C206.22 175.302 206.344 175.06 206.489 174.852L206.722 175.01C206.577 175.219 206.453 175.46 206.357 175.71Z" fill="#4B3D46"/>
<path d="M206.722 175.01L206.489 174.852C206.643 174.629 206.821 174.441 207.012 174.31L207.245 174.468C207.056 174.597 206.877 174.787 206.722 175.01Z" fill="#4B3D46"/>
</g>
<path d="M207.245 174.468C207.839 174.062 208.321 174.397 208.317 175.215C208.313 176.032 207.83 177.024 207.234 177.43C206.64 177.836 206.16 177.501 206.162 176.684C206.166 175.867 206.651 174.875 207.245 174.468Z" fill="#665861"/>
<path d="M205.658 177.48C205.662 178.892 206.493 179.462 207.516 178.752C208.54 178.043 209.365 176.321 209.363 174.909C209.36 173.497 208.529 172.926 207.505 173.635C206.481 174.347 205.654 176.068 205.658 177.48ZM205.902 177.48C205.899 176.165 206.672 174.553 207.627 173.892C207.877 173.718 208.124 173.626 208.336 173.626C208.401 173.626 208.464 173.635 208.521 173.651C208.897 173.759 209.117 174.213 209.119 174.909C209.121 176.227 208.349 177.836 207.394 178.497C207.144 178.672 206.899 178.764 206.686 178.764C206.435 178.764 206.237 178.637 206.103 178.408C205.973 178.19 205.904 177.873 205.902 177.48Z" fill="#CACACA"/>
<path d="M225.146 154.24L225.135 159.3C225.131 160.832 224.298 162.361 222.635 163.525L222.646 158.465C224.31 157.301 225.142 155.772 225.146 154.24Z" fill="#4B3D46"/>
<mask id="mask18_9_3855" style="mask-type:luminance" maskUnits="userSpaceOnUse" x="222" y="154" width="4" height="10">
<path d="M225.146 154.24L225.135 159.3C225.131 160.832 224.298 162.361 222.635 163.525L222.646 158.465C224.31 157.301 225.142 155.772 225.146 154.24Z" fill="white"/>
</mask>
<g mask="url(#mask18_9_3855)">
<path d="M225.146 154.24L225.135 159.3C225.131 160.832 224.298 162.361 222.635 163.525L222.646 158.465C224.31 157.301 225.142 155.772 225.146 154.24Z" fill="#4B3D46"/>
</g>
<path d="M184.854 166.546L184.865 161.486C184.861 163.038 185.71 164.592 187.406 165.77L187.394 170.83C185.698 169.652 184.85 168.098 184.854 166.546Z" fill="#4B3D46"/>
<mask id="mask19_9_3855" style="mask-type:luminance" maskUnits="userSpaceOnUse" x="184" y="161" width="4" height="10">
<path d="M184.854 166.546L184.865 161.486C184.861 163.038 185.71 164.592 187.406 165.77L187.394 170.83C185.698 169.652 184.85 168.098 184.854 166.546Z" fill="white"/>
</mask>
<g mask="url(#mask19_9_3855)">
<path d="M187.406 165.77L187.394 170.83C185.698 169.652 184.85 168.098 184.854 166.546L184.865 161.486C184.861 163.038 185.71 164.592 187.406 165.77Z" fill="#4B3D46"/>
</g>
<path d="M222.646 158.465L222.635 163.524L205.914 175.203L205.925 170.143L222.646 158.465Z" fill="#4B3D46"/>
<path d="M193.709 170.143L193.695 175.203L187.394 170.83L187.406 165.77L193.709 170.143Z" fill="#4B3D46"/>
<path d="M205.926 170.143L205.914 175.203C202.566 177.542 197.067 177.542 193.696 175.203L193.707 170.143C197.078 172.483 202.577 172.483 205.926 170.143Z" fill="#4B3D46"/>
<mask id="mask20_9_3855" style="mask-type:luminance" maskUnits="userSpaceOnUse" x="193" y="170" width="13" height="7">
<path d="M205.926 170.143L205.914 175.203C202.566 177.542 197.067 177.542 193.696 175.203L193.707 170.143C197.078 172.483 202.577 172.483 205.926 170.143Z" fill="white"/>
</mask>
<g mask="url(#mask20_9_3855)">
<path d="M205.926 170.143L205.914 175.203C202.566 177.542 197.067 177.542 193.696 175.203L193.707 170.143C197.078 172.483 202.577 172.483 205.926 170.143Z" fill="#4B3D46"/>
</g>
<path d="M222.606 149.957C225.977 152.296 225.994 156.123 222.646 158.462L205.925 170.141C202.575 172.48 197.078 172.48 193.707 170.141L187.404 165.767C184.032 163.428 184.015 159.601 187.364 157.262L204.084 145.583C207.432 143.244 212.931 143.244 216.303 145.583L222.606 149.957Z" fill="#665861"/>
<path d="M224.225 131.962L224.174 153.889C224.17 155.349 223.375 156.807 221.79 157.916L221.842 135.989C223.429 134.882 224.222 133.422 224.225 131.962Z" fill="#275EBE"/>
<mask id="mask21_9_3855" style="mask-type:luminance" maskUnits="userSpaceOnUse" x="221" y="131" width="4" height="27">
<path d="M224.225 131.962L224.174 153.889C224.17 155.349 223.375 156.807 221.79 157.916L221.842 135.989C223.429 134.882 224.222 133.422 224.225 131.962Z" fill="white"/>
</mask>
<g mask="url(#mask21_9_3855)">
<path d="M224.225 131.962L224.174 153.889C224.17 155.349 223.375 156.807 221.79 157.916L221.842 135.989C223.429 134.882 224.222 133.422 224.225 131.962Z" fill="#1248A5"/>
</g>
<path d="M185.773 160.797L185.824 138.87C185.82 140.348 186.628 141.831 188.246 142.954L188.195 164.881C186.577 163.758 185.769 162.277 185.773 160.797Z" fill="#275EBE"/>
<mask id="mask22_9_3855" style="mask-type:luminance" maskUnits="userSpaceOnUse" x="185" y="138" width="4" height="27">
<path d="M185.773 160.797L185.824 138.87C185.82 140.348 186.628 141.831 188.246 142.954L188.195 164.881C186.577 163.758 185.769 162.277 185.773 160.797Z" fill="white"/>
</mask>
<g mask="url(#mask22_9_3855)">
<path d="M188.246 142.952L188.195 164.881C186.577 163.758 185.769 162.277 185.773 160.797L185.824 138.87C185.82 140.348 186.628 141.831 188.246 142.952Z" fill="#275EBE"/>
</g>
<path d="M221.842 135.989L221.79 157.918L205.853 169.05L205.904 147.123L221.842 135.989Z" fill="#1248A5"/>
<path d="M194.255 147.123L194.204 169.05L188.195 164.881L188.246 142.952L194.255 147.123Z" fill="#275EBE"/>
<path d="M205.905 147.123L205.853 169.05C202.659 171.282 197.418 171.279 194.204 169.05L194.255 147.123C197.468 149.353 202.711 149.353 205.905 147.123Z" fill="#275EBE"/>
<mask id="mask23_9_3855" style="mask-type:luminance" maskUnits="userSpaceOnUse" x="194" y="147" width="12" height="24">
<path d="M205.905 147.123L205.853 169.05C202.659 171.282 197.418 171.279 194.204 169.05L194.255 147.123C197.468 149.353 202.711 149.353 205.905 147.123Z" fill="white"/>
</mask>
<g mask="url(#mask23_9_3855)">
<path d="M205.905 147.123L205.853 169.05C202.659 171.282 197.418 171.279 194.204 169.05L194.255 147.123C197.468 149.353 202.711 149.353 205.905 147.123Z" fill="#275EBE"/>
</g>
<path d="M221.804 127.878C225.018 130.107 225.035 133.76 221.842 135.989L205.902 147.123C202.709 149.355 197.468 149.353 194.253 147.123L188.246 142.954C185.031 140.725 185.014 137.075 188.208 134.846L204.147 123.714C207.341 121.482 212.582 121.482 215.796 123.714L221.804 127.878Z" fill="#275EBE"/>
<path d="M218.962 150.824L222.073 148.666V148.136L218.962 150.294V150.824Z" fill="#32272D"/>
<path d="M218.962 151.745L222.073 149.585V149.054L218.962 151.215V151.745Z" fill="#32272D"/>
<path d="M218.962 152.663L222.073 150.503V149.973L218.962 152.133V152.663Z" fill="#32272D"/>
<path d="M218.962 154.5L222.073 152.342V151.811L218.962 153.969V154.5Z" fill="#32272D"/>
<path d="M218.962 155.418L222.073 153.26V152.73L218.962 154.888V155.418Z" fill="#32272D"/>
<path d="M218.962 156.336L222.073 154.178V153.648L218.962 155.806V156.336Z" fill="#32272D"/>
<path d="M218.962 153.582L222.073 151.424V150.893L218.962 153.051V153.582Z" fill="#32272D"/>
<path d="M215.015 153.565L218.125 151.405V150.875L215.015 153.035V153.565Z" fill="#32272D"/>
<path d="M215.015 154.484L218.125 152.324V151.793L215.015 153.954V154.484Z" fill="#32272D"/>
<path d="M215.015 155.402L218.125 153.244V152.714L215.015 154.872V155.402Z" fill="#32272D"/>
<path d="M215.015 157.239L218.125 155.08V154.55L215.015 156.708V157.239Z" fill="#32272D"/>
<path d="M215.015 158.157L218.125 155.999V155.469L215.015 157.627V158.157Z" fill="#32272D"/>
<path d="M215.015 159.075L218.125 156.917V156.387L215.015 158.545V159.075Z" fill="#32272D"/>
<path d="M215.015 156.321L218.125 154.163V153.632L215.015 155.79V156.321Z" fill="#32272D"/>
<path d="M211.068 156.304L214.179 154.144V153.614L211.068 155.774V156.304Z" fill="#32272D"/>
<path d="M211.068 157.222L214.179 155.064V154.534L211.068 156.692V157.222Z" fill="#32272D"/>
<path d="M211.068 158.141L214.179 155.983V155.453L211.068 157.611V158.141Z" fill="#32272D"/>
<path d="M211.068 159.977L214.179 157.819V157.289L211.068 159.447V159.977Z" fill="#32272D"/>
<path d="M211.068 160.896L214.179 158.738V158.207L211.068 160.365V160.896Z" fill="#32272D"/>
<path d="M211.068 161.814L214.179 159.656V159.126L211.068 161.284V161.814Z" fill="#32272D"/>
<path d="M211.068 159.059L214.179 156.901V156.371L211.068 158.529V159.059Z" fill="#32272D"/>
<path d="M207.119 159.043L210.231 156.885V156.355L207.119 158.513V159.043Z" fill="#32272D"/>
<path d="M207.119 159.961L210.231 157.803V157.273L207.119 159.431V159.961Z" fill="#32272D"/>
<path d="M207.119 160.88L210.231 158.721V158.191L207.119 160.349V160.88Z" fill="#32272D"/>
<path d="M207.119 162.716L210.231 160.558V160.028L207.119 162.186V162.716Z" fill="#32272D"/>
<path d="M207.119 163.635L210.231 161.477V160.946L207.119 163.104V163.635Z" fill="#32272D"/>
<path d="M207.119 164.555L210.231 162.395V161.865L207.119 164.025V164.555Z" fill="#32272D"/>
<path d="M207.119 161.798L210.231 159.64V159.109L207.119 161.268V161.798Z" fill="#32272D"/>
<path d="M206.707 157.895L222.486 146.944V146.414L206.707 157.365V157.895Z" fill="#32272D"/>
<path d="M206.707 166.392L222.486 155.443V154.913L206.707 165.862V166.392Z" fill="#32272D"/>
<path d="M224.203 130.369L224.199 132.056C224.195 133.517 223.401 134.977 221.815 136.083L221.819 134.396C223.404 133.289 224.199 131.829 224.203 130.369Z" fill="#BFBFBF"/>
<mask id="mask24_9_3855" style="mask-type:luminance" maskUnits="userSpaceOnUse" x="221" y="130" width="4" height="7">
<path d="M224.203 130.369L224.199 132.056C224.195 133.517 223.401 134.977 221.815 136.083L221.819 134.396C223.404 133.289 224.199 131.829 224.203 130.369Z" fill="white"/>
</mask>
<g mask="url(#mask24_9_3855)">
<path d="M224.203 130.369L224.199 132.056C224.195 133.517 223.401 134.977 221.815 136.083L221.819 134.396C223.404 133.289 224.199 131.829 224.203 130.369Z" fill="#BFBFBF"/>
</g>
<path d="M185.797 138.964L185.801 137.277C185.798 138.756 186.605 140.239 188.223 141.361L188.219 143.049C186.602 141.924 185.794 140.443 185.797 138.964Z" fill="#BFBFBF"/>
<mask id="mask25_9_3855" style="mask-type:luminance" maskUnits="userSpaceOnUse" x="185" y="137" width="4" height="7">
<path d="M185.797 138.964L185.801 137.277C185.798 138.756 186.605 140.239 188.223 141.361L188.219 143.049C186.602 141.924 185.794 140.443 185.797 138.964Z" fill="white"/>
</mask>
<g mask="url(#mask25_9_3855)">
<path d="M188.221 141.361L188.218 143.049C186.6 141.926 185.792 140.445 185.796 138.965L185.8 137.277C185.798 138.756 186.606 140.239 188.221 141.361Z" fill="#BFBFBF"/>
</g>
<path d="M221.819 134.398L221.815 136.083L205.876 147.218L205.88 145.53L221.819 134.398Z" fill="#BFBFBF"/>
<path d="M194.23 145.53L194.226 147.217L188.217 143.046L188.221 141.361L194.23 145.53Z" fill="#BFBFBF"/>
<path d="M205.88 145.53L205.876 147.218C202.682 149.447 197.441 149.447 194.228 147.218L194.232 145.53C197.445 147.762 202.686 147.762 205.88 145.53Z" fill="#BFBFBF"/>
<mask id="mask26_9_3855" style="mask-type:luminance" maskUnits="userSpaceOnUse" x="194" y="145" width="12" height="4">
<path d="M205.88 145.53L205.876 147.218C202.682 149.447 197.441 149.447 194.228 147.218L194.232 145.53C197.445 147.762 202.686 147.762 205.88 145.53Z" fill="white"/>
</mask>
<g mask="url(#mask26_9_3855)">
<path d="M205.88 145.53L205.876 147.218C202.682 149.447 197.441 149.447 194.228 147.218L194.232 145.53C197.445 147.762 202.686 147.762 205.88 145.53Z" fill="#BFBFBF"/>
</g>
<path d="M221.781 126.287C224.995 128.516 225.01 132.167 221.817 134.398L205.878 145.53C202.684 147.762 197.443 147.762 194.23 145.53L188.221 141.361C185.007 139.132 184.989 135.482 188.183 133.25L204.122 122.118C207.316 119.889 212.557 119.887 215.772 122.118L221.781 126.287Z" fill="#F2F2F2"/>
<path d="M224.214 122.013L224.195 130.447C224.191 131.907 223.399 133.365 221.812 134.474L221.831 126.039C223.416 124.93 224.211 123.473 224.214 122.013Z" fill="#F2F2F2"/>
<mask id="mask27_9_3855" style="mask-type:luminance" maskUnits="userSpaceOnUse" x="221" y="122" width="4" height="13">
<path d="M224.214 122.013L224.195 130.447C224.191 131.907 223.399 133.365 221.812 134.474L221.831 126.039C223.416 124.93 224.211 123.473 224.214 122.013Z" fill="white"/>
</mask>
<g mask="url(#mask27_9_3855)">
<path d="M224.214 122.013L224.195 130.447C224.191 131.907 223.399 133.365 221.812 134.474L221.831 126.039C223.416 124.93 224.211 123.473 224.214 122.013Z" fill="#CACACA"/>
</g>
<path d="M208.433 140.523L208.414 143.829L190.72 131.549L190.739 128.243L208.433 140.523Z" fill="#BFBFBF"/>
<path d="M195.319 119.917L190.739 128.243L208.433 140.523L213.014 132.197L195.319 119.917Z" fill="#D9D9D9"/>
<path d="M221.83 126.039C225.024 123.808 225.007 120.16 221.792 117.931L215.783 113.761C212.569 111.532 207.327 111.532 204.136 113.761L195.319 119.919L213.014 132.199L221.83 126.039Z" fill="#F2F2F2"/>
<path d="M213.014 132.197L208.434 140.523L208.414 143.829L219.061 136.393L221.81 134.472L221.831 126.039L213.014 132.197Z" fill="#CACACA"/>
<path d="M188.58 159.167L189.642 158.425C190.061 158.134 190.64 158.175 191.277 158.618L190.215 159.36C189.578 158.914 188.999 158.873 188.58 159.167Z" fill="#4B3D46"/>
<mask id="mask28_9_3855" style="mask-type:luminance" maskUnits="userSpaceOnUse" x="188" y="158" width="4" height="2">
<path d="M188.58 159.167L189.642 158.425C190.061 158.134 190.64 158.175 191.277 158.618L190.215 159.36C189.578 158.914 188.999 158.873 188.58 159.167Z" fill="white"/>
</mask>
<g mask="url(#mask28_9_3855)">
<path d="M188.58 159.167L189.642 158.425C190.061 158.134 190.64 158.175 191.277 158.618L190.215 159.36C189.578 158.914 188.999 158.873 188.58 159.167Z" fill="#4B3D46"/>
</g>
<path d="M192.897 165.159L191.835 165.9C192.248 165.611 192.504 164.998 192.506 164.128C192.509 162.374 191.484 160.239 190.216 159.36L191.278 158.618C192.548 159.5 193.573 161.635 193.568 163.386C193.566 164.257 193.31 164.87 192.897 165.159Z" fill="#4B3D46"/>
<mask id="mask29_9_3855" style="mask-type:luminance" maskUnits="userSpaceOnUse" x="190" y="158" width="4" height="8">
<path d="M192.897 165.159L191.835 165.9C192.248 165.611 192.504 164.998 192.506 164.128C192.509 162.374 191.484 160.239 190.216 159.36L191.278 158.618C192.548 159.5 193.573 161.635 193.568 163.386C193.566 164.257 193.31 164.87 192.897 165.159Z" fill="white"/>
</mask>
<g mask="url(#mask29_9_3855)">
<path d="M190.216 159.358L191.278 158.616C191.53 158.791 191.77 159.013 191.998 159.275L190.936 160.017C190.71 159.757 190.468 159.532 190.216 159.358Z" fill="#4B3D46"/>
<path d="M190.936 160.016L191.998 159.275C192.712 160.097 193.27 161.281 193.48 162.431L192.418 163.173C192.208 162.025 191.65 160.838 190.936 160.016Z" fill="#4B3D46"/>
<path d="M192.418 163.173L193.48 162.432C193.539 162.755 193.57 163.077 193.57 163.387C193.568 164.257 193.312 164.87 192.899 165.159L191.837 165.9C192.25 165.611 192.506 165.001 192.508 164.128C192.508 163.818 192.477 163.497 192.418 163.173Z" fill="#4B3D46"/>
</g>
<path d="M190.216 159.358C191.486 160.239 192.511 162.374 192.506 164.126C192.502 165.88 191.469 166.587 190.2 165.705C188.93 164.824 187.904 162.689 187.91 160.937C187.914 159.186 188.947 158.478 190.216 159.358Z" fill="#32272D"/>
<path d="M190.212 160.854C190.882 161.32 191.425 162.45 191.423 163.375C191.421 164.303 190.875 164.677 190.204 164.211C189.534 163.745 188.991 162.615 188.993 161.69C188.995 160.763 189.541 160.388 190.212 160.854Z" fill="#261D22"/>
<path d="M224.848 158.244L223.542 157.252C222.826 156.752 221.832 156.821 220.736 157.583L222.042 158.575C223.139 157.815 224.132 157.744 224.848 158.244Z" fill="#D9D9D9"/>
<mask id="mask30_9_3855" style="mask-type:luminance" maskUnits="userSpaceOnUse" x="220" y="156" width="5" height="3">
<path d="M224.848 158.244L223.542 157.252C222.826 156.752 221.832 156.821 220.736 157.583L222.042 158.575C223.139 157.815 224.132 157.744 224.848 158.244Z" fill="white"/>
</mask>
<g mask="url(#mask30_9_3855)">
<path d="M224.848 158.244L223.542 157.252C223.196 157.011 222.786 156.901 222.331 156.94L223.637 157.932C224.092 157.895 224.503 158.003 224.848 158.244Z" fill="#D9D9D9"/>
</g>
<mask id="mask31_9_3855" style="mask-type:luminance" maskUnits="userSpaceOnUse" x="220" y="156" width="5" height="3">
<path d="M224.848 158.244L223.542 157.252C222.826 156.752 221.832 156.821 220.736 157.583L222.042 158.575C223.139 157.815 224.132 157.744 224.848 158.244Z" fill="white"/>
</mask>
<g mask="url(#mask31_9_3855)">
<path d="M223.637 157.932L222.331 156.94C222.067 156.963 221.79 157.032 221.5 157.156L222.806 158.15C223.097 158.024 223.374 157.955 223.637 157.932Z" fill="#D9D9D9"/>
</g>
<mask id="mask32_9_3855" style="mask-type:luminance" maskUnits="userSpaceOnUse" x="220" y="156" width="5" height="3">
<path d="M224.848 158.244L223.542 157.252C222.826 156.752 221.832 156.821 220.736 157.583L222.042 158.575C223.139 157.815 224.132 157.744 224.848 158.244Z" fill="white"/>
</mask>
<g mask="url(#mask32_9_3855)">
<path d="M222.806 158.148L221.5 157.154C221.254 157.259 220.998 157.399 220.736 157.581L222.042 158.572C222.304 158.393 222.56 158.251 222.806 158.148Z" fill="#D9D9D9"/>
</g>
<path d="M217.957 168.802L219.263 169.796C218.555 169.303 218.117 168.251 218.113 166.757C218.106 163.749 219.867 160.085 222.044 158.575L220.738 157.583C218.56 159.094 216.801 162.758 216.807 165.765C216.811 167.257 217.248 168.309 217.957 168.802Z" fill="#D9D9D9"/>
<mask id="mask33_9_3855" style="mask-type:luminance" maskUnits="userSpaceOnUse" x="216" y="157" width="7" height="13">
<path d="M217.957 168.802L219.263 169.796C218.555 169.303 218.117 168.251 218.113 166.757C218.106 163.749 219.867 160.085 222.044 158.575L220.738 157.583C218.56 159.094 216.801 162.758 216.807 165.765C216.811 167.257 217.248 168.309 217.957 168.802Z" fill="white"/>
</mask>
<g mask="url(#mask33_9_3855)">
<path d="M222.044 158.575L220.738 157.583C220.724 157.592 220.711 157.601 220.698 157.611L222.004 158.602C222.018 158.593 222.031 158.584 222.044 158.575Z" fill="#D9D9D9"/>
</g>
<mask id="mask34_9_3855" style="mask-type:luminance" maskUnits="userSpaceOnUse" x="216" y="157" width="7" height="13">
<path d="M217.957 168.802L219.263 169.796C218.555 169.303 218.117 168.251 218.113 166.757C218.106 163.749 219.867 160.085 222.044 158.575L220.738 157.583C218.56 159.094 216.801 162.758 216.807 165.765C216.811 167.257 217.248 168.309 217.957 168.802Z" fill="white"/>
</mask>
<g mask="url(#mask34_9_3855)">
<path d="M222.004 158.602L220.698 157.61C220.396 157.824 220.102 158.079 219.821 158.366L221.127 159.358C221.408 159.071 221.702 158.816 222.004 158.602Z" fill="#D9D9D9"/>
</g>
<mask id="mask35_9_3855" style="mask-type:luminance" maskUnits="userSpaceOnUse" x="216" y="157" width="7" height="13">
<path d="M217.957 168.802L219.263 169.796C218.555 169.303 218.117 168.251 218.113 166.757C218.106 163.749 219.867 160.085 222.044 158.575L220.738 157.583C218.56 159.094 216.801 162.758 216.807 165.765C216.811 167.257 217.248 168.309 217.957 168.802Z" fill="white"/>
</mask>
<g mask="url(#mask35_9_3855)">
<path d="M221.127 159.358L219.821 158.366C218.627 159.59 217.645 161.417 217.151 163.277L218.457 164.268C218.952 162.411 219.932 160.581 221.127 159.358Z" fill="#F2F2F2"/>
</g>
<mask id="mask36_9_3855" style="mask-type:luminance" maskUnits="userSpaceOnUse" x="216" y="157" width="7" height="13">
<path d="M217.957 168.802L219.263 169.796C218.555 169.303 218.117 168.251 218.113 166.757C218.106 163.749 219.867 160.085 222.044 158.575L220.738 157.583C218.56 159.094 216.801 162.758 216.807 165.765C216.811 167.257 217.248 168.309 217.957 168.802Z" fill="white"/>
</mask>
<g mask="url(#mask36_9_3855)">
<path d="M218.457 164.27L217.151 163.279C217.032 163.726 216.943 164.176 216.883 164.619L218.19 165.613C218.249 165.168 218.339 164.718 218.457 164.27Z" fill="#D9D9D9"/>
</g>
<mask id="mask37_9_3855" style="mask-type:luminance" maskUnits="userSpaceOnUse" x="216" y="157" width="7" height="13">
<path d="M217.957 168.802L219.263 169.796C218.555 169.303 218.117 168.251 218.113 166.757C218.106 163.749 219.867 160.085 222.044 158.575L220.738 157.583C218.56 159.094 216.801 162.758 216.807 165.765C216.811 167.257 217.248 168.309 217.957 168.802Z" fill="white"/>
</mask>
<g mask="url(#mask37_9_3855)">
<path d="M218.19 165.609L216.883 164.615C216.832 165.005 216.807 165.389 216.807 165.763C216.807 165.777 218.113 166.768 218.113 166.768C218.113 166.383 218.138 165.999 218.19 165.609Z" fill="#D9D9D9"/>
</g>
<mask id="mask38_9_3855" style="mask-type:luminance" maskUnits="userSpaceOnUse" x="216" y="157" width="7" height="13">
<path d="M217.957 168.802L219.263 169.796C218.555 169.303 218.117 168.251 218.113 166.757C218.106 163.749 219.867 160.085 222.044 158.575L220.738 157.583C218.56 159.094 216.801 162.758 216.807 165.765C216.811 167.257 217.248 168.309 217.957 168.802Z" fill="white"/>
</mask>
<g mask="url(#mask38_9_3855)">
<path d="M218.113 166.771L216.807 165.779C216.809 166.194 216.843 166.573 216.91 166.918L218.217 167.912C218.15 167.565 218.115 167.186 218.113 166.771Z" fill="#D9D9D9"/>
</g>
<mask id="mask39_9_3855" style="mask-type:luminance" maskUnits="userSpaceOnUse" x="216" y="157" width="7" height="13">
<path d="M217.957 168.802L219.263 169.796C218.555 169.303 218.117 168.251 218.113 166.757C218.106 163.749 219.867 160.085 222.044 158.575L220.738 157.583C218.56 159.094 216.801 162.758 216.807 165.765C216.811 167.257 217.248 168.309 217.957 168.802Z" fill="white"/>
</mask>
<g mask="url(#mask39_9_3855)">
<path d="M218.216 167.909L216.91 166.915C217.078 167.803 217.449 168.446 217.957 168.802L219.263 169.796C218.755 169.44 218.385 168.798 218.216 167.909Z" fill="#D9D9D9"/>
</g>
<path d="M222.044 158.575C219.867 160.085 218.108 163.749 218.113 166.757C218.121 169.764 219.892 170.976 222.069 169.466C224.247 167.955 226.006 164.291 226 161.284C225.992 158.276 224.222 157.064 222.044 158.575Z" fill="#10191B"/>
<path d="M218.635 166.757C218.637 167.595 218.786 168.265 219.061 168.733C219.345 169.225 219.769 169.491 220.3 169.491C220.753 169.491 221.275 169.296 221.809 168.924C223.84 167.514 225.484 164.089 225.479 161.286C225.475 159.803 225.007 158.839 224.208 158.607C224.084 158.57 223.952 158.552 223.813 158.552C223.36 158.552 222.839 158.747 222.306 159.119C220.274 160.526 218.629 163.954 218.635 166.757Z" fill="#F2F2F2"/>
<path d="M218.635 166.757C218.637 167.595 218.786 168.265 219.061 168.733C219.185 168.77 219.317 168.788 219.456 168.788C219.911 168.788 220.43 168.593 220.965 168.221C222.996 166.814 224.64 163.387 224.634 160.586C224.632 159.748 224.483 159.077 224.208 158.609C224.084 158.572 223.952 158.554 223.813 158.554C223.36 158.554 222.839 158.749 222.306 159.121C220.274 160.526 218.629 163.954 218.635 166.757Z" fill="#32272D"/>
<path d="M222.621 159.83L223.118 160.168C222.705 159.874 222.13 159.911 221.492 160.345L220.996 160.007C221.634 159.573 222.209 159.536 222.621 159.83Z" fill="#4B3D46"/>
<mask id="mask40_9_3855" style="mask-type:luminance" maskUnits="userSpaceOnUse" x="220" y="159" width="4" height="2">
<path d="M222.621 159.83L223.118 160.168C222.705 159.874 222.13 159.911 221.492 160.345L220.996 160.007C221.634 159.573 222.209 159.536 222.621 159.83Z" fill="white"/>
</mask>
<g mask="url(#mask40_9_3855)">
<path d="M221.492 160.345L220.996 160.007C221.238 159.842 221.473 159.734 221.693 159.679L222.188 160.017C221.968 160.072 221.735 160.18 221.492 160.345Z" fill="#4B3D46"/>
<path d="M222.188 160.016L221.693 159.679C222.031 159.596 222.333 159.642 222.581 159.803L223.076 160.14C222.827 159.982 222.526 159.936 222.188 160.016Z" fill="#4B3D46"/>
<path d="M223.076 160.14L222.581 159.803C222.594 159.812 222.608 159.821 222.621 159.83L223.118 160.168C223.102 160.158 223.091 160.149 223.076 160.14Z" fill="#4B3D46"/>
</g>
<path d="M219.842 166.825L219.347 166.488C218.938 166.199 218.688 165.588 218.692 164.722C218.698 162.982 219.731 160.87 220.997 160.007L221.494 160.344C220.228 161.208 219.196 163.32 219.189 165.06C219.183 165.923 219.433 166.534 219.842 166.825Z" fill="#4B3D46"/>
<mask id="mask41_9_3855" style="mask-type:luminance" maskUnits="userSpaceOnUse" x="218" y="160" width="4" height="7">
<path d="M219.842 166.825L219.347 166.488C218.938 166.199 218.688 165.588 218.692 164.722C218.698 162.982 219.731 160.87 220.997 160.007L221.494 160.344C220.228 161.208 219.196 163.32 219.189 165.06C219.183 165.923 219.433 166.534 219.842 166.825Z" fill="white"/>
</mask>
<g mask="url(#mask41_9_3855)">
<path d="M219.842 166.825L219.347 166.488C218.938 166.199 218.688 165.588 218.692 164.722C218.694 164.054 218.847 163.334 219.107 162.649L219.601 162.987C219.343 163.671 219.189 164.392 219.187 165.06C219.183 165.923 219.433 166.534 219.842 166.825Z" fill="#4B3D46"/>
<path d="M219.601 162.987L219.107 162.649C219.309 162.117 219.575 161.605 219.884 161.159L220.379 161.497C220.069 161.942 219.804 162.452 219.601 162.987Z" fill="#4B3D46"/>
<path d="M220.379 161.497L219.884 161.159C220.214 160.684 220.593 160.282 220.996 160.007L221.492 160.344C221.087 160.62 220.709 161.022 220.379 161.497Z" fill="#4B3D46"/>
</g>
<path d="M221.492 160.345C222.759 159.481 223.779 160.193 223.773 161.933C223.765 163.673 222.734 165.785 221.468 166.649C220.201 167.512 219.181 166.8 219.187 165.058C219.195 163.318 220.226 161.208 221.492 160.345Z" fill="#665861"/>
<path d="M218.113 166.757C218.121 169.764 219.892 170.976 222.069 169.466C224.247 167.955 226.006 164.291 226 161.284C225.992 158.276 224.222 157.062 222.044 158.572C219.867 160.085 218.106 163.749 218.113 166.757ZM218.635 166.757C218.629 163.954 220.274 160.526 222.306 159.119C222.839 158.749 223.36 158.552 223.813 158.552C223.952 158.552 224.084 158.57 224.208 158.607C225.007 158.839 225.477 159.803 225.479 161.286C225.484 164.089 223.84 167.514 221.809 168.924C221.276 169.294 220.755 169.491 220.3 169.491C219.769 169.491 219.347 169.225 219.061 168.733C218.786 168.265 218.637 167.592 218.635 166.757Z" fill="#CACACA"/>
<path d="M175.76 171.913C171.533 171.913 167.096 170.57 163.1 167.79C156.662 163.311 152.219 155.645 150.588 146.208C148.622 134.828 150.544 121.209 156.301 105.729C161.412 91.9863 159.79 80.5098 151.967 75.0275C146.237 71.0145 138.837 71.7951 135.808 76.7333C135.42 77.3646 134.681 77.5 134.156 77.034C133.63 76.568 133.518 75.6795 133.905 75.0482C137.68 68.891 146.315 67.7821 153.155 72.5734C155.936 74.5225 159.555 78.2714 161.011 85.0738C162.357 91.3687 161.498 98.7083 158.457 106.888C143.547 146.981 159.147 161.757 164.283 165.331C173.08 171.452 184.157 169.962 188.974 162.007C189.358 161.373 190.097 161.233 190.624 161.695C191.151 162.156 191.268 163.045 190.884 163.678C187.62 169.069 181.91 171.911 175.76 171.913Z" fill="#D9D9D9"/>
<path d="M135.991 73.5902C135.731 73.8749 136.704 75.1973 137.009 75.358C138.407 76.0972 137.928 78.595 138.933 77.392C140.168 75.9135 145.526 71.143 150.261 66.331C148.401 64.7079 146.521 63.1675 144.533 61.953C141.213 66.7374 137.758 71.6595 135.991 73.5902Z" fill="#FFBFA2"/>
<path d="M127.272 82.9937C127.194 84.4975 129.077 81.2512 131.627 81.3385C132.032 81.3522 132.864 81.4693 132.761 82.181C132.557 83.5975 130.777 84.1347 130.364 85.1518C130.173 85.6201 130.378 85.9667 130.729 85.8864C130.836 85.8634 130.935 85.806 131.037 85.7624C131.357 85.6247 132.356 85.7831 134.087 84.1554C135.22 83.0901 135.989 82.6241 136.753 81.0171C136.874 80.7622 137.443 78.595 138.919 77.2612C139.122 77.0798 139.636 75.6358 138.818 74.1941C138.593 73.7946 136.822 72.5894 136.557 72.936C136.047 73.6041 135.405 74.2974 134.698 74.6418C128.305 77.7663 127.577 77.1602 127.272 82.9937Z" fill="#FFBFA2"/>
<path d="M194.983 135.973L194.981 136.669L191.002 139.447L191.004 138.753L194.983 135.973Z" fill="#FF8C00"/>
<path d="M191.004 138.753L191.002 139.447L188.405 137.644L188.407 136.949L191.004 138.753Z" fill="#FF9D00"/>
<path d="M194.983 135.973L191.004 138.753L188.407 136.949L192.385 134.171L194.983 135.973Z" fill="#FFC040"/>
<path d="M196.859 138.108L196.857 138.801L194.074 140.746V140.053L196.859 138.108Z" fill="#32272D"/>
<path d="M194.074 140.053V140.746L192.588 139.715L192.59 139.022L194.074 140.053Z" fill="#4B3D46"/>
<path d="M196.859 138.108L194.074 140.053L192.59 139.022L195.374 137.077L196.859 138.108Z" fill="#665861"/>
<path d="M199.003 139.596L199.001 140.289L196.217 142.234L196.219 141.54L199.003 139.596Z" fill="#32272D"/>
<path d="M196.219 141.54L196.217 142.234L194.733 141.205L194.735 140.51L196.219 141.54Z" fill="#4B3D46"/>
<path d="M199.003 139.596L196.219 141.541L194.734 140.51L197.517 138.565L199.003 139.596Z" fill="#665861"/>
<path d="M201.145 141.081L201.143 141.777L198.36 143.721L198.362 143.026L201.145 141.081Z" fill="#32272D"/>
<path d="M198.362 143.026L198.36 143.721L196.876 142.693L196.878 141.997L198.362 143.026Z" fill="#4B3D46"/>
<path d="M201.145 141.081L198.362 143.026L196.878 141.997L199.663 140.053L201.145 141.081Z" fill="#665861"/>
<path d="M203.29 142.571L203.288 143.264L200.503 145.209L200.505 144.515L203.29 142.571Z" fill="#32272D"/>
<path d="M200.505 144.515L200.503 145.209L199.019 144.178L199.021 143.485L200.505 144.515Z" fill="#4B3D46"/>
<path d="M203.289 142.571L200.505 144.515L199.021 143.485L201.803 141.54L203.289 142.571Z" fill="#665861"/>
<path d="M167.805 83.5124C167.585 83.1244 167.526 82.6262 167.297 82.2291C166.466 80.7965 167.28 80.0366 167.066 80.1996C165.505 81.3865 163.616 81.2557 163.376 81.3016C163.009 81.3705 162.694 81.4646 162.409 81.5794C162.419 83.0166 161.872 84.2792 161.261 85.4868C161.964 86.1548 160.625 89.3161 158.753 90.8015C157.985 91.4121 158.874 92.5761 160.593 91.7611C160.715 91.7037 160.837 91.644 160.959 91.5843C162.85 90.6454 164.604 89.4171 166.105 87.7091C166.808 86.9056 168.571 84.8692 167.805 83.5124Z" fill="#FFBFA2"/>
</svg>
