<svg width="171" height="327" viewBox="0 0 171 327" fill="none" xmlns="http://www.w3.org/2000/svg">
<path d="M78.9472 58.2072C78.523 58.3407 78.5138 58.9757 78.7844 59.2779C79.188 59.7348 81.6051 60.5899 81.3643 61.2764C80.8827 62.6587 75.489 64.7134 73.6889 65.168C69.2721 66.2832 62.0461 65.0766 65.4263 61.7965C66.2244 61.0234 69.2859 59.6012 69.6665 59.3458C70.1688 59.0085 70.4875 58.397 70.8131 57.9003C71.9781 56.122 74.8171 53.273 76.9063 53.4487C84.4189 54.0884 83.7126 59.6574 81.1006 58.8491C80.6442 58.7109 79.3898 58.0643 78.9472 58.2072Z" fill="#FFBFA2"/>
<path d="M72.6616 61.4145C75.2529 64.9546 72.5056 65.6949 71.148 66.7633C67.7839 69.4084 49.0963 81.2354 44.7277 84.4054C42.5996 85.9493 39.3157 76.0318 41.7649 72.5667C44.386 68.8555 62.6906 61.384 66.8551 60.0345C68.747 59.4206 70.7697 58.8302 72.6616 61.4145Z" fill="#F2F2F2"/>
<path d="M92.3995 69.9754C91.4615 69.9754 90.5741 69.8723 89.7485 69.6591C85.8042 68.647 83.7861 65.3083 84.2149 60.5007L85.9096 60.6576C85.5565 64.6359 87.0264 67.1662 90.1636 67.9699C93.9681 68.9468 99.63 67.1334 104.939 63.2372C111.241 58.6146 116.607 51.511 120.049 43.2382L121.615 43.9176C118.054 52.4786 112.484 59.8423 105.932 64.6476C101.242 68.094 96.3828 69.9754 92.3995 69.9754Z" fill="#4B3D46"/>
<path d="M149.262 70.4957C145.279 70.4957 140.42 68.6144 135.732 65.175C129.181 60.3674 123.61 53.006 120.049 44.445L121.615 43.7656C125.057 52.0384 130.424 59.1397 136.725 63.7646C142.034 67.6608 147.696 69.4719 151.501 68.4973C154.638 67.6913 156.108 65.1633 155.755 61.185L157.449 61.0281C157.878 65.8334 155.86 69.172 151.916 70.1865C151.088 70.3927 150.198 70.4957 149.262 70.4957Z" fill="#4B3D46"/>
<path d="M113.263 48.8356C111.082 48.8356 108.709 48.3037 106.195 47.2283C100.887 44.9581 95.4196 40.4855 91.2 34.9609C86.8498 29.2653 84.6139 23.3916 85.0634 18.8488L86.7581 19.0245C86.3521 23.1269 88.4596 28.546 92.5416 33.8925C96.5272 39.1125 101.877 43.4984 106.851 45.6258C111.007 47.4017 116.811 48.4748 120.858 43.4844L122.17 44.5949C119.888 47.4088 116.836 48.8356 113.263 48.8356Z" fill="#4B3D46"/>
<path d="M129.167 48.3832C125.594 48.3832 122.542 46.954 120.258 44.1402L121.569 43.0296C125.619 48.02 131.421 46.9493 135.576 45.171C140.55 43.0437 145.9 38.6578 149.886 33.4378C153.968 28.0913 156.078 22.6721 155.67 18.5697L157.364 18.394C157.814 22.9369 155.578 28.8105 151.228 34.5061C147.008 40.0307 141.543 44.5033 136.232 46.7736C133.723 47.849 131.348 48.3832 129.167 48.3832Z" fill="#4B3D46"/>
<path d="M98.8593 59.0012C98.8685 59.0012 95.6924 44.8875 95.6924 44.8875L76.4201 44.6439L73.2348 58.8793C72.5353 61.2597 73.7485 63.8018 76.8787 65.648C81.972 68.6539 90.207 68.668 95.2682 65.6831C98.3434 63.8674 99.5359 61.3628 98.8593 59.0012Z" fill="#FFAB00"/>
<path d="M92.8948 49.1588C89.1339 51.3775 83.0179 51.3658 79.234 49.133C75.4502 46.9002 75.4319 43.2945 79.1905 41.0758C82.9514 38.857 89.0674 38.8688 92.8513 41.1015C96.6374 43.332 96.6557 46.9401 92.8948 49.1588Z" fill="#D9D9D9"/>
<path d="M92.3581 48.8425C88.8931 50.8855 83.2563 50.8761 79.7683 48.8191C76.2803 46.762 76.2642 43.4374 79.7293 41.3921C83.1944 39.349 88.8312 39.3584 92.3192 41.4155C95.8049 43.4725 95.8232 46.7971 92.3581 48.8425Z" fill="#4B3D46"/>
<path d="M165.232 23.8201C165.241 23.8201 162.065 9.70649 162.065 9.70649L142.793 9.46283L139.608 23.6983C138.908 26.0787 140.121 28.6208 143.249 30.467C148.343 33.4729 156.578 33.487 161.639 30.5021C164.714 28.684 165.909 26.1795 165.232 23.8201Z" fill="#FFAB00"/>
<path d="M159.268 13.9777C155.507 16.1964 149.391 16.1847 145.607 13.9519C141.823 11.7191 141.803 8.11107 145.564 5.89468C149.324 3.67595 155.44 3.68767 159.224 5.92046C163.01 8.1509 163.029 11.759 159.268 13.9777Z" fill="#D9D9D9"/>
<path d="M158.731 13.659C155.266 15.702 149.629 15.6926 146.141 13.6356C142.653 11.5785 142.637 8.2539 146.102 6.20854C149.567 4.16319 155.204 4.17491 158.692 6.23198C162.178 8.29139 162.196 11.616 158.731 13.659Z" fill="#4B3D46"/>
<path d="M101.545 23.8201C101.554 23.8201 98.3779 9.70649 98.3779 9.70649L79.1056 9.46283L75.9203 23.6983C75.2209 26.0787 76.434 28.6208 79.5643 30.467C84.6575 33.4729 92.8925 33.487 97.9537 30.5021C101.029 28.684 102.221 26.1795 101.545 23.8201Z" fill="#FFAB00"/>
<path d="M95.5803 13.9777C91.8194 16.1964 85.7033 16.1847 81.9195 13.9519C78.1356 11.7191 78.115 8.11107 81.8759 5.89468C85.6368 3.67595 91.7529 3.68767 95.5367 5.92046C99.3228 8.1509 99.3412 11.759 95.5803 13.9777Z" fill="#D9D9D9"/>
<path d="M95.0434 13.659C91.5783 15.702 85.9416 15.6926 82.4536 13.6356C78.9656 11.5785 78.9495 8.2539 82.4146 6.20854C85.8797 4.16319 91.5164 4.17491 95.0044 6.23198C98.4901 8.29139 98.5085 11.616 95.0434 13.659Z" fill="#4B3D46"/>
<path d="M170.817 59.0012C170.826 59.0012 167.65 44.8875 167.65 44.8875L148.377 44.6439L145.192 58.8793C144.493 61.2597 145.706 63.8018 148.836 65.648C153.929 68.6539 162.162 68.668 167.225 65.6831C170.301 63.8674 171.493 61.3628 170.817 59.0012Z" fill="#FFAB00"/>
<path d="M164.852 49.1588C161.091 51.3775 154.975 51.3658 151.191 49.133C147.407 46.9002 147.387 43.2945 151.148 41.0758C154.909 38.857 161.025 38.8688 164.808 41.1015C168.595 43.332 168.613 46.9401 164.852 49.1588Z" fill="#D9D9D9"/>
<path d="M164.315 48.8425C160.85 50.8855 155.213 50.8761 151.725 48.8191C148.237 46.762 148.221 43.4374 151.686 41.3921C155.152 39.349 160.788 39.3584 164.276 41.4155C167.764 43.4725 167.78 46.7971 164.315 48.8425Z" fill="#4B3D46"/>
<mask id="mask0_9_4366" style="mask-type:luminance" maskUnits="userSpaceOnUse" x="107" y="42" width="28" height="11">
<path d="M134.187 42.4231L134.18 44.7871C134.175 46.795 132.882 48.8028 130.3 50.3351C125.101 53.4207 116.648 53.423 111.417 50.3374C108.785 48.7841 107.471 46.7481 107.477 44.7121L107.484 42.3481C107.477 44.3841 108.794 46.4201 111.424 47.9734C116.655 51.0591 125.108 51.0591 130.307 47.9711C132.886 46.4365 134.18 44.431 134.187 42.4231Z" fill="white"/>
</mask>
<g mask="url(#mask0_9_4366)">
<path d="M134.187 42.423L134.18 44.787C134.18 44.8269 134.18 44.8667 134.178 44.9065L134.185 42.5425C134.185 42.5027 134.184 42.4629 134.187 42.423Z" fill="#2C2329"/>
<path d="M134.184 42.5426L134.177 44.9066C134.171 45.169 134.141 45.4291 134.09 45.6891L134.097 43.3251C134.148 43.0651 134.175 42.8027 134.184 42.5426Z" fill="#2D252A"/>
<path d="M134.097 43.3251L134.09 45.6891C134.04 45.9468 133.969 46.2022 133.875 46.4576L133.882 44.0936C133.973 43.8382 134.047 43.5829 134.097 43.3251Z" fill="#2F262B"/>
<path d="M133.879 44.0936L133.872 46.4576C133.776 46.72 133.657 46.9777 133.517 47.2331L133.524 44.8691C133.666 44.6137 133.785 44.3537 133.879 44.0936Z" fill="#30272D"/>
<path d="M133.524 44.8693L133.517 47.2332C133.363 47.5097 133.184 47.7815 132.98 48.0486L132.987 45.6846C133.194 45.4175 133.372 45.1434 133.524 44.8693Z" fill="#32282E"/>
<path d="M132.987 45.682L132.98 48.046C132.74 48.3576 132.464 48.6622 132.153 48.955L132.159 46.5911C132.471 46.2982 132.747 45.9936 132.987 45.682Z" fill="#332930"/>
<path d="M132.159 46.5935L132.152 48.9575C131.673 49.4097 131.111 49.8384 130.462 50.2367L130.469 47.8727C131.116 47.4744 131.68 47.0433 132.159 46.5935Z" fill="#352B31"/>
<path d="M130.469 47.8727L130.463 50.2367C130.41 50.2695 130.355 50.3023 130.3 50.3351C129.408 50.8646 128.422 51.3028 127.371 51.6495L127.378 49.2855C128.428 48.9388 129.415 48.4983 130.304 47.9711C130.362 47.9383 130.414 47.9055 130.469 47.8727Z" fill="#362C32"/>
<path d="M127.378 49.2856L127.371 51.6496C126.562 51.9167 125.713 52.1322 124.844 52.2915L124.851 49.9275C125.72 49.7682 126.568 49.5527 127.378 49.2856Z" fill="#352B31"/>
<path d="M124.851 49.9274L124.844 52.2914C124.284 52.3945 123.716 52.4741 123.14 52.5327L123.147 50.1687C123.72 50.1125 124.291 50.0305 124.851 49.9274Z" fill="#332930"/>
<path d="M123.147 50.1711L123.14 52.5351C122.649 52.5843 122.156 52.6194 121.659 52.6358L121.665 50.2718C122.161 50.2531 122.656 50.2203 123.147 50.1711Z" fill="#32282E"/>
<path d="M121.666 50.272L121.659 52.636C121.205 52.6524 120.746 52.6548 120.292 52.6431L120.299 50.2791C120.755 50.2908 121.211 50.2884 121.666 50.272Z" fill="#30272D"/>
<path d="M120.299 50.2789L120.292 52.6429C119.852 52.6311 119.414 52.6077 118.978 52.5702L118.985 50.2062C119.42 50.2437 119.858 50.2671 120.299 50.2789Z" fill="#2F262B"/>
<path d="M118.985 50.2063L118.978 52.5702C118.542 52.5328 118.109 52.4836 117.68 52.4227L117.687 50.0587C118.116 50.1196 118.549 50.1688 118.985 50.2063Z" fill="#2D252A"/>
<path d="M117.687 50.0587L117.68 52.4227C117.233 52.3571 116.793 52.2798 116.357 52.1884L116.364 49.8244C116.8 49.9158 117.24 49.9931 117.687 50.0587Z" fill="#2C2329"/>
<path d="M116.364 49.8221L116.357 52.1861C115.884 52.0853 115.419 51.9705 114.965 51.837L114.972 49.473C115.426 49.6065 115.891 49.7237 116.364 49.8221Z" fill="#2A2227"/>
<path d="M114.969 49.4752L114.962 51.8392C114.405 51.6775 113.864 51.4901 113.341 51.2792L113.348 48.9152C113.871 49.1261 114.414 49.3112 114.969 49.4752Z" fill="#292126"/>
<path d="M113.35 48.9158L113.344 51.2798C112.665 51.0056 112.02 50.6917 111.417 50.3356C108.785 48.7822 107.471 46.7462 107.477 44.7102L107.484 42.3463C107.477 44.3822 108.794 46.4182 111.424 47.9716C112.025 48.3277 112.672 48.6416 113.35 48.9158Z" fill="#272024"/>
</g>
<path d="M130.244 36.7977C135.475 39.8833 135.503 44.8854 130.306 47.971C125.108 51.0566 116.657 51.059 111.424 47.9734C106.193 44.8878 106.166 39.8857 111.364 36.7977C116.558 33.7121 125.014 33.7121 130.244 36.7977Z" fill="#41353C"/>
<mask id="mask1_9_4366" style="mask-type:luminance" maskUnits="userSpaceOnUse" x="109" y="38" width="24" height="13">
<path d="M132.111 38.8476L132.098 43.5733C132.093 45.2695 131.001 46.9635 128.821 48.2591C124.434 50.8644 117.295 50.8644 112.876 48.2591C110.654 46.9471 109.544 45.2274 109.548 43.5077L109.562 38.782C109.557 40.4994 110.667 42.2214 112.889 43.5335C117.309 46.1388 124.445 46.1388 128.834 43.5335C131.015 42.2378 132.107 40.5439 132.111 38.8476Z" fill="white"/>
</mask>
<g mask="url(#mask1_9_4366)">
<path d="M132.111 38.8479L132.098 43.5735C132.098 43.6063 132.098 43.6415 132.095 43.6743L132.109 38.9487C132.111 38.9135 132.111 38.8807 132.111 38.8479Z" fill="#2C2329"/>
<path d="M132.111 38.9485L132.098 43.6741C132.091 43.8944 132.066 44.1146 132.024 44.3348L132.038 39.6092C132.079 39.3889 132.105 39.1687 132.111 38.9485Z" fill="#2D252A"/>
<path d="M132.036 39.6092L132.022 44.3348C131.978 44.5527 131.919 44.7683 131.841 44.9838L131.854 40.2582C131.932 40.0426 131.994 39.8271 132.036 39.6092Z" fill="#2F262B"/>
<path d="M131.855 40.2581L131.841 44.9837C131.761 45.2039 131.66 45.4242 131.54 45.6374L131.554 40.9117C131.673 40.6962 131.774 40.4783 131.855 40.2581Z" fill="#30272D"/>
<path d="M131.554 40.9119L131.54 45.6375C131.412 45.8718 131.261 46.1014 131.086 46.3263L131.1 41.6007C131.274 41.3758 131.426 41.1462 131.554 40.9119Z" fill="#32282E"/>
<path d="M131.1 41.6006L131.086 46.3262C130.884 46.5886 130.65 46.8463 130.387 47.0947L130.4 42.3691C130.664 42.1207 130.898 41.863 131.1 41.6006Z" fill="#332930"/>
<path d="M130.401 42.369L130.387 47.0947C129.983 47.4765 129.506 47.8373 128.958 48.1747L128.972 43.4491C129.52 43.1117 129.997 42.7509 130.401 42.369Z" fill="#352B31"/>
<path d="M128.972 43.4493L128.958 48.1749C128.912 48.203 128.867 48.2312 128.821 48.2569C128.069 48.7044 127.236 49.0723 126.351 49.3675L126.365 44.6418C127.25 44.349 128.085 43.9788 128.835 43.5313C128.883 43.5032 128.929 43.4774 128.972 43.4493Z" fill="#362C32"/>
<path d="M126.365 44.6415L126.351 49.3672C125.667 49.5944 124.952 49.7748 124.216 49.9107L124.23 45.1851C124.963 45.0492 125.681 44.8688 126.365 44.6415Z" fill="#352B31"/>
<path d="M124.23 45.1853L124.216 49.9109C123.744 49.9976 123.262 50.0656 122.778 50.1148L122.792 45.3891C123.278 45.3399 123.757 45.272 124.23 45.1853Z" fill="#332930"/>
<path d="M122.792 45.3892L122.778 50.1149C122.363 50.157 121.945 50.1852 121.528 50.1992L121.542 45.4736C121.959 45.4595 122.377 45.4314 122.792 45.3892Z" fill="#32282E"/>
<path d="M121.542 45.4736L121.528 50.1992C121.143 50.2133 120.757 50.2156 120.372 50.2039L120.386 45.4783C120.771 45.49 121.157 45.4876 121.542 45.4736Z" fill="#30272D"/>
<path d="M120.386 45.4804L120.372 50.2061C120.001 50.1967 119.632 50.1756 119.262 50.1451L119.276 45.4195C119.645 45.45 120.015 45.471 120.386 45.4804Z" fill="#2F262B"/>
<path d="M119.276 45.4196L119.262 50.1453C118.895 50.1148 118.528 50.0726 118.166 50.0211L118.18 45.2955C118.542 45.347 118.909 45.3892 119.276 45.4196Z" fill="#2D252A"/>
<path d="M118.18 45.2929L118.166 50.0185C117.79 49.9646 117.416 49.899 117.049 49.8194L117.063 45.0938C117.43 45.1734 117.804 45.239 118.18 45.2929Z" fill="#2C2329"/>
<path d="M117.063 45.0961L117.049 49.8217C116.65 49.7374 116.258 49.639 115.873 49.5265L115.887 44.8009C116.27 44.9134 116.664 45.0118 117.063 45.0961Z" fill="#2A2227"/>
<path d="M115.887 44.8011L115.873 49.5268C115.403 49.3886 114.944 49.2316 114.504 49.0535L114.518 44.3279C114.958 44.5059 115.417 44.6653 115.887 44.8011Z" fill="#292126"/>
<path d="M114.517 44.3281L114.504 49.0537C113.93 48.8218 113.385 48.557 112.878 48.2571C110.656 46.9451 109.546 45.2254 109.55 43.5057L109.564 38.7801C109.559 40.4974 110.669 42.2195 112.892 43.5315C113.398 43.8314 113.944 44.0985 114.517 44.3281Z" fill="#272024"/>
</g>
<path d="M128.784 34.0963C133.203 36.7016 133.223 40.9259 128.836 43.5312C124.447 46.1365 117.311 46.1365 112.892 43.5312C108.475 40.9259 108.452 36.7016 112.839 34.0963C117.226 31.491 124.367 31.491 128.784 34.0963Z" fill="#41353C"/>
<mask id="mask2_9_4366" style="mask-type:luminance" maskUnits="userSpaceOnUse" x="115" y="36" width="12" height="9">
<path d="M126.575 36.2398L126.562 40.9655C126.559 41.83 126.004 42.6922 124.894 43.3505C122.659 44.679 119.026 44.679 116.776 43.3505C115.646 42.6828 115.079 41.8089 115.084 40.9327L115.098 36.207C115.096 37.0809 115.66 37.9572 116.792 38.6249C119.04 39.951 122.675 39.951 124.908 38.6249C126.018 37.9666 126.573 37.1044 126.575 36.2398Z" fill="white"/>
</mask>
<g mask="url(#mask2_9_4366)">
<path d="M126.575 36.2401L126.562 40.9657C126.562 40.9821 126.562 41.0008 126.562 41.0172L126.575 36.2916C126.575 36.2752 126.575 36.2588 126.575 36.2401Z" fill="#2C2329"/>
<path d="M126.575 36.2913L126.562 41.017C126.559 41.1294 126.546 41.2419 126.525 41.3543L126.539 36.6287C126.559 36.5162 126.571 36.4038 126.575 36.2913Z" fill="#2D252A"/>
<path d="M126.536 36.6288L126.523 41.3545C126.502 41.4646 126.47 41.5747 126.431 41.6848L126.445 36.9592C126.486 36.8491 126.516 36.739 126.536 36.6288Z" fill="#2F262B"/>
<path d="M126.445 36.9591L126.431 41.6847C126.39 41.7972 126.339 41.9073 126.277 42.0174L126.291 37.2918C126.353 37.1817 126.403 37.0716 126.445 36.9591Z" fill="#30272D"/>
<path d="M126.291 37.2917L126.277 42.0174C126.211 42.1369 126.135 42.254 126.046 42.3688L126.06 37.6432C126.149 37.526 126.227 37.4112 126.291 37.2917Z" fill="#32282E"/>
<path d="M126.062 37.6406L126.048 42.3663C125.945 42.4998 125.826 42.631 125.693 42.7575L125.706 38.0319C125.839 37.9054 125.959 37.7765 126.062 37.6406Z" fill="#332930"/>
<path d="M125.704 38.0322L125.69 42.7578C125.484 42.9523 125.243 43.135 124.963 43.3084L124.977 38.5827C125.257 38.4117 125.5 38.2266 125.704 38.0322Z" fill="#352B31"/>
<path d="M124.979 38.5828L124.966 43.3084C124.943 43.3225 124.92 43.3365 124.894 43.3506C124.512 43.5778 124.087 43.7676 123.635 43.9176L123.649 39.1919C124.101 39.042 124.525 38.8545 124.908 38.6273C124.931 38.6109 124.956 38.5968 124.979 38.5828Z" fill="#362C32"/>
<path d="M123.649 39.1893L123.636 43.915C123.287 44.0298 122.922 44.1235 122.549 44.1914L122.562 39.4658C122.936 39.3978 123.301 39.3065 123.649 39.1893Z" fill="#352B31"/>
<path d="M122.562 39.4659L122.549 44.1915C122.308 44.236 122.062 44.2712 121.817 44.2946L121.831 39.569C122.078 39.5455 122.322 39.5104 122.562 39.4659Z" fill="#332930"/>
<path d="M121.831 39.5715L121.817 44.2971C121.606 44.3182 121.393 44.3323 121.179 44.3416L121.193 39.616C121.406 39.6066 121.62 39.5926 121.831 39.5715Z" fill="#32282E"/>
<path d="M121.193 39.6134L121.179 44.339C120.984 44.3461 120.787 44.3461 120.592 44.3414L120.606 39.6158C120.801 39.6228 120.998 39.6204 121.193 39.6134Z" fill="#30272D"/>
<path d="M120.606 39.6183L120.592 44.3439C120.404 44.3392 120.214 44.3299 120.028 44.3135L120.042 39.5878C120.228 39.6019 120.418 39.6113 120.606 39.6183Z" fill="#2F262B"/>
<path d="M120.042 39.5855L120.028 44.3112C119.84 44.2948 119.654 44.2737 119.471 44.2479L119.485 39.5223C119.668 39.5504 119.854 39.5715 120.042 39.5855Z" fill="#2D252A"/>
<path d="M119.482 39.522L119.469 44.2476C119.276 44.2195 119.088 44.1867 118.9 44.1469L118.914 39.4213C119.102 39.4611 119.292 39.4939 119.482 39.522Z" fill="#2C2329"/>
<path d="M118.914 39.4214L118.9 44.1471C118.696 44.1049 118.496 44.0534 118.301 43.9971L118.315 39.2715C118.512 39.3277 118.712 39.3793 118.914 39.4214Z" fill="#2A2227"/>
<path d="M118.315 39.2713L118.301 43.997C118.063 43.9267 117.829 43.847 117.604 43.7557L117.618 39.03C117.843 39.1214 118.077 39.2011 118.315 39.2713Z" fill="#292126"/>
<path d="M117.62 39.0302L117.606 43.7559C117.315 43.6387 117.038 43.5028 116.778 43.3505C115.648 42.6828 115.081 41.8089 115.086 40.9327L115.1 36.207C115.097 37.0809 115.662 37.9572 116.794 38.6249C117.051 38.7795 117.326 38.9131 117.62 39.0302Z" fill="#272024"/>
</g>
<path d="M124.883 33.822C127.13 35.1481 127.142 37.2989 124.908 38.625C122.672 39.9511 119.04 39.9511 116.792 38.625C114.545 37.2989 114.531 35.1481 116.767 33.822C119.001 32.4959 122.633 32.4959 124.883 33.822Z" fill="#41353C"/>
<path d="M121.682 0H119.98V35.9214H121.682V0Z" fill="#4B3D46"/>
<path d="M97.3988 251.319C96.4448 251.319 95.5573 250.7 95.2431 249.723L50.5274 110.695C50.1353 109.479 50.7843 108.167 51.9767 107.769C53.1692 107.368 54.4511 108.031 54.841 109.247L99.5567 248.275C99.9489 249.491 99.2999 250.803 98.1074 251.201C97.8712 251.281 97.6327 251.319 97.3988 251.319Z" fill="#32272D"/>
<path d="M111.16 208.261C110.775 208.261 110.385 208.16 110.028 207.949L75.8974 187.816C74.8127 187.177 74.4389 185.757 75.0672 184.649C75.6933 183.538 77.083 183.159 78.1677 183.801L112.298 203.933C113.383 204.573 113.756 205.993 113.128 207.101C112.708 207.844 111.947 208.261 111.16 208.261Z" fill="#32272D"/>
<path d="M15.7964 255.325C14.9709 255.325 14.2187 254.756 14.0054 253.9C13.7554 252.891 14.354 251.862 15.3424 251.607C38.5155 245.602 61.0786 232.28 84.3228 210.885C85.0818 210.186 86.2491 210.25 86.9325 211.023C87.6159 211.798 87.5539 212.991 86.7972 213.689C63.0966 235.506 40.0221 249.104 16.2505 255.266C16.0991 255.306 15.9478 255.325 15.7964 255.325Z" fill="#4B3D46"/>
<path d="M125.36 252.792C124.975 252.792 124.585 252.692 124.227 252.481L90.0971 232.348C89.0124 231.709 88.6386 230.289 89.2669 229.181C89.893 228.07 91.2827 227.69 92.3674 228.332L126.498 248.465C127.582 249.105 127.956 250.524 127.328 251.633C126.908 252.375 126.144 252.792 125.36 252.792Z" fill="#32272D"/>
<path d="M50.3347 109.048L0.0762352 303.275C-0.244817 304.514 0.477556 305.782 1.69068 306.11C2.9015 306.435 4.14443 305.7 4.46548 304.46L54.7239 110.234C55.2239 108.301 56.0586 106.522 57.164 104.96C56.3063 103.61 55.3775 102.317 54.341 101.113C52.4835 103.388 51.103 106.075 50.3347 109.048Z" fill="#4B3D46"/>
<path d="M54.4281 283.039L54.4213 285.443L36.6946 296.178L36.7015 293.774L54.4281 283.039Z" fill="#CACACA"/>
<path d="M36.7013 293.774L36.6945 296.178L2.27075 275.469L2.27763 273.063L36.7013 293.774Z" fill="#D9D9D9"/>
<path d="M54.4282 283.039L36.7015 293.774L2.27783 273.063L20.0045 262.328L54.4282 283.039Z" fill="#F2F2F2"/>
<path d="M6.54095 270.481L2.27783 273.063L36.7015 293.774L41.3018 290.986L6.54095 270.481Z" fill="#FFC040"/>
<path d="M66.8461 239.456L66.8392 241.86L49.1102 252.595L49.1171 250.192L66.8461 239.456Z" fill="#CACACA"/>
<path d="M49.1172 250.192L49.1103 252.596L14.6866 231.887L14.6935 229.483L49.1172 250.192Z" fill="#D9D9D9"/>
<path d="M66.846 239.456L49.1171 250.192L14.6934 229.483L32.42 218.748L66.846 239.456Z" fill="#F2F2F2"/>
<path d="M18.9498 226.901L14.6866 229.483L49.1103 250.192L53.7129 247.406L18.9498 226.901Z" fill="#FFC040"/>
<path d="M77.0349 195.876L77.0281 198.28L59.2991 209.015L59.3059 206.611L77.0349 195.876Z" fill="#CACACA"/>
<path d="M59.3059 206.611L59.2991 209.015L24.8754 188.306L24.8822 185.9L59.3059 206.611Z" fill="#D9D9D9"/>
<path d="M77.035 195.876L59.306 206.611L24.8823 185.9L42.6113 175.165L77.035 195.876Z" fill="#F2F2F2"/>
<path d="M29.1385 183.318L24.8754 185.9L59.2991 206.611L63.9016 203.823L29.1385 183.318Z" fill="#FFC040"/>
<path d="M88.8588 152.293L88.8519 154.699L71.1252 165.432L71.1321 163.029L88.8588 152.293Z" fill="#CACACA"/>
<path d="M71.1321 163.029L71.1252 165.433L36.7015 144.724L36.7084 142.32L71.1321 163.029Z" fill="#D9D9D9"/>
<path d="M88.8586 152.293L71.1319 163.029L36.7083 142.32L54.4349 131.584L88.8586 152.293Z" fill="#F2F2F2"/>
<path d="M40.9647 139.768L36.7015 142.35L71.1252 163.059L75.7255 160.273L40.9647 139.768Z" fill="#FFC040"/>
<path d="M82.9192 126.939L80.6855 146.753C80.6809 148.39 79.6261 150.028 77.5209 151.277C73.283 153.793 66.3872 153.793 62.1195 151.277C59.9731 150.012 58.8999 148.348 58.9045 146.689L56.7809 126.864C56.7763 128.855 58.0628 130.851 60.6381 132.369C65.7589 135.389 74.0329 135.389 79.1193 132.369C81.6487 130.868 82.9123 128.904 82.9192 126.939Z" fill="#FFAB00"/>
<mask id="mask3_9_4366" style="mask-type:luminance" maskUnits="userSpaceOnUse" x="56" y="126" width="27" height="28">
<path d="M82.9192 126.939L80.6855 146.753C80.6809 148.39 79.6261 150.028 77.5209 151.277C73.283 153.793 66.3872 153.793 62.1195 151.277C59.9731 150.012 58.8999 148.348 58.9045 146.689L56.7809 126.864C56.7763 128.855 58.0628 130.851 60.6381 132.369C65.7589 135.389 74.0329 135.389 79.1193 132.369C81.6487 130.868 82.9123 128.904 82.9192 126.939Z" fill="white"/>
</mask>
<g mask="url(#mask3_9_4366)">
<path d="M82.9194 126.939L80.6858 146.753C80.6812 148.39 79.6264 150.028 77.5212 151.277C76.9754 151.6 76.3883 151.881 75.7668 152.122L77.0167 133.384C77.762 133.096 78.4683 132.756 79.1218 132.369C81.649 130.868 82.9126 128.904 82.9194 126.939Z" fill="#FF9D00"/>
<path d="M77.0143 133.384L75.7645 152.123C74.4482 152.631 72.9851 152.954 71.483 153.09L71.8752 134.544C73.6822 134.38 75.4365 133.993 77.0143 133.384Z" fill="#FF9D00"/>
<path d="M71.8773 134.544L71.4851 153.09C68.2585 153.383 64.8485 152.814 62.3099 151.387L60.8674 132.501C63.9128 134.213 68.0063 134.895 71.8773 134.544Z" fill="#FFAB00"/>
<path d="M60.8675 132.498L62.3099 151.384C62.2457 151.349 62.1838 151.312 62.1219 151.274C61.0464 150.639 60.2391 149.904 59.7025 149.121L57.7395 129.783C58.3816 130.722 59.3494 131.606 60.6427 132.367C60.7161 132.412 60.7918 132.456 60.8675 132.498Z" fill="#FF9D00"/>
<path d="M57.7372 129.783L59.7002 149.122C59.1682 148.341 58.9021 147.514 58.9044 146.687L56.7809 126.862C56.7809 127.855 57.0997 128.848 57.7372 129.783Z" fill="#FF9D00"/>
</g>
<path d="M79.0619 121.43C84.1804 124.45 84.208 129.347 79.1216 132.367C74.0352 135.387 65.7612 135.387 60.6404 132.367C55.5219 129.347 55.4944 124.45 60.5808 121.43C65.6672 118.413 73.9412 118.413 79.0619 121.43Z" fill="#FFC040"/>
<path d="M82.2381 126.92C82.2427 128.304 81.5158 129.642 80.1651 130.788C79.7592 131.135 79.2959 131.463 78.7799 131.77C76.4225 133.171 73.267 133.941 69.8937 133.941C66.5203 133.941 63.3534 133.168 60.9822 131.77C60.441 131.451 59.9617 131.109 59.5397 130.748C58.1913 129.6 57.4667 128.265 57.4644 126.882C57.4621 125.083 58.6912 123.361 60.9225 122.035C63.28 120.636 66.4378 119.863 69.8088 119.863C73.1822 119.863 76.3468 120.634 78.7203 122.035C80.9883 123.37 82.2381 125.104 82.2381 126.92Z" fill="#FF9D00"/>
<path d="M80.1651 130.788C79.7592 131.135 79.296 131.463 78.78 131.77C76.4226 133.171 73.2671 133.941 69.8937 133.941C66.5204 133.941 63.3534 133.168 60.9822 131.77C60.441 131.451 59.9617 131.109 59.5398 130.748C59.9457 130.404 60.4089 130.073 60.9226 129.769C63.28 128.368 66.4378 127.597 69.8089 127.597C73.1822 127.597 76.3469 128.368 78.7204 129.769C79.2616 130.083 79.7432 130.425 80.1651 130.788Z" fill="#A1E4FF"/>
<path d="M69.8522 146.605C59.8629 146.605 57.4825 135.973 56.9505 129.635C56.9161 129.237 57.2074 128.885 57.5972 128.85C57.987 128.815 58.331 129.113 58.3654 129.511C58.8539 135.352 60.998 145.155 69.8522 145.155C78.7087 145.155 80.8506 135.354 81.339 129.511C81.3734 129.113 81.7174 128.815 82.1073 128.85C82.4971 128.885 82.7861 129.235 82.754 129.635C82.2219 135.973 79.8392 146.605 69.8522 146.605Z" fill="#4B3D46"/>
<path d="M50.9539 276.561C50.1283 276.561 49.3761 275.992 49.1629 275.136C48.9129 274.127 49.5114 273.098 50.4998 272.843C73.6729 266.838 96.236 253.516 119.48 232.121C120.239 231.423 121.407 231.486 122.09 232.259C122.773 233.034 122.711 234.227 121.955 234.925C98.2541 256.742 75.1796 270.34 51.4079 276.502C51.2566 276.542 51.1052 276.561 50.9539 276.561Z" fill="#4B3D46"/>
<path d="M79.7569 96.4619C74.2876 93.2686 67.8207 92.8633 62.0096 95.3467C58.9757 96.6447 56.3729 98.6315 54.3411 101.115C55.3776 102.319 56.3064 103.612 57.164 104.962C58.8129 102.631 61.0694 100.78 63.7617 99.6272C68.261 97.7037 73.2694 98.0176 77.5027 100.489C85.0658 104.906 88.7923 113.999 86.5656 122.602L74.0422 170.999C75.4847 171.594 76.8422 172.384 78.1654 173.213L90.9548 123.787C93.7067 113.155 89.1019 101.919 79.7569 96.4619Z" fill="#4B3D46"/>
<path d="M131.978 270.329C131.024 270.329 130.137 269.71 129.823 268.733L85.1069 129.705C84.7148 128.489 85.3638 127.177 86.5539 126.779C87.7464 126.378 89.0284 127.041 89.4182 128.257L134.134 267.285C134.526 268.501 133.877 269.813 132.687 270.212C132.451 270.291 132.212 270.329 131.978 270.329Z" fill="#4B3D46"/>
<path d="M51.5892 195.597C52.0524 194.899 52.5271 195.269 53.1646 195.274C53.9604 195.279 54.7974 194.951 55.506 194.613C56.4187 194.178 57.2626 193.604 58.1387 193.095C60.4113 191.776 62.92 190.883 65.5022 190.48C66.6649 190.3 67.9812 190.239 69.0934 190.675C69.9465 191.01 70.7973 191.406 71.4692 192.039C71.9966 192.533 72.4117 193.194 72.5356 193.922C72.6525 194.609 72.4232 195.365 72.2695 196.031C72.1228 196.659 71.9256 197.28 71.5999 197.833C70.9463 198.948 69.841 199.697 68.7449 200.353C67.479 201.11 66.1489 201.806 64.7087 202.092C63.5323 202.324 62.3054 202.277 61.1611 202.643C60.3906 202.889 59.6912 203.313 59.0468 203.798C58.5354 204.182 58.0767 204.737 57.4575 204.929C56.1733 205.327 54.724 205.524 53.4031 205.234C50.8003 204.657 49.14 202.443 49.8142 199.726C50.055 198.751 50.4976 197.842 50.9356 196.942C51.2154 196.371 51.3805 195.914 51.5892 195.597Z" fill="#261D22"/>
<path d="M22.4925 220.027C22.7952 219.242 23.3387 219.497 23.9625 219.359C24.7399 219.188 25.4875 218.682 26.1067 218.195C26.9047 217.567 27.6064 216.819 28.354 216.128C30.2895 214.336 32.5506 212.909 34.9861 211.944C36.5569 211.318 38.2241 210.824 39.8798 211.428C40.8063 211.768 41.6273 212.396 42.212 213.202C42.783 213.987 42.7876 214.915 42.7739 215.856C42.7647 216.503 42.7051 217.152 42.5056 217.766C42.1042 218.998 41.1847 219.975 40.2536 220.859C39.1781 221.88 38.0292 222.855 36.683 223.452C35.5846 223.939 34.376 224.167 33.3372 224.776C32.6378 225.186 32.0461 225.755 31.5187 226.371C31.1013 226.861 30.7711 227.503 30.207 227.829C29.0374 228.501 27.6661 229.017 26.3131 229.026C23.6506 229.04 21.5615 227.25 21.6394 224.446C21.667 223.44 21.9055 222.456 22.1417 221.479C22.2907 220.866 22.3549 220.381 22.4925 220.027Z" fill="#261D22"/>
<path d="M36.7565 152.087C36.768 151.265 36.651 150.717 35.619 150.389C32.6952 149.461 29.7415 148.493 26.7649 147.755C24.9991 147.317 23.2264 147.017 21.4377 146.98L17.5438 143.393C17.0645 146.851 16.7779 150.368 17.1677 153.837C18.0139 161.398 19.9494 178.843 20.4539 187.163C20.7956 192.802 20.8025 198.456 20.8369 204.102C20.869 209.629 21.3001 215.163 21.6968 220.674C21.7863 221.911 21.8963 223.216 22.7838 224.129C23.653 225.027 24.9807 225.573 26.187 225.72C28.1362 225.957 30.1634 225.207 31.5531 223.792C32.4337 222.895 32.3993 221.128 32.5324 219.935C32.6539 218.853 32.7112 217.764 32.7502 216.672C32.8649 213.53 32.8672 210.383 32.9681 207.239C33.0759 203.922 33.2479 200.604 33.4703 197.294C33.6194 195.119 33.7867 192.945 33.9725 190.773C34.0757 189.574 34.1835 188.377 34.2958 187.179C34.6375 183.808 35.165 180.451 35.4883 177.032C36.0892 170.645 36.4744 164.238 36.6418 157.823C36.6831 156.22 36.7129 154.615 36.7267 153.013C36.7336 152.673 36.7519 152.366 36.7565 152.087Z" fill="#275EBE"/>
<path d="M37.4122 133.595C34.5021 133.71 31.4017 140.216 29.7115 142.111C28.1499 143.861 26.5079 145.532 24.8338 147.17C24.0931 147.896 23.2836 148.976 22.403 149.51C21.6371 149.974 17.7821 144.311 16.9841 144.801C16.3581 145.183 15.3284 153.074 20.1212 156.127C28.5191 161.475 38.9074 161.883 47.0232 167.611C50.4355 170.02 53.2447 173.202 56.43 175.919C56.8244 176.254 57.2303 176.589 57.705 176.789C58.526 177.135 59.457 177.046 60.3285 176.875C63.4725 176.264 62.5208 174.53 63.3234 171.06C63.9265 168.455 67.9764 168.101 67.4077 165.486C66.5707 161.646 66.5202 161.15 64.6581 159.268C57.556 152.094 47.6056 142.488 40.4232 135.359C39.7054 134.647 38.9372 133.911 37.9672 133.656C37.7837 133.607 37.598 133.588 37.4122 133.595Z" fill="#3574E0"/>
<path d="M53.2216 105.419C53.2927 106.356 53.1391 108.188 52.2424 108.802C51.504 109.308 49.885 109.123 49.0457 109.203C46.4084 109.451 43.7712 109.624 41.1363 109.798C39.9392 109.877 38.7445 109.955 37.5497 109.997C34.0456 110.109 30.5599 109.875 27.1476 109.296C25.8221 109.074 23.6229 108.748 22.568 107.849C21.5223 106.958 21.426 105.515 21.6003 104.076C21.9122 101.511 23.1551 98.9923 25.5446 98.013C27.9411 97.029 30.3123 97.4484 32.688 97.76C38.1826 98.4769 43.6107 99.5523 48.9333 100.979C49.8827 101.235 50.8435 101.506 51.6347 102.092C52.5428 102.757 53.1184 104.06 53.2216 105.419Z" fill="white"/>
<path d="M88.5031 53.559C88.5123 52.7366 89.4502 52.3149 90.2253 52.097C89.785 50.6444 89.902 49.0231 90.5441 47.6548C90.7528 47.212 91.083 46.7481 91.5623 46.706C92.1035 46.6591 92.514 47.1558 92.9635 47.4651C93.6881 47.9665 94.6972 47.9946 95.447 47.5354C95.6787 47.3925 95.908 47.2027 96.1809 47.205C96.6578 47.2097 96.9055 47.7626 97.1188 48.1984C97.7723 49.5315 99.0703 50.4242 99.8202 51.7034C100.559 52.9639 100.694 54.5711 100.183 55.9417C101.143 56.2861 101.474 57.6145 101.072 58.5704C100.671 59.5263 99.7698 60.1589 98.8593 60.6252C97.7563 61.1921 96.5753 61.5951 95.3599 61.8247C95.5502 60.3557 94.1995 58.8914 92.7525 59.0015C92.5071 59.0203 92.248 59.0742 92.0186 58.9804C91.2596 58.6641 91.4293 56.593 90.833 55.8644C90.223 55.1147 88.4894 54.7304 88.5031 53.559Z" fill="#BFBFBF"/>
<path d="M93.0345 56.6164C92.8969 57.0498 92.2754 57.0475 91.9842 56.764C91.5439 56.3446 90.7481 53.8611 90.0716 54.0954C88.7118 54.564 86.6112 60.0394 86.1342 61.8715C84.9692 66.3629 86.0287 73.7664 89.2943 70.3669C90.0648 69.5656 91.5072 66.4613 91.7641 66.0747C92.1035 65.5686 92.7066 65.2523 93.1973 64.929C94.9585 63.7669 97.793 60.9156 97.6554 58.7789C97.1555 51.0942 91.693 51.7221 92.4383 54.4047C92.569 54.8756 93.1813 56.1666 93.0345 56.6164Z" fill="#FFBFA2"/>
<path d="M14.7826 89.2436C13.8928 94.1145 14.5945 102.83 24.1642 97.09C29.9592 93.6155 39.6527 87.9972 45.2115 84.108C51.5179 79.694 50.6763 75.2588 48.3922 72.9956C45.3009 69.9287 42.7577 72.0819 42.2486 72.2693C26.212 78.15 15.4751 85.4551 14.7826 89.2436Z" fill="#F2F2F2"/>
<path d="M31.8121 145.124H51.4009C50.541 134.883 50.3896 124.568 51.3918 114.343C51.7839 110.353 52.3526 106.361 52.2907 102.343C52.2884 102.256 52.2884 102.169 52.2861 102.085C52.2517 100.609 52.2494 98.8941 51.4124 97.6101C50.6785 96.4856 49.2544 95.9022 48.1766 95.1993C44.5579 92.8353 40.6801 90.886 36.6394 89.3959C30.4866 87.1327 24.2078 82.5218 17.6445 86.308C16.9772 86.6945 16.342 87.1491 15.7939 87.6973C9.42331 94.0372 15.6403 108.971 17.1079 120.903C17.6033 124.935 17.6652 132.489 17.7248 137.585C17.7661 141.092 17.1836 140.516 16.7387 144.004C16.4635 146.157 16.2296 148.514 17.3831 150.337C18.626 152.301 21.0638 153.006 23.2951 153.528C26.0859 154.182 28.9433 154.784 31.8121 155.178V145.124Z" fill="#F2F2F2"/>
<path d="M23.3663 84.8763C22.238 84.8365 21.1052 84.9583 19.9609 85.3004C19.2706 102.605 22.0661 119.383 25.6802 136.994C26.9759 143.048 28.033 149.597 30.817 155.028C32.1563 155.234 33.4978 155.393 34.8371 155.498C33.0437 152.905 31.8169 150.009 31.3536 146.851C27.423 125.617 21.8275 105.803 23.3663 84.8763Z" fill="#3574E0"/>
<path d="M51.9194 109.308C50 109.351 48.0829 109.639 46.1634 109.91C45.0237 114.889 47.0211 121.161 45.2576 126.561C41.1504 138.365 28.6798 139.963 17.7251 137.583C17.4705 139.757 17.0004 141.961 16.739 144.002C16.4638 146.155 16.2299 148.512 17.3834 150.335C18.6263 152.298 20.5778 154.786 22.8092 155.309C26.8109 156.248 31.4065 157.79 35.5137 158.048C39.7928 158.317 44.0651 155.468 48.0829 153.966C49.484 153.442 50.9586 152.659 51.5159 151.244C51.8828 150.314 51.7841 149.269 51.6855 148.271C50.5825 136.999 50.2889 125.615 51.3943 114.346C51.5571 112.666 51.752 110.988 51.9194 109.308Z" fill="#3574E0"/>
<path d="M47.0484 94.4801C41.0723 98.053 41.0723 100.907 44.3333 105.414C46.5096 108.411 51.1625 110.028 56.7144 105.55C65.1237 98.7723 77.1792 92.7065 77.3535 86.0644C77.4017 84.2064 76.5119 82.3485 75.0442 81.2497C71.4874 78.5835 69.2148 81.1536 68.7126 81.3926C51.5753 89.5201 50.0526 93.1493 47.0484 94.4801Z" fill="#F2F2F2"/>
<path d="M89.682 63.5304C90.4823 63.9966 91.8766 65.1564 91.8697 66.2599C91.8651 67.1689 90.8033 68.4318 90.3974 69.1838C89.1155 71.5525 87.774 73.8767 86.4325 76.2008C85.8225 77.2551 85.2148 78.3094 84.5727 79.3427C82.6945 82.365 80.5434 85.1788 78.1562 87.7349C77.2297 88.7283 75.73 90.4035 74.4068 90.7877C73.0996 91.1696 71.875 90.441 70.811 89.4851C68.9099 87.7771 67.5706 85.3124 68.121 82.7422C68.6714 80.165 70.3454 78.3985 71.9347 76.5663C75.6061 72.328 79.5298 68.3474 83.676 64.6527C84.4144 63.9943 85.1781 63.3359 86.0954 62.9962C87.1457 62.6096 88.5239 62.8533 89.682 63.5304Z" fill="#F2F2F2"/>
<path d="M38.2837 83.9346C38.5222 82.2734 39.749 82.66 39.1299 81.1535C38.6024 79.8743 37.7998 78.6958 36.7266 77.8477C35.651 76.9996 34.2934 76.4958 32.9381 76.5732C32.4703 76.5989 32.1584 76.873 31.6952 76.8754C30.4156 76.8801 29.1268 76.6294 27.8494 76.8192C26.579 77.0066 25.4026 77.1026 25.4049 78.567C25.4049 80.5233 25.492 82.4023 24.8797 84.3235C24.5541 85.3497 24.0564 86.3384 23.9693 87.4161C23.7973 89.5318 25.3085 91.5021 27.1798 92.4276C29.4799 93.5639 32.0782 93.4608 34.5251 93.0977C35.7519 92.9173 37.481 92.6642 38.2011 91.4717C38.7423 90.5697 38.5107 89.3888 38.3937 88.4048C38.2171 86.9077 38.0681 85.434 38.2837 83.9346Z" fill="#FFBFA2"/>
<path d="M43.739 62.6797C44.5118 63.6403 45.1149 64.718 45.2984 65.9856C45.7112 68.8064 44.599 71.7046 45.1998 74.5043C45.78 77.2151 44.6425 83.3746 39.4094 84.9514C36.7607 85.7503 31.5367 84.8155 29.8535 83.9931C27.597 82.8896 26.1087 80.6545 24.774 78.492C13.8399 60.7562 36.325 53.4604 43.739 62.6797Z" fill="#FFBFA2"/>
<path d="M21.5773 59.1935C22.1071 58.6382 22.7583 58.1579 23.5495 57.7807C23.7903 57.6659 24.0449 57.5605 24.2168 57.3519C24.343 57.1973 24.4072 57.0005 24.492 56.8178C24.8635 56.0001 25.6088 55.4238 26.3794 54.9856C29.2941 53.3269 32.8325 53.2472 36.1348 53.7322C37.2516 53.8962 38.3684 54.1211 39.4049 54.5756C40.5859 55.0934 41.6316 55.8947 42.5765 56.785C43.9134 58.0431 45.1816 59.5238 45.8764 61.2623C46.1975 62.0706 46.264 62.9257 46.491 63.7457C46.6974 64.4838 46.4451 65.353 45.8443 65.8239C45.5852 66.0254 45.2802 66.1543 45.0096 66.3417C43.8997 67.1055 43.6933 68.8697 43.214 70.0646C42.9113 70.819 42.3127 71.2313 42.1407 72.042C41.9619 72.8854 41.9779 73.7663 41.7165 74.5934C41.5927 74.9846 41.3358 75.4087 40.9322 75.4345C40.7671 75.4439 40.602 75.3829 40.4598 75.2939C39.9943 74.9987 39.7512 74.4434 39.5976 73.9046C39.4439 73.3657 39.3453 72.7987 39.0518 72.3231C39.0105 72.2528 38.9577 72.1825 38.8821 72.1521C38.8201 72.1286 38.7513 72.1333 38.6871 72.1474C38.1253 72.2599 37.7561 72.6839 37.4878 73.1713C37.1644 73.7593 36.9902 74.4153 36.8182 75.069C36.5499 76.0905 36.5154 76.9574 36.3893 77.9742C36.2632 79.0051 35.9765 80.1062 35.2702 80.8864C33.6833 82.6366 30.6287 82.5382 28.5625 82.0696C27.8149 81.9009 27.0628 81.7205 26.3725 81.3808C24.7787 80.5959 23.694 79.059 22.6781 77.5806C21.7493 76.2287 20.8091 74.8488 20.3207 73.2743C20.0455 72.3864 19.917 71.4586 19.7932 70.5378C19.2841 66.8009 18.9011 62.0073 21.5773 59.1935Z" fill="#C99C83"/>
<path d="M37.8225 70.4581C35.7678 70.0013 34.8574 72.5551 35.9879 74.8042C36.3181 75.4603 36.9786 76.0975 37.4533 76.6528C40.7051 80.4506 42.1475 77.0909 41.1225 75.8093C38.749 72.8362 40.407 71.0322 37.8225 70.4581Z" fill="#FFBFA2"/>
<path d="M37.8683 74.5535C37.6619 74.2934 35.5017 72.5105 37.256 71.7819C37.7399 71.5804 38.1802 72.056 38.1779 72.5503C38.1779 72.8057 38.0632 73.0494 38.0632 73.3071C38.0632 73.457 38.1045 73.607 38.1618 73.7475C38.3201 74.1294 38.9897 74.5723 38.7764 75.0643C38.5861 75.493 37.9876 74.7034 37.8683 74.5535Z" fill="#F3A984"/>
<path d="M68.3204 172.784C68.2745 172.899 68.2309 173.012 68.1897 173.126C66.1968 178.431 64.7429 183.916 63.0047 189.304C61.8489 192.891 59.2919 202.72 55.21 202.661C53.1873 202.633 49.376 201.808 48.9151 199.922C47.1905 192.884 53.1231 172.51 54.8545 166.775C55.2902 165.329 55.2811 165.913 55.687 164.46C56.0103 163.296 56.0631 161.492 56.8175 160.519C58.2646 158.654 56.8863 152.863 58.276 153.875C60.2964 155.346 67.7906 161.822 69.2652 163.816C70.7351 165.81 69.0725 170.863 68.3204 172.784Z" fill="#3574E0"/>
<path d="M34.5985 323.435C34.2774 324.675 34.9998 325.942 36.2129 326.27C36.4078 326.322 36.6027 326.348 36.7954 326.348C37.7998 326.348 38.7194 325.661 38.9877 324.621L78.1653 173.211C76.8421 172.384 75.4845 171.592 74.0421 170.997L34.5985 323.435Z" fill="#4B3D46"/>
<path d="M18.7227 141.249C25.4648 126.662 31.0809 107.108 47.0486 94.4798C45.7988 93.7043 44.5192 92.9804 43.2144 92.3033C30.6383 104.512 22.5844 120.191 17.7182 136.999C17.7205 137.196 17.7228 137.39 17.7251 137.58C17.7572 140.387 17.3926 140.581 17.0165 142.331C18.2525 142.709 18.3557 142.043 18.7227 141.249Z" fill="#3574E0"/>
</svg>
