<svg width="157" height="245" viewBox="0 0 157 245" fill="none" xmlns="http://www.w3.org/2000/svg">
<path d="M62.826 242.132L20.2418 218.823V143.889L62.826 167.2V242.132Z" fill="#BFBFBF"/>
<path d="M21.7085 218.021V146.297L61.3597 168.004V239.726L21.7085 218.021Z" fill="#CACACA"/>
<path d="M62.826 167.2L20.2418 143.889L76.3891 113.156L118.973 136.467L62.826 167.2Z" fill="#2F2F31"/>
<path d="M118.973 136.467V211.398L62.8259 242.132V167.2L118.973 136.467Z" fill="#2F2F31"/>
<path d="M67.4047 244.631L63.2698 242.389V228.763L67.4047 231.005V244.631Z" fill="#CACACA"/>
<path d="M67.4047 231.005L63.2698 228.763L119.417 198.027L123.552 200.269L67.4047 231.005Z" fill="#FAFAFA"/>
<path d="M123.552 200.269V213.895L67.4047 244.631V231.005L123.552 200.269Z" fill="#D9D9D9"/>
<path d="M67.4047 230.279L63.2698 228.037V184.724L67.4047 186.966V230.279Z" fill="#2F2F31"/>
<path d="M67.4047 186.966L63.2698 184.724L119.417 153.989L123.552 156.231L67.4047 186.966Z" fill="#3E4044"/>
<path d="M123.552 156.231V199.544L67.4047 230.279V186.966L123.552 156.231Z" fill="#272727"/>
<path d="M79.0467 180.592C75.1457 186.647 71.2817 192.72 67.4047 198.773V206.096C73.6377 196.259 79.8882 186.44 86.1976 176.676L79.0467 180.592Z" fill="#2F2F31"/>
<path d="M95.604 171.529C85.9332 186.657 76.6143 202.049 67.4047 217.65V230.277L71.6095 227.975C82.8998 205.605 95.8706 184.21 110.033 163.63L95.604 171.529Z" fill="#2F2F31"/>
<path d="M67.4047 186.158L63.2698 183.918V167.457L67.4047 169.699V186.158Z" fill="#CACACA"/>
<path d="M67.4047 169.699L63.2698 167.457L119.417 136.722L123.552 138.964L67.4047 169.699Z" fill="#2F2F31"/>
<path d="M123.552 138.964V155.423L67.4047 186.158V169.7L123.552 138.964Z" fill="#D9D9D9"/>
<path d="M91.9107 158.667L69.6166 170.87V182.922L91.9107 170.719V158.667Z" fill="#272727"/>
<path d="M67.2757 169.067L20.2418 143.317V140.317L67.2757 166.067V169.067Z" fill="#CACACA"/>
<path d="M67.2757 166.067L20.2418 140.317L76.3891 109.581L123.423 135.331L67.2757 166.067Z" fill="#F1F1F1"/>
<path d="M23.1725 140.317L76.389 111.185L120.492 135.332L67.2756 164.461L23.1725 140.317Z" fill="#2F2F31"/>
<path d="M26.1055 140.317L76.3891 112.791L117.559 135.331L67.2756 162.857L26.1055 140.317Z" fill="#1B1B1E"/>
<path d="M123.423 135.331V138.334L67.2756 169.067V166.067L123.423 135.331Z" fill="#EBEBEB"/>
<path d="M109.525 152.068C109.303 152.07 109.156 151.902 109.152 151.635L109.136 150.704C109.13 150.336 109.397 149.882 109.731 149.693L110.942 149.007C111.04 148.951 111.134 148.922 111.224 148.922C111.447 148.918 111.593 149.088 111.597 149.356L111.613 150.286C111.619 150.655 111.353 151.109 111.018 151.297L109.807 151.983C109.709 152.039 109.615 152.068 109.525 152.068Z" fill="#2F2F31"/>
<path d="M111.224 148.96C111.418 148.958 111.554 149.101 111.558 149.355L111.573 150.286C111.58 150.642 111.322 151.081 110.999 151.264L109.788 151.95C109.694 152.004 109.604 152.028 109.526 152.03C109.331 152.033 109.196 151.89 109.191 151.635L109.176 150.704C109.169 150.346 109.427 149.909 109.751 149.726L110.961 149.04C111.055 148.987 111.145 148.962 111.224 148.96ZM111.224 148.883C111.127 148.885 111.025 148.916 110.922 148.974L109.711 149.66C109.362 149.859 109.091 150.319 109.097 150.704L109.112 151.635C109.117 151.923 109.281 152.107 109.528 152.105C109.624 152.103 109.727 152.072 109.829 152.014L111.04 151.328C111.39 151.129 111.661 150.671 111.654 150.284L111.639 149.353C111.632 149.065 111.471 148.881 111.224 148.883Z" fill="#777777"/>
<path d="M112.683 150.278C112.46 150.28 112.314 150.112 112.31 149.845L112.294 148.914C112.288 148.545 112.554 148.092 112.889 147.903L114.1 147.217C114.198 147.161 114.292 147.132 114.381 147.132C114.604 147.128 114.751 147.298 114.755 147.565L114.77 148.496C114.777 148.865 114.51 149.318 114.176 149.507L112.965 150.193C112.867 150.249 112.773 150.276 112.683 150.278Z" fill="#2F2F31"/>
<path d="M114.382 147.169C114.576 147.167 114.712 147.31 114.716 147.565L114.731 148.496C114.738 148.852 114.48 149.291 114.156 149.474L112.946 150.159C112.852 150.213 112.762 150.238 112.683 150.24C112.489 150.242 112.353 150.099 112.349 149.844L112.334 148.914C112.327 148.558 112.585 148.118 112.909 147.936L114.119 147.25C114.213 147.196 114.303 147.169 114.382 147.169ZM114.382 147.093C114.285 147.095 114.183 147.126 114.08 147.184L112.869 147.87C112.52 148.069 112.249 148.529 112.255 148.914L112.27 149.844C112.275 150.133 112.439 150.317 112.686 150.315C112.782 150.313 112.885 150.282 112.987 150.224L114.198 149.538C114.548 149.339 114.819 148.879 114.812 148.493L114.797 147.563C114.79 147.273 114.629 147.089 114.382 147.093Z" fill="#777777"/>
<path d="M115.842 148.487C115.619 148.49 115.472 148.322 115.468 148.054L115.453 147.124C115.446 146.755 115.713 146.301 116.047 146.113L117.258 145.427C117.356 145.371 117.45 145.342 117.54 145.34C117.763 145.338 117.909 145.508 117.913 145.773L117.929 146.703C117.935 147.072 117.669 147.526 117.334 147.715L116.123 148.4C116.025 148.456 115.931 148.485 115.842 148.487Z" fill="#2F2F31"/>
<path d="M117.54 145.379C117.734 145.377 117.87 145.52 117.874 145.775L117.889 146.705C117.896 147.062 117.638 147.501 117.315 147.685L116.104 148.371C116.01 148.425 115.92 148.45 115.842 148.452C115.647 148.454 115.512 148.311 115.509 148.058L115.494 147.128C115.488 146.771 115.746 146.332 116.069 146.15L117.28 145.464C117.372 145.406 117.461 145.379 117.54 145.379ZM117.54 145.302C117.444 145.304 117.341 145.335 117.238 145.394L116.027 146.079C115.678 146.278 115.407 146.736 115.413 147.124L115.429 148.054C115.433 148.342 115.597 148.526 115.844 148.524C115.94 148.522 116.043 148.491 116.145 148.433L117.356 147.747C117.706 147.548 117.977 147.088 117.97 146.703L117.955 145.773C117.951 145.483 117.787 145.298 117.54 145.302Z" fill="#777777"/>
<path d="M119 146.695C118.777 146.699 118.63 146.529 118.626 146.262L118.611 145.334C118.604 144.965 118.871 144.511 119.205 144.322L120.416 143.637C120.514 143.581 120.608 143.552 120.698 143.552C120.921 143.55 121.067 143.719 121.072 143.985L121.087 144.915C121.093 145.284 120.827 145.738 120.492 145.926L119.282 146.612C119.183 146.666 119.089 146.695 119 146.695Z" fill="#2F2F31"/>
<path d="M120.698 143.587C120.892 143.585 121.028 143.728 121.032 143.982L121.047 144.913C121.054 145.269 120.796 145.708 120.473 145.891L119.262 146.577C119.168 146.631 119.078 146.655 119 146.657C118.805 146.66 118.67 146.517 118.665 146.262L118.65 145.331C118.643 144.975 118.901 144.536 119.225 144.353L120.435 143.667C120.529 143.614 120.619 143.589 120.698 143.587ZM120.698 143.512C120.602 143.514 120.499 143.545 120.394 143.603L119.183 144.291C118.834 144.49 118.563 144.948 118.569 145.335L118.584 146.264C118.589 146.554 118.753 146.738 119 146.734C119.096 146.732 119.199 146.703 119.301 146.643L120.512 145.957C120.862 145.758 121.133 145.298 121.126 144.913L121.111 143.982C121.109 143.692 120.945 143.508 120.698 143.512Z" fill="#777777"/>
<path d="M109.572 154.872C109.349 154.876 109.202 154.706 109.198 154.439L109.182 153.508C109.176 153.139 109.443 152.686 109.777 152.497L110.988 151.811C111.086 151.755 111.18 151.726 111.27 151.726C111.493 151.722 111.639 151.892 111.643 152.159L111.659 153.09C111.665 153.459 111.399 153.912 111.064 154.101L109.853 154.787C109.755 154.841 109.661 154.87 109.572 154.872Z" fill="#2F2F31"/>
<path d="M111.27 151.763C111.464 151.761 111.6 151.904 111.604 152.159L111.619 153.089C111.626 153.446 111.368 153.885 111.044 154.067L109.834 154.753C109.74 154.807 109.65 154.832 109.571 154.834C109.377 154.836 109.244 154.693 109.239 154.438L109.224 153.508C109.217 153.152 109.475 152.712 109.799 152.53L111.009 151.844C111.101 151.79 111.191 151.763 111.27 151.763ZM111.27 151.687C111.173 151.689 111.071 151.72 110.966 151.778L109.755 152.464C109.405 152.663 109.134 153.123 109.141 153.508L109.156 154.438C109.161 154.726 109.324 154.911 109.571 154.909C109.668 154.907 109.77 154.876 109.873 154.818L111.084 154.132C111.433 153.933 111.704 153.473 111.698 153.085L111.683 152.155C111.678 151.867 111.516 151.682 111.27 151.687Z" fill="#777777"/>
<path d="M112.73 153.079C112.507 153.084 112.36 152.914 112.356 152.646L112.341 151.716C112.334 151.347 112.601 150.893 112.935 150.705L114.146 150.019C114.244 149.963 114.338 149.934 114.428 149.934C114.651 149.93 114.797 150.1 114.801 150.367L114.817 151.297C114.823 151.666 114.557 152.12 114.222 152.309L113.012 152.994C112.913 153.05 112.819 153.079 112.73 153.079Z" fill="#2F2F31"/>
<path d="M114.428 149.971C114.622 149.969 114.758 150.112 114.762 150.367L114.778 151.297C114.784 151.653 114.526 152.093 114.203 152.275L112.992 152.961C112.898 153.015 112.808 153.04 112.73 153.042C112.535 153.044 112.4 152.901 112.395 152.646L112.38 151.718C112.374 151.359 112.631 150.922 112.955 150.737L114.166 150.052C114.26 149.998 114.349 149.973 114.428 149.971ZM114.428 149.896C114.332 149.898 114.229 149.929 114.126 149.987L112.916 150.673C112.566 150.872 112.295 151.332 112.301 151.718L112.317 152.648C112.321 152.936 112.485 153.123 112.732 153.118C112.828 153.116 112.931 153.085 113.036 153.027L114.246 152.341C114.596 152.142 114.867 151.684 114.861 151.297L114.845 150.367C114.837 150.077 114.675 149.892 114.428 149.896Z" fill="#777777"/>
<path d="M115.888 151.289C115.665 151.293 115.518 151.123 115.514 150.856L115.499 149.925C115.492 149.557 115.759 149.103 116.093 148.914L117.304 148.228C117.402 148.172 117.496 148.143 117.586 148.143C117.809 148.139 117.955 148.309 117.96 148.576L117.975 149.507C117.981 149.876 117.715 150.329 117.38 150.518L116.17 151.204C116.071 151.26 115.977 151.289 115.888 151.289Z" fill="#2F2F31"/>
<path d="M117.586 148.18C117.78 148.178 117.916 148.321 117.918 148.576L117.933 149.507C117.94 149.863 117.682 150.302 117.358 150.485L116.148 151.171C116.054 151.224 115.964 151.249 115.885 151.251C115.691 151.253 115.555 151.11 115.551 150.856L115.536 149.925C115.529 149.569 115.787 149.129 116.11 148.947L117.321 148.261C117.417 148.207 117.507 148.183 117.586 148.18ZM117.586 148.104C117.49 148.106 117.387 148.137 117.284 148.195L116.071 148.883C115.721 149.082 115.45 149.54 115.457 149.927L115.472 150.858C115.477 151.146 115.641 151.33 115.888 151.328C115.984 151.326 116.086 151.297 116.189 151.237L117.4 150.551C117.75 150.352 118.021 149.892 118.014 149.507L117.999 148.576C117.994 148.286 117.833 148.102 117.586 148.104Z" fill="#777777"/>
<path d="M119.046 149.499C118.823 149.503 118.676 149.333 118.672 149.066L118.657 148.135C118.65 147.766 118.917 147.313 119.251 147.124L120.462 146.438C120.56 146.382 120.656 146.353 120.744 146.353C120.967 146.351 121.113 146.519 121.117 146.786L121.133 147.715C121.139 148.083 120.873 148.537 120.538 148.728L119.328 149.414C119.229 149.47 119.135 149.497 119.046 149.499Z" fill="#2F2F31"/>
<path d="M120.744 146.39C120.938 146.388 121.074 146.531 121.078 146.786L121.093 147.716C121.1 148.073 120.842 148.512 120.519 148.694L119.308 149.38C119.214 149.434 119.124 149.459 119.046 149.461C118.851 149.463 118.716 149.32 118.711 149.065L118.696 148.135C118.689 147.779 118.947 147.339 119.271 147.157L120.481 146.471C120.575 146.417 120.665 146.392 120.744 146.39ZM120.744 146.314C120.647 146.316 120.545 146.347 120.442 146.405L119.231 147.091C118.882 147.29 118.611 147.747 118.617 148.135L118.632 149.065C118.637 149.355 118.801 149.538 119.048 149.536C119.144 149.534 119.247 149.505 119.352 149.444L120.562 148.759C120.912 148.56 121.183 148.1 121.176 147.714L121.161 146.784C121.152 146.496 120.991 146.309 120.744 146.314Z" fill="#777777"/>
<path d="M109.615 157.673C109.392 157.678 109.246 157.508 109.241 157.24L109.226 156.31C109.22 155.941 109.486 155.487 109.821 155.299L111.031 154.613C111.13 154.557 111.224 154.528 111.313 154.528C111.536 154.524 111.683 154.694 111.687 154.961L111.702 155.891C111.709 156.26 111.442 156.714 111.108 156.903L109.897 157.588C109.801 157.644 109.705 157.673 109.615 157.673Z" fill="#2F2F31"/>
<path d="M111.316 154.565C111.51 154.563 111.646 154.706 111.65 154.961L111.665 155.891C111.672 156.247 111.414 156.687 111.09 156.869L109.88 157.555C109.786 157.609 109.696 157.634 109.617 157.636C109.423 157.638 109.287 157.495 109.283 157.24L109.268 156.31C109.261 155.953 109.519 155.514 109.843 155.332L111.053 154.646C111.147 154.592 111.237 154.567 111.316 154.565ZM111.313 154.49C111.217 154.492 111.114 154.521 111.012 154.581L109.801 155.267C109.451 155.466 109.18 155.924 109.187 156.312L109.202 157.242C109.207 157.53 109.37 157.714 109.617 157.712C109.714 157.71 109.816 157.679 109.921 157.621L111.132 156.935C111.482 156.736 111.753 156.279 111.746 155.891L111.731 154.961C111.724 154.671 111.563 154.486 111.313 154.49Z" fill="#777777"/>
<path d="M112.773 155.883C112.55 155.887 112.404 155.717 112.399 155.45L112.384 154.519C112.377 154.151 112.644 153.697 112.978 153.508L114.189 152.822C114.288 152.766 114.382 152.737 114.471 152.737C114.694 152.735 114.841 152.903 114.845 153.17L114.86 154.101C114.867 154.47 114.6 154.923 114.266 155.112L113.055 155.798C112.959 155.854 112.863 155.883 112.773 155.883Z" fill="#2F2F31"/>
<path d="M114.473 152.775C114.668 152.772 114.803 152.915 114.806 153.17L114.821 154.101C114.827 154.457 114.57 154.896 114.246 155.079L113.035 155.765C112.941 155.818 112.852 155.843 112.773 155.845C112.579 155.847 112.443 155.702 112.441 155.45L112.426 154.519C112.419 154.163 112.677 153.724 113 153.541L114.211 152.855C114.305 152.801 114.395 152.777 114.473 152.775ZM114.471 152.698C114.375 152.7 114.272 152.731 114.17 152.789L112.959 153.475C112.609 153.674 112.338 154.134 112.345 154.519L112.36 155.45C112.364 155.74 112.528 155.924 112.775 155.92C112.871 155.918 112.974 155.887 113.077 155.829L114.288 155.143C114.637 154.944 114.908 154.486 114.902 154.099L114.886 153.168C114.882 152.88 114.72 152.696 114.471 152.698Z" fill="#777777"/>
<path d="M115.931 154.093C115.708 154.097 115.562 153.927 115.558 153.66L115.542 152.729C115.536 152.36 115.802 151.907 116.137 151.718L117.347 151.032C117.446 150.976 117.54 150.947 117.629 150.947C117.852 150.943 117.999 151.113 118.003 151.38L118.018 152.311C118.025 152.68 117.758 153.133 117.424 153.322L116.213 154.008C116.117 154.062 116.021 154.091 115.931 154.093Z" fill="#2F2F31"/>
<path d="M117.632 150.984C117.826 150.982 117.962 151.125 117.966 151.38L117.981 152.308C117.988 152.665 117.73 153.104 117.406 153.286L116.196 153.972C116.102 154.026 116.012 154.051 115.933 154.053C115.739 154.055 115.603 153.912 115.599 153.657L115.584 152.727C115.577 152.371 115.835 151.931 116.159 151.749L117.369 151.063C117.463 151.011 117.553 150.984 117.632 150.984ZM117.629 150.908C117.533 150.91 117.431 150.941 117.328 150.999L116.117 151.685C115.767 151.884 115.496 152.344 115.503 152.731L115.518 153.662C115.523 153.95 115.687 154.134 115.933 154.132C116.03 154.13 116.132 154.099 116.235 154.041L117.446 153.355C117.795 153.156 118.066 152.698 118.06 152.31L118.045 151.38C118.04 151.088 117.879 150.904 117.629 150.908Z" fill="#777777"/>
<path d="M119.091 152.302C118.868 152.306 118.722 152.136 118.717 151.869L118.702 150.939C118.696 150.57 118.962 150.116 119.297 149.927L120.507 149.242C120.606 149.186 120.7 149.157 120.789 149.157C121.012 149.155 121.159 149.322 121.163 149.59L121.178 150.52C121.185 150.889 120.918 151.343 120.584 151.531L119.373 152.217C119.275 152.271 119.179 152.3 119.091 152.302Z" fill="#2F2F31"/>
<path d="M120.789 149.194C120.984 149.192 121.119 149.335 121.124 149.59L121.139 150.52C121.146 150.876 120.888 151.316 120.564 151.498L119.354 152.184C119.26 152.238 119.17 152.263 119.091 152.265C118.897 152.267 118.761 152.124 118.757 151.869L118.742 150.939C118.735 150.582 118.993 150.143 119.316 149.96L120.527 149.275C120.621 149.221 120.711 149.194 120.789 149.194ZM120.789 149.117C120.693 149.119 120.591 149.15 120.488 149.208L119.277 149.894C118.927 150.093 118.656 150.553 118.663 150.939L118.678 151.869C118.683 152.157 118.847 152.343 119.093 152.339C119.19 152.337 119.292 152.308 119.395 152.248L120.606 151.562C120.956 151.363 121.227 150.903 121.22 150.518L121.205 149.587C121.198 149.297 121.036 149.113 120.789 149.117Z" fill="#777777"/>
<path d="M109.661 160.476C109.438 160.481 109.292 160.311 109.287 160.043L109.272 159.113C109.265 158.744 109.532 158.29 109.866 158.102L111.077 157.414C111.176 157.358 111.27 157.329 111.359 157.329C111.582 157.327 111.728 157.495 111.733 157.762L111.748 158.692C111.755 159.061 111.488 159.515 111.154 159.704L109.943 160.389C109.847 160.445 109.751 160.474 109.661 160.476Z" fill="#2F2F31"/>
<path d="M111.361 157.368C111.556 157.364 111.691 157.509 111.696 157.762L111.711 158.692C111.718 159.048 111.46 159.488 111.136 159.67L109.925 160.356C109.831 160.41 109.742 160.435 109.663 160.437C109.469 160.439 109.333 160.296 109.329 160.041L109.314 159.111C109.307 158.754 109.565 158.315 109.888 158.13L111.099 157.445C111.193 157.395 111.28 157.368 111.361 157.368ZM111.359 157.291C111.263 157.293 111.16 157.324 111.058 157.382L109.847 158.068C109.497 158.267 109.226 158.727 109.233 159.113L109.248 160.043C109.252 160.331 109.416 160.518 109.663 160.513C109.759 160.511 109.862 160.482 109.965 160.422L111.176 159.736C111.525 159.537 111.796 159.077 111.79 158.692L111.774 157.762C111.77 157.472 111.606 157.287 111.359 157.291Z" fill="#777777"/>
<path d="M112.819 158.686C112.596 158.69 112.449 158.52 112.445 158.253L112.43 157.323C112.423 156.954 112.69 156.5 113.024 156.311L114.235 155.626C114.333 155.57 114.427 155.541 114.517 155.541C114.74 155.536 114.886 155.706 114.891 155.974L114.906 156.904C114.913 157.273 114.646 157.727 114.312 157.915L113.101 158.601C113.005 158.655 112.908 158.684 112.819 158.686Z" fill="#2F2F31"/>
<path d="M114.519 155.578C114.714 155.576 114.849 155.721 114.854 155.973L114.869 156.904C114.876 157.262 114.618 157.7 114.294 157.882L113.083 158.568C112.989 158.622 112.9 158.646 112.821 158.649C112.627 158.651 112.493 158.508 112.489 158.253L112.474 157.322C112.467 156.966 112.725 156.527 113.048 156.342L114.259 155.656C114.351 155.605 114.438 155.578 114.519 155.578ZM114.517 155.501C114.421 155.503 114.318 155.532 114.215 155.592L113.005 156.278C112.655 156.477 112.384 156.937 112.391 157.322L112.406 158.251C112.41 158.541 112.574 158.725 112.821 158.721C112.917 158.719 113.02 158.688 113.123 158.63L114.334 157.944C114.683 157.745 114.954 157.285 114.948 156.9L114.932 155.969C114.928 155.681 114.766 155.497 114.517 155.501Z" fill="#777777"/>
<path d="M115.977 156.894C115.754 156.898 115.608 156.728 115.603 156.461L115.588 155.532C115.581 155.164 115.848 154.71 116.182 154.521L117.393 153.835C117.492 153.779 117.586 153.75 117.675 153.75C117.898 153.746 118.045 153.916 118.049 154.183L118.064 155.114C118.071 155.483 117.804 155.937 117.47 156.125L116.259 156.811C116.163 156.865 116.067 156.894 115.977 156.894Z" fill="#2F2F31"/>
<path d="M117.677 153.785C117.872 153.783 118.007 153.926 118.01 154.181L118.025 155.111C118.032 155.468 117.774 155.907 117.45 156.09L116.239 156.775C116.145 156.829 116.056 156.854 115.977 156.856C115.783 156.858 115.647 156.715 115.645 156.46L115.63 155.53C115.623 155.174 115.881 154.734 116.204 154.55L117.415 153.864C117.509 153.812 117.599 153.787 117.677 153.785ZM117.675 153.711C117.579 153.713 117.476 153.744 117.374 153.802L116.163 154.488C115.813 154.687 115.542 155.147 115.549 155.532L115.564 156.463C115.569 156.751 115.732 156.937 115.979 156.933C116.076 156.931 116.178 156.9 116.281 156.842L117.492 156.156C117.841 155.957 118.112 155.499 118.106 155.111L118.091 154.181C118.086 153.891 117.924 153.707 117.675 153.711Z" fill="#777777"/>
<path d="M119.135 155.103C118.912 155.105 118.766 154.936 118.762 154.67L118.746 153.74C118.74 153.371 119.006 152.917 119.341 152.729L120.551 152.043C120.65 151.987 120.744 151.958 120.833 151.956C121.056 151.954 121.203 152.124 121.207 152.389L121.222 153.319C121.229 153.688 120.962 154.142 120.628 154.33L119.417 155.016C119.321 155.074 119.225 155.103 119.135 155.103Z" fill="#2F2F31"/>
<path d="M120.835 151.995C121.03 151.993 121.165 152.136 121.17 152.391L121.185 153.321C121.192 153.678 120.934 154.117 120.61 154.299L119.4 154.985C119.306 155.039 119.216 155.064 119.137 155.066C118.943 155.068 118.807 154.925 118.803 154.67L118.788 153.74C118.781 153.383 119.039 152.944 119.362 152.762L120.573 152.076C120.667 152.022 120.757 151.997 120.835 151.995ZM120.833 151.918C120.737 151.921 120.634 151.952 120.532 152.01L119.321 152.696C118.971 152.894 118.7 153.354 118.707 153.74L118.722 154.67C118.726 154.96 118.89 155.145 119.137 155.141C119.233 155.139 119.336 155.107 119.441 155.049L120.652 154.364C121.002 154.165 121.273 153.705 121.266 153.319L121.251 152.389C121.244 152.101 121.082 151.916 120.833 151.918Z" fill="#777777"/>
<path d="M99.339 155.804C99.2319 155.864 99.1445 155.819 99.1423 155.7L99.127 154.824C99.1248 154.706 99.21 154.561 99.3171 154.501C99.4242 154.441 99.5116 154.486 99.5138 154.604L99.5291 155.481C99.5313 155.599 99.4461 155.744 99.339 155.804Z" fill="#777777"/>
<path d="M97.619 157.296C97.5272 157.408 97.4092 157.439 97.3524 157.368L96.9437 156.834C96.8891 156.761 96.9175 156.612 97.0093 156.502C97.1011 156.39 97.2191 156.359 97.2759 156.43L97.6846 156.964C97.7392 157.035 97.7108 157.184 97.619 157.296Z" fill="#777777"/>
<path d="M96.3756 159.411C96.3231 159.544 96.2051 159.645 96.1133 159.639L95.4183 159.592C95.3243 159.585 95.2916 159.471 95.3418 159.339C95.3943 159.206 95.5123 159.105 95.6041 159.111L96.2991 159.158C96.393 159.165 96.428 159.279 96.3756 159.411Z" fill="#777777"/>
<path d="M95.9428 161.583C95.945 161.701 95.8597 161.846 95.7526 161.906L94.9593 162.356C94.8522 162.416 94.7648 162.37 94.7626 162.252C94.7604 162.134 94.8457 161.989 94.9527 161.929L95.7461 161.479C95.8532 161.419 95.9406 161.465 95.9428 161.583Z" fill="#777777"/>
<path d="M102.425 159.834C102.477 159.701 102.595 159.6 102.687 159.606L103.38 159.654C103.474 159.66 103.507 159.774 103.457 159.906C103.404 160.039 103.288 160.141 103.194 160.134L102.499 160.087C102.408 160.08 102.375 159.967 102.425 159.834Z" fill="#777777"/>
<path d="M102.858 157.663C102.856 157.545 102.941 157.399 103.048 157.339L103.841 156.89C103.948 156.83 104.036 156.875 104.038 156.993C104.04 157.111 103.955 157.257 103.848 157.317L103.054 157.766C102.95 157.826 102.86 157.781 102.858 157.663Z" fill="#777777"/>
<path d="M102.364 156.015C102.309 155.943 102.338 155.796 102.429 155.684L103.109 154.857C103.201 154.745 103.319 154.714 103.376 154.784C103.432 154.855 103.402 155.006 103.31 155.116L102.63 155.943C102.539 156.055 102.418 156.088 102.364 156.015Z" fill="#777777"/>
<path d="M101.077 155.336C100.983 155.329 100.948 155.218 101 155.083L101.385 154.101C101.437 153.968 101.555 153.866 101.649 153.873C101.743 153.879 101.776 153.993 101.726 154.126L101.341 155.108C101.286 155.24 101.171 155.342 101.077 155.336Z" fill="#777777"/>
<path d="M101.63 156.287L102.735 156.875C102.169 156.575 101.391 156.629 100.541 157.111L99.4353 156.523C100.288 156.04 101.064 155.984 101.63 156.287Z" fill="#2F2F31"/>
<mask id="mask0_9_8819" style="mask-type:luminance" maskUnits="userSpaceOnUse" x="99" y="156" width="4" height="2">
<path d="M101.63 156.287L102.735 156.875C102.169 156.575 101.391 156.629 100.541 157.111L99.4353 156.523C100.288 156.04 101.064 155.984 101.63 156.287Z" fill="white"/>
</mask>
<g mask="url(#mask0_9_8819)">
<path d="M100.543 157.11L99.4376 156.521C100.288 156.039 101.064 155.985 101.632 156.285L102.738 156.874C102.169 156.573 101.391 156.627 100.543 157.11Z" fill="#2F2F31"/>
</g>
<path d="M98.4758 164.078L97.3699 163.49C96.8104 163.191 96.4564 162.547 96.4389 161.623C96.4039 159.766 97.7458 157.48 99.4374 156.521L100.543 157.109C98.8517 158.069 97.5076 160.354 97.5448 162.211C97.5601 163.135 97.9163 163.78 98.4758 164.078Z" fill="#2F2F31"/>
<mask id="mask1_9_8819" style="mask-type:luminance" maskUnits="userSpaceOnUse" x="96" y="156" width="5" height="9">
<path d="M98.4758 164.078L97.3699 163.49C96.8104 163.191 96.4564 162.547 96.4389 161.623C96.4039 159.766 97.7458 157.48 99.4374 156.521L100.543 157.109C98.8517 158.069 97.5076 160.354 97.5448 162.211C97.5601 163.135 97.9163 163.78 98.4758 164.078Z" fill="white"/>
</mask>
<g mask="url(#mask1_9_8819)">
<path d="M98.4758 164.078L97.3699 163.49C96.8104 163.191 96.4564 162.547 96.4389 161.623C96.4039 159.766 97.7458 157.48 99.4374 156.521L100.543 157.109C98.8517 158.069 97.5076 160.354 97.5448 162.211C97.5601 163.135 97.9163 163.78 98.4758 164.078Z" fill="#2F2F31"/>
</g>
<path d="M100.543 157.11C102.233 156.152 103.634 156.882 103.669 158.738C103.704 160.599 102.362 162.882 100.672 163.84C98.9807 164.799 97.5798 164.07 97.5448 162.209C97.5077 160.354 98.8496 158.069 100.543 157.11Z" fill="#3E4044"/>
<path d="M101.289 163.17L100.183 162.582C100.065 162.52 99.9905 162.385 99.9883 162.192L101.094 162.781C101.099 162.971 101.173 163.108 101.289 163.17Z" fill="#272727"/>
<mask id="mask2_9_8819" style="mask-type:luminance" maskUnits="userSpaceOnUse" x="99" y="162" width="3" height="2">
<path d="M101.289 163.17L100.183 162.582C100.065 162.52 99.9905 162.385 99.9883 162.192L101.094 162.781C101.099 162.971 101.173 163.108 101.289 163.17Z" fill="white"/>
</mask>
<g mask="url(#mask2_9_8819)">
<path d="M101.289 163.17L100.183 162.582C100.065 162.52 99.9905 162.385 99.9883 162.192L101.094 162.781C101.099 162.971 101.173 163.108 101.289 163.17Z" fill="#272727"/>
</g>
<path d="M101.094 162.779L99.9882 162.192L99.9292 159.138L101.035 159.727L101.094 162.779Z" fill="#272727"/>
<path d="M101.011 158.029L102.117 158.618C101.999 158.556 101.835 158.566 101.658 158.668L100.552 158.079C100.729 157.978 100.893 157.965 101.011 158.029Z" fill="#272727"/>
<mask id="mask3_9_8819" style="mask-type:luminance" maskUnits="userSpaceOnUse" x="100" y="157" width="3" height="2">
<path d="M101.011 158.029L102.117 158.618C101.999 158.556 101.835 158.566 101.658 158.668L100.552 158.079C100.729 157.978 100.893 157.965 101.011 158.029Z" fill="white"/>
</mask>
<g mask="url(#mask3_9_8819)">
<path d="M101.658 158.666L100.552 158.077C100.729 157.978 100.893 157.965 101.011 158.027L102.117 158.616C101.999 158.554 101.835 158.564 101.658 158.666Z" fill="#272727"/>
</g>
<path d="M101.035 159.726L99.9293 159.138C99.9228 158.753 100.2 158.276 100.552 158.077L101.658 158.666C101.308 158.864 101.029 159.339 101.035 159.726Z" fill="#272727"/>
<mask id="mask4_9_8819" style="mask-type:luminance" maskUnits="userSpaceOnUse" x="99" y="158" width="3" height="2">
<path d="M101.035 159.726L99.9293 159.138C99.9228 158.753 100.2 158.276 100.552 158.077L101.658 158.666C101.308 158.864 101.029 159.339 101.035 159.726Z" fill="white"/>
</mask>
<g mask="url(#mask4_9_8819)">
<path d="M101.035 159.726L99.9293 159.138C99.9228 158.753 100.2 158.276 100.552 158.077L101.658 158.666C101.308 158.864 101.029 159.339 101.035 159.726Z" fill="#272727"/>
</g>
<path d="M101.658 158.665C102.008 158.467 102.303 158.616 102.311 159.001L102.37 162.055C102.377 162.441 102.095 162.922 101.745 163.12C101.394 163.319 101.103 163.164 101.096 162.779L101.037 159.724C101.029 159.339 101.308 158.864 101.658 158.665Z" fill="#2F2F31"/>
<path d="M74.2866 172.992C74.162 173.149 73.996 173.309 73.8167 173.421L73.8102 173.077C74.1795 172.851 74.3041 172.559 74.3871 172.246L74.6494 172.097L74.7106 175.862L74.3369 176.075L74.2866 172.992Z" fill="#3574E0"/>
<path d="M75.609 172.758L75.6177 173.28L75.2528 173.487L75.244 172.965L75.609 172.758ZM75.644 174.807L75.6527 175.329L75.2877 175.537L75.279 175.014L75.644 174.807Z" fill="#3574E0"/>
<path d="M77.412 173.566L77.4251 174.324L77.0557 174.534L77.0426 173.775L75.9433 174.399L75.9368 174.018L76.9508 170.793L77.3639 170.559L77.4076 173.185L77.6808 173.029L77.6873 173.41L77.412 173.566ZM76.2843 173.819L77.0339 173.394L77.0033 171.554L76.2843 173.819Z" fill="#3574E0"/>
<path d="M78.3319 171.556C78.4347 171.291 78.6051 171.086 78.8324 170.957C79.2717 170.708 79.4706 170.953 79.4793 171.492L79.4924 172.227C79.5012 172.803 79.2586 173.319 78.7384 173.616C78.2183 173.912 77.967 173.672 77.9582 173.098L77.9539 172.845L78.3079 172.644L78.3123 172.923C78.3188 173.261 78.4478 173.396 78.721 173.241C78.9942 173.085 79.1165 172.81 79.1122 172.472L79.1012 171.74C79.0947 171.401 78.9657 171.268 78.6926 171.423C78.4827 171.541 78.3451 171.751 78.3145 172.045V172.132L77.9582 172.333L78.0172 170.188L79.3613 169.426L79.3679 169.803L78.3647 170.373L78.3319 171.556Z" fill="#3574E0"/>
<path d="M85.1531 166.272C86.2524 165.648 87.2577 165.578 87.992 165.965L88.3985 165.273C87.5549 164.828 86.4032 164.911 85.1421 165.626C83.8811 166.341 82.7468 167.555 81.9338 168.939L82.3556 169.161C83.0637 167.955 84.0516 166.896 85.1531 166.272Z" fill="#3574E0"/>
<path d="M85.1727 167.567C85.9267 167.14 86.6392 167.062 87.1812 167.348L87.5877 166.655C86.9342 166.309 86.0732 166.405 85.164 166.921C84.2548 167.437 83.4047 168.311 82.7753 169.384L83.1971 169.606C83.7172 168.719 84.4188 167.994 85.1727 167.567Z" fill="#3574E0"/>
<path d="M85.1946 168.86C85.6361 168.609 86.0513 168.564 86.3682 168.732L86.7747 168.04C86.3464 167.814 85.7825 167.876 85.1837 168.214C84.5871 168.551 84.0298 169.125 83.6167 169.83L84.0385 170.052C84.3423 169.534 84.7532 169.109 85.1946 168.86Z" fill="#3574E0"/>
<path d="M85.7518 169.331C85.601 169.252 85.4131 169.273 85.2033 169.393C84.9935 169.511 84.8077 169.703 84.6635 169.948C84.5192 170.193 84.4449 170.445 84.4493 170.677C84.4536 170.909 84.5345 171.073 84.6831 171.152C84.8317 171.231 85.0219 171.21 85.2317 171.09C85.4415 170.972 85.6273 170.779 85.7715 170.534C85.9157 170.29 85.99 170.037 85.9857 169.805C85.9813 169.573 85.9004 169.409 85.7518 169.331Z" fill="#3574E0"/>
<path d="M68.5651 156.359C65.4005 156.359 62.2359 155.7 59.8254 154.38C57.4628 153.087 56.1625 151.359 56.1625 149.515C56.1625 147.671 57.4628 145.945 59.8254 144.65C64.6443 142.012 72.4859 142.012 77.3049 144.65C79.6674 145.943 80.9677 147.671 80.9677 149.515C80.9677 151.359 79.6674 153.087 77.3049 154.38C74.8965 155.698 71.7297 156.359 68.5651 156.359ZM68.5651 142.946C65.453 142.946 62.3408 143.595 59.9718 144.892C57.7032 146.133 56.4553 147.774 56.4553 149.515C56.4553 151.256 57.7032 152.897 59.9718 154.138C64.7099 156.732 72.4181 156.732 77.1563 154.138C79.4226 152.897 80.6727 151.256 80.6727 149.515C80.6727 147.774 79.4248 146.133 77.1563 144.892C74.7894 143.595 71.6772 142.946 68.5651 142.946Z" fill="#3574E0"/>
<path d="M68.5653 154.973C65.5209 154.973 62.6776 154.335 60.5599 153.176C58.6694 152.142 57.6292 150.843 57.6292 149.515C57.6292 148.189 58.6694 146.889 60.5599 145.855C62.6776 144.697 65.5209 144.057 68.5653 144.057C71.6119 144.057 74.4552 144.695 76.5707 145.855C78.4612 146.889 79.5015 148.189 79.5015 149.515C79.5015 150.841 78.4612 152.14 76.5707 153.176C74.4552 154.335 71.6119 154.973 68.5653 154.973ZM68.5653 144.337C65.5712 144.337 62.7803 144.962 60.7063 146.096C58.912 147.078 57.922 148.292 57.922 149.515C57.922 150.737 58.9098 151.952 60.7063 152.936C62.7803 154.071 65.5712 154.695 68.5653 154.695C71.5594 154.695 74.3525 154.069 76.4243 152.936C78.2186 151.954 79.2064 150.739 79.2064 149.515C79.2064 148.292 78.2186 147.078 76.4243 146.096C74.3525 144.96 71.5616 144.337 68.5653 144.337Z" fill="#3574E0"/>
<path d="M68.5654 153.585C65.7724 153.585 63.1913 153.013 61.2921 151.975C59.9153 151.22 59.0957 150.302 59.0957 149.517C59.0957 148.732 59.9174 147.814 61.2921 147.06C63.1891 146.022 65.7724 145.45 68.5654 145.45C71.3585 145.45 73.9395 146.022 75.8387 147.06C77.2134 147.812 78.0351 148.732 78.0351 149.517C78.0351 150.302 77.2134 151.22 75.8387 151.975C73.9417 153.011 71.3585 153.585 68.5654 153.585ZM68.5654 145.725C65.8248 145.725 63.2918 146.285 61.4385 147.3C60.1535 148.002 59.3886 148.831 59.3886 149.515C59.3886 150.201 60.1557 151.028 61.4385 151.732C63.2918 152.748 65.8226 153.305 68.5654 153.305C71.306 153.305 73.839 152.745 75.6923 151.732C76.9752 151.03 77.7423 150.201 77.7423 149.515C77.7423 148.831 76.9752 148.002 75.6923 147.3C73.839 146.285 71.3082 145.725 68.5654 145.725Z" fill="#3574E0"/>
<path d="M96.9481 140.622C94.8216 140.622 92.6951 140.178 91.0757 139.293C89.4802 138.419 88.6017 137.25 88.6017 135.999C88.6017 134.747 89.4802 133.579 91.0757 132.704C94.3124 130.932 99.5816 130.932 102.818 132.704C104.414 133.579 105.292 134.747 105.292 135.999C105.292 137.248 104.414 138.419 102.818 139.293C101.201 140.18 99.0745 140.622 96.9481 140.622ZM96.9481 131.649C94.874 131.649 92.8022 132.08 91.2243 132.944C89.7228 133.767 88.8967 134.851 88.8967 135.999C88.8967 137.147 89.7228 138.23 91.2243 139.053C94.3801 140.781 99.516 140.781 102.674 139.053C104.175 138.23 105.002 137.147 105.002 135.999C105.002 134.851 104.175 133.767 102.674 132.944C101.094 132.08 99.0221 131.649 96.9481 131.649Z" fill="#3574E0"/>
<path d="M96.9483 139.235C95.0141 139.235 93.1412 138.817 91.8102 138.089C90.7022 137.484 90.0684 136.722 90.0684 135.999C90.0684 135.276 90.7022 134.513 91.8102 133.908C93.1412 133.179 95.0141 132.76 96.9483 132.76C98.8824 132.76 100.755 133.179 102.086 133.908C103.194 134.513 103.828 135.276 103.828 135.999C103.828 136.722 103.194 137.482 102.086 138.089C100.755 138.819 98.8824 139.235 96.9483 139.235ZM96.9483 133.04C95.0644 133.04 93.2461 133.444 91.9566 134.15C90.9426 134.706 90.3612 135.379 90.3612 136.001C90.3612 136.622 90.9426 137.296 91.9566 137.851C93.2461 138.556 95.0644 138.962 96.9483 138.962C98.8322 138.962 100.65 138.558 101.94 137.851C102.954 137.296 103.535 136.622 103.535 136.001C103.535 135.379 102.954 134.706 101.94 134.15C100.653 133.444 98.8322 133.04 96.9483 133.04Z" fill="#3574E0"/>
<path d="M96.9482 137.847C95.2894 137.847 93.6416 137.488 92.5423 136.885C91.7839 136.469 91.5872 136.121 91.5566 136.057L91.5282 135.998L91.5566 135.94C91.5872 135.874 91.7839 135.526 92.5423 135.112C93.6416 134.511 95.2894 134.15 96.9482 134.15C98.607 134.15 100.255 134.509 101.354 135.112C102.113 135.528 102.309 135.874 102.34 135.94L102.368 135.998L102.34 136.057C102.309 136.123 102.113 136.471 101.354 136.885C100.255 137.486 98.607 137.847 96.9482 137.847ZM91.8582 135.998C91.9347 136.106 92.1532 136.351 92.6887 136.645C93.7443 137.223 95.3375 137.569 96.9482 137.569C98.5589 137.569 100.15 137.223 101.208 136.645C101.743 136.351 101.962 136.106 102.038 135.998C101.962 135.891 101.743 135.646 101.208 135.352C100.152 134.774 98.5589 134.428 96.9482 134.428C95.3375 134.428 93.7465 134.774 92.6887 135.352C92.1532 135.646 91.9369 135.891 91.8582 135.998Z" fill="#3574E0"/>
<path d="M76.8437 131.836C73.6791 131.836 70.5145 131.177 68.1039 129.857C65.7414 128.564 64.441 126.836 64.441 124.994C64.441 123.152 65.7414 121.421 68.1039 120.128C72.9229 117.491 80.7644 117.491 85.5834 120.128C87.9459 121.421 89.2463 123.15 89.2463 124.994C89.2463 126.838 87.9459 128.564 85.5834 129.857C83.1728 131.177 80.0082 131.836 76.8437 131.836ZM76.8437 118.425C73.7315 118.425 70.6194 119.074 68.2503 120.371C65.984 121.612 64.7339 123.253 64.7339 124.994C64.7339 126.734 65.9818 128.375 68.2503 129.617C72.9885 132.211 80.6967 132.211 85.4348 129.617C87.7033 128.375 88.9513 126.732 88.9513 124.994C88.9513 123.253 87.7033 121.612 85.4348 120.371C83.0657 119.074 79.9558 118.425 76.8437 118.425Z" fill="#3574E0"/>
<path d="M76.8438 130.452C73.7972 130.452 70.9539 129.813 68.8383 128.655C66.9501 127.621 65.9076 126.32 65.9076 124.994C65.9076 123.667 66.9479 122.368 68.8383 121.332C70.9561 120.174 73.7994 119.536 76.8438 119.536C79.8881 119.536 82.7336 120.174 84.8492 121.332C86.7396 122.366 87.7799 123.665 87.7799 124.994C87.7799 126.32 86.7396 127.619 84.8492 128.655C82.7315 129.813 79.8881 130.452 76.8438 130.452ZM76.8438 119.813C73.8496 119.813 71.0566 120.439 68.9847 121.575C67.1905 122.557 66.2004 123.771 66.2004 124.994C66.2004 126.216 67.1883 127.43 68.9847 128.413C71.0588 129.548 73.8496 130.172 76.8438 130.172C79.8379 130.172 82.6287 129.546 84.7028 128.413C86.497 127.43 87.4871 126.216 87.4871 124.994C87.4871 123.771 86.4992 122.557 84.7028 121.575C82.6287 120.437 79.8379 119.813 76.8438 119.813Z" fill="#3574E0"/>
<path d="M76.844 129.061C74.0509 129.061 71.4699 128.489 69.5707 127.451C68.196 126.699 67.3743 125.779 67.3743 124.994C67.3743 124.208 68.196 123.29 69.5707 122.536C71.4699 121.498 74.0509 120.926 76.844 120.926C79.637 120.926 82.2203 121.498 84.1173 122.536C85.4941 123.29 86.3137 124.208 86.3137 124.994C86.3137 125.779 85.4919 126.697 84.1173 127.451C82.2181 128.489 79.6348 129.061 76.844 129.061ZM76.844 121.204C74.1012 121.204 71.5704 121.763 69.7171 122.779C68.4342 123.481 67.6671 124.31 67.6671 124.996C67.6671 125.682 68.4342 126.508 69.7171 127.211C71.5704 128.226 74.1012 128.786 76.844 128.786C79.5846 128.786 82.1176 128.226 83.9708 127.211C85.2559 126.508 86.0208 125.68 86.0208 124.996C86.0208 124.312 85.2537 123.483 83.9708 122.779C82.1154 121.761 79.5846 121.204 76.844 121.204Z" fill="#3574E0"/>
<path d="M48.4609 143.133C46.3344 143.133 44.2079 142.689 42.5885 141.803C40.9931 140.928 40.1145 139.76 40.1145 138.508C40.1145 137.256 40.9931 136.088 42.5885 135.213C45.8252 133.442 51.0944 133.442 54.3311 135.213C55.9265 136.088 56.8051 137.256 56.8051 138.508C56.8051 139.757 55.9265 140.928 54.3311 141.803C52.7138 142.692 50.5873 143.133 48.4609 143.133ZM42.7371 141.564C45.8929 143.292 51.0288 143.292 54.1868 141.564C55.6883 140.742 56.5144 139.658 56.5144 138.51C56.5144 137.362 55.6883 136.278 54.1868 135.456C51.031 133.728 45.8951 133.728 42.7371 135.456C41.2357 136.278 40.4095 137.362 40.4095 138.51C40.4074 139.658 41.2357 140.742 42.7371 141.564Z" fill="#3574E0"/>
<path d="M48.461 141.749C46.5268 141.749 44.6538 141.33 43.3229 140.601C42.2148 139.996 41.5811 139.233 41.5811 138.51C41.5811 137.787 42.217 137.024 43.3229 136.419C44.6538 135.69 46.5268 135.271 48.461 135.271C50.3951 135.271 52.2681 135.69 53.599 136.419C54.7071 137.024 55.3409 137.787 55.3409 138.51C55.3409 139.233 54.7049 139.994 53.599 140.601C52.2681 141.33 50.3951 141.749 48.461 141.749ZM48.461 135.551C46.5771 135.551 44.7587 135.955 43.4693 136.662C42.4552 137.217 41.8739 137.89 41.8739 138.512C41.8739 139.134 42.4552 139.807 43.4693 140.362C44.7566 141.067 46.5771 141.473 48.461 141.473C50.3448 141.473 52.1632 141.069 53.4526 140.362C54.4667 139.807 55.048 139.134 55.048 138.512C55.048 137.89 54.4667 137.217 53.4526 136.662C52.1632 135.955 50.3448 135.551 48.461 135.551Z" fill="#3574E0"/>
<path d="M48.4609 140.358C46.8021 140.358 45.1543 140 44.055 139.397C43.2966 138.98 43.0999 138.634 43.0693 138.568L43.0409 138.51L43.0693 138.452C43.0999 138.386 43.2966 138.038 44.055 137.623C45.1543 137.022 46.7999 136.662 48.4609 136.662C50.1197 136.662 51.7675 137.02 52.8668 137.623C53.6252 138.038 53.8219 138.386 53.8525 138.452L53.8809 138.51L53.8525 138.568C53.8219 138.634 53.6252 138.982 52.8668 139.397C51.7675 139.998 50.1197 140.358 48.4609 140.358ZM43.3731 138.51C43.4496 138.618 43.6659 138.862 44.2036 139.156C45.2592 139.735 46.8524 140.081 48.4631 140.081C50.0738 140.081 51.6648 139.735 52.7226 139.156C53.258 138.862 53.4766 138.618 53.5531 138.51C53.4766 138.402 53.258 138.158 52.7226 137.863C51.6648 137.285 50.0738 136.939 48.4631 136.939C46.8524 136.939 45.2613 137.285 44.2036 137.863C43.6659 138.158 43.4474 138.402 43.3731 138.51Z" fill="#3574E0"/>
<path d="M34.417 163.18L35.2999 217.546C35.3087 218.062 35.195 218.483 34.9896 218.792C34.7951 219.082 34.5241 219.276 34.1984 219.361C33.7504 219.479 33.1953 219.395 32.5965 219.078L31.4294 218.462C29.9149 217.662 28.656 215.663 28.6276 214.024L27.7469 159.656C27.7272 158.437 28.3938 157.741 29.3576 157.793C29.4516 157.797 29.5499 157.812 29.6483 157.83C29.9018 157.88 30.1706 157.973 30.4503 158.122L31.6196 158.74C33.1297 159.542 34.3908 161.539 34.417 163.18Z" fill="#B6B6BD"/>
<path d="M34.4171 163.18L35.3 217.546C35.3088 218.062 35.1951 218.483 34.9897 218.792C34.7952 219.082 34.5242 219.276 34.1985 219.361C33.9428 219.312 33.6718 219.216 33.3899 219.065L32.2228 218.45C30.7083 217.65 29.4473 215.652 29.4211 214.011L28.5403 159.643C28.525 158.651 28.9621 158.006 29.6462 157.83C29.8997 157.88 30.1685 157.973 30.4482 158.122L31.6175 158.74C33.1298 159.542 34.3909 161.539 34.4171 163.18Z" fill="#BFBFBF"/>
<path d="M44.2234 168.394L45.1063 222.76C45.1151 223.275 45.0014 223.696 44.796 224.005C44.6037 224.297 44.3305 224.49 44.0048 224.575C43.5568 224.693 43.0017 224.608 42.4029 224.291L41.2358 223.675C39.7213 222.876 38.4603 220.876 38.434 219.237L37.5533 164.869C37.5336 163.651 38.2002 162.954 39.164 163.006C39.258 163.01 39.3563 163.025 39.4547 163.046C39.7082 163.095 39.977 163.189 40.2545 163.338L41.4238 163.953C42.9339 164.755 44.195 166.753 44.2234 168.394Z" fill="#B6B6BD"/>
<path d="M44.2233 168.394L45.1063 222.76C45.115 223.276 45.0014 223.696 44.7959 224.005C44.6036 224.297 44.3304 224.49 44.0048 224.575C43.7491 224.525 43.4781 224.43 43.1962 224.279L42.0291 223.665C40.5146 222.865 39.2557 220.866 39.2273 219.227L38.3466 164.859C38.3313 163.866 38.7684 163.222 39.4524 163.048C39.7059 163.098 39.9748 163.191 40.2523 163.34L41.4216 163.955C42.9339 164.755 44.1949 166.753 44.2233 168.394Z" fill="#BFBFBF"/>
<path d="M54.0275 173.607L54.9104 227.973C54.9191 228.489 54.8055 228.91 54.6001 229.218C54.4056 229.508 54.1345 229.703 53.8089 229.788C53.3609 229.906 52.8058 229.821 52.207 229.504L51.0399 228.889C49.5254 228.089 48.2643 226.09 48.2381 224.45L47.3574 170.083C47.3377 168.864 48.0043 168.168 48.9681 168.22C49.062 168.226 49.1604 168.238 49.2587 168.259C49.5123 168.309 49.7811 168.402 50.0608 168.551L51.23 169.167C52.7402 169.969 54.0012 171.968 54.0275 173.607Z" fill="#B6B6BD"/>
<path d="M54.0275 173.607L54.9105 227.973C54.9192 228.489 54.8056 228.909 54.6001 229.218C54.4056 229.508 54.1346 229.703 53.809 229.788C53.5533 229.738 53.2823 229.643 53.0004 229.494L51.8333 228.878C50.321 228.079 49.0599 226.079 49.0315 224.44L48.1508 170.072C48.1355 169.079 48.5726 168.433 49.2566 168.259C49.5101 168.309 49.779 168.402 50.0587 168.551L51.2279 169.167C52.7403 169.968 54.0013 171.968 54.0275 173.607Z" fill="#BFBFBF"/>
<path d="M81.9513 49.2521L105.515 72.727L40.7986 108.156L48.3757 67.6109L81.9513 49.2521Z" fill="#D9D9D9"/>
<path d="M48.3757 67.6108L40.7986 108.156L0 85.9386L23.8983 54.281L48.3757 67.6108Z" fill="#BFBFBF"/>
<path d="M81.9514 49.2518L48.3757 67.6106L23.8983 54.2808L57.4739 35.9219L81.9514 49.2518Z" fill="#F1F1F1"/>
<path d="M81.9514 13.3527L48.3757 31.7115L23.8983 18.3817L57.4739 0L81.9514 13.3527Z" fill="#BFBFBF"/>
<path d="M30.4613 18.3733L48.3735 28.1288L57.4761 23.1495V3.58264L30.4613 18.3733Z" fill="#272727"/>
<path d="M57.476 3.58264V23.1495L75.3904 13.3547L57.476 3.58264Z" fill="#2F2F31"/>
<path d="M23.8983 18.3817L48.3757 31.7116V67.6108L23.8983 54.281V18.3817Z" fill="#CACACA"/>
<path d="M81.9513 13.3527L48.3757 31.7116V67.6108L81.9513 49.2519V13.3527Z" fill="#E6E6E6"/>
<path d="M125.266 122.687C131.031 119.231 132.886 113.755 131.035 111.535C127.392 107.165 115.851 117.124 111.462 120.541C109.6 121.991 107.941 123.152 107.692 125.605C107.565 126.859 108.385 128.1 109.545 128.717C110.704 129.335 111.748 128.446 113.031 128.116C114.085 127.847 115.278 128.738 116.24 128.168C118.049 127.095 121.915 124.695 125.266 122.687Z" fill="#F3A984"/>
<path d="M95.3092 123.866C93.7597 123.995 96.0719 123.41 95.3135 121.952C94.7803 120.924 95.1321 120.058 96.7997 119.803C100.76 119.196 104.72 118.589 108.68 117.979C111.348 117.569 113.084 117.946 116.709 117.461C117.667 117.333 118.67 117.805 119.31 118.57C120.503 119.991 123.463 124.239 121.876 124.606C120.567 124.909 114.939 124.873 113.346 125.118C108.614 125.847 98.6093 123.593 95.3092 123.866Z" fill="#F3A984"/>
<path d="M133.446 216.593C135.074 216.067 136.94 215.574 137.277 214.171C139.08 206.643 135.572 180.659 137.946 177.005C138.711 175.829 139.895 174.772 141.182 174.125C142.861 173.282 145.247 173.415 146.327 174.898C146.93 175.727 146.924 176.811 147.024 177.776C147.182 179.266 148.06 180.731 147.986 182.238C147.962 182.714 147.759 183.16 147.745 183.64C147.684 185.764 151.948 194.989 149.199 203.041C149.103 203.323 145.26 212.917 146.596 217.322C146.817 218.052 147.256 218.783 147.066 219.521C146.952 219.966 146.613 220.339 146.205 220.582C145.796 220.826 145.322 220.953 144.847 221.032C144.004 221.17 143.143 221.166 142.286 221.199C141.268 221.239 140.251 221.336 139.244 221.487C137.148 221.802 134.895 221.541 133.369 221.058L133.446 216.593Z" fill="#F3A984"/>
<path d="M136.512 220.269C139.034 220.396 142.17 219.954 144.312 219.301C145.918 218.81 146.502 217.569 146.502 217.569C146.629 217.495 147.315 218.384 147.459 219.287C147.713 220.882 146.873 222.555 144.909 222.971C143.759 223.216 142.55 223.197 141.41 222.923C140.621 222.735 138.77 222.008 136.479 222.455L136.512 220.269Z" fill="#4B3D46"/>
<path d="M124.968 223.263L124.975 222.915C127.014 223.013 129.715 221.398 130.139 220.841C132.945 217.128 131.562 211.691 131.479 210.806C130.836 206.724 129.678 202.702 129.551 198.578C129.448 195.267 129.792 192.041 129.302 188.742C129.254 188.415 129.486 180.996 129.3 180.903L139.845 177.035C140.854 177.285 139.408 186.767 139.76 187.698C144.061 199.084 139.416 209.768 138.16 217.262C138.16 217.262 137.605 221.388 138.483 223.508C140.868 229.262 135.38 228.642 133.951 228.705C132.829 228.752 131.726 227.876 130.659 228.189C128.786 228.738 129.363 230.01 125.742 229.163L122.881 225.076L122.781 223.232L124.968 223.263Z" fill="#FFBFA2"/>
<path d="M125.899 222.886C125.628 222.928 117.673 222.296 121.091 226.403C122.501 228.098 125.783 230.669 128.002 230.166C129.324 229.865 131.14 228.715 133.013 228.91C133.835 228.995 134.608 229.461 135.417 229.666C138.356 230.408 139.593 228.792 139.714 227.287C139.842 225.688 138.761 224.169 138.761 224.169C137.897 225.92 135.767 226.256 133.634 226.51C131.618 226.751 128.146 228.245 126.039 226.904C123.432 225.24 124.607 223.129 125.899 222.886Z" fill="#4B3D46"/>
<path d="M121.821 111.401C120.324 112.457 113.536 114.606 111.226 118.377C106.118 126.72 116.834 136.585 120.61 143.104C122.916 147.082 122.748 147.654 122.809 147.718C123.451 148.386 138.212 154.175 143.392 150.626C144.338 149.977 147.625 144.219 147.625 144.219C147.625 144.219 140.981 131.471 141.984 118.168C142.732 108.286 135.299 101.89 121.821 111.401Z" fill="#F2F2F2"/>
<path d="M119.841 120.769C123.624 130.452 126.876 140.137 128.952 150.083C125.641 149.094 123.071 147.986 122.811 147.716C122.75 147.652 122.918 147.08 120.612 143.102C118.385 139.258 113.746 134.248 111.359 129.076C112.439 125.189 114.034 121.113 116.864 118.206C117.677 117.178 119.299 119.486 119.841 120.769Z" fill="#D9D9D9"/>
<path d="M122.811 147.716C131.005 151.096 141.394 150.572 147.625 144.217C155.449 158.216 151.795 161.79 156.236 177.478C158.08 183.991 156.242 184.538 154.341 186.906C151.391 190.58 147.737 189.291 143.711 190.903C136.252 193.891 137.707 192.018 133.485 192.493C129.713 192.917 129.56 194.989 122.252 192.696C121.006 192.304 119.627 191.805 119.081 190.673C117.286 186.946 117.575 164.944 122.811 147.716Z" fill="#32272D"/>
<path d="M131.144 149.696C128.281 149.476 125.434 148.798 122.811 147.717C118.781 160.974 117.682 177.058 118.208 185.466C119.638 185.336 121.047 185.197 122.4 185.131C127.21 173.724 130.948 161.913 131.144 149.696Z" fill="#275EBE"/>
<path d="M128.159 102.379C128.836 105.837 128.915 106.554 129.429 107.385C129.837 108.044 131.603 109.513 129.597 112.281C127.604 115.035 123.572 115.497 120.654 114.446C117.463 113.298 120.68 109.809 116.79 107.016L128.159 102.379Z" fill="#FFBFA2"/>
<path d="M110.975 91.3115C108.89 94.4591 110.905 96.5146 110.97 99.3969C111.007 101.011 112.26 102.843 112.933 104.333C114.36 107.488 115.488 106.473 116.792 107.018C118.077 107.553 117.544 108.375 121.482 107.327C124.682 106.475 126.05 105.791 128.166 101.475C135.323 86.8772 116.117 83.5515 110.975 91.3115Z" fill="#FFBFA2"/>
<path d="M127.925 87.2378C127.696 86.8814 127.46 86.5291 127.127 86.2183C125.735 84.9253 123.921 84.055 122.02 83.6738C118.357 82.9402 114.786 84.1152 113.617 84.8114C112.904 85.2341 106.56 90.0869 110.542 93.767C111.346 94.5109 111.823 95.6754 112.371 96.5933C112.607 96.9891 112.869 97.4077 113.3 97.6107C114.139 98.0044 115.142 97.3994 116.065 97.5486C116.602 97.6356 117.066 97.9796 117.391 98.394C117.719 98.8084 117.929 99.2933 118.136 99.772C118.462 100.524 118.578 101.181 118.786 101.944C118.995 102.716 119.343 103.527 120.005 104.051C122.013 105.644 125.987 104.389 127.359 103.545C130.122 101.846 131.311 97.7786 131.223 94.8466C131.203 94.1835 131.125 93.5225 131.022 92.8656C130.913 92.1694 130.773 91.4711 130.491 90.8184C130.065 89.8383 129.339 89.0177 128.625 88.2158C128.347 87.9071 128.139 87.5693 127.925 87.2378Z" fill="#32272D"/>
<path d="M115.579 96.7157C117.033 95.8082 118.479 97.3788 118.263 99.3121C118.2 99.8757 117.876 100.52 117.671 101.051C116.27 104.691 114.176 102.692 114.591 101.486C115.555 98.6822 113.75 97.8596 115.579 96.7157Z" fill="#FFBFA2"/>
<path d="M116.738 99.6644C116.821 99.4199 117.968 97.5301 116.401 97.5052C115.968 97.499 115.767 97.9632 115.912 98.3154C115.988 98.4978 116.148 98.6428 116.22 98.8252C116.263 98.9329 116.276 99.051 116.272 99.167C116.261 99.4861 115.874 99.9917 116.183 100.284C116.456 100.541 116.69 99.8032 116.738 99.6644Z" fill="#F3A984"/>
<path d="M139.886 126.517C138.726 126.792 138.496 126.195 135.553 124.813C128.662 121.579 131.839 115.586 130.15 107.801C129.368 104.194 127.823 100.708 125.414 97.7992C124.208 96.3425 122.781 95.0102 121.972 93.3256C121.408 92.1507 121.174 90.8556 121.107 89.5668C121.056 88.6281 121.111 87.6231 121.686 86.8585C125.062 82.3662 138.94 89.3492 141.108 108.516C141.296 110.17 141.403 111.838 141.298 113.498C141.189 115.205 140.852 116.894 140.691 118.599C140.063 125.161 141.536 126.123 139.886 126.517Z" fill="#261D22"/>
<path d="M86.6611 122.02C87.0523 120.748 85.1727 122.551 89.0257 120.189C93.3465 117.541 92.5925 119.281 96.9722 120.05C97.2388 120.097 98.8932 120.313 99.2123 120.829C99.4265 121.175 97.2891 123.098 96.4542 123.61C91.3489 126.73 86.1103 123.817 86.6611 122.02Z" fill="#F3A984"/>
<path d="M82.1196 144.532C81.9514 145.164 81.9623 145.825 82.0038 146.475C82.0278 146.875 82.0934 147.323 82.4322 147.559C82.6463 147.708 82.9239 147.735 83.1883 147.758C84.6679 147.878 86.1518 147.944 87.6358 147.955C88.0095 147.957 88.392 147.957 88.746 147.839C89.2268 147.679 89.6027 147.325 90.0442 147.089C91.0299 146.558 92.2494 146.641 93.3268 146.305C94.0436 146.084 94.6818 145.682 95.309 145.284C95.768 144.992 96.2357 144.697 96.6028 144.308C97.2476 143.626 97.5492 142.665 97.4049 141.759C97.2585 140.854 96.6684 140.021 95.8401 139.552C94.5725 138.835 92.9684 139.001 91.5347 139.333C88.7198 139.985 86.0513 141.198 83.75 142.868C83.5402 143.021 83.1796 143.135 83.0594 142.88C83.125 143.154 82.2355 144.099 82.1196 144.532Z" fill="#FFAB00"/>
<path d="M96.0849 143.477C94.6097 142.665 95.6216 142.87 88.4204 142.285C87.2687 142.192 87.3714 143.344 89.5001 143.678C90.0792 143.767 90.6453 143.918 91.1916 144.125C91.9238 144.401 89.5044 145.433 88.8619 145.572C87.7626 145.812 86.6065 145.868 85.564 146.278C85.2165 146.415 84.7445 146.873 85.3302 147.074C86.8906 147.606 92.2254 145.46 87.4807 148.224C86.9977 148.506 86.4776 148.833 86.3246 149.349C86.2743 149.517 86.2524 149.664 86.412 149.753C87.0655 150.128 88.945 148.425 90.6016 148.013C91.0365 147.905 90.8463 148.284 90.6343 148.442C88.3636 150.147 88.7286 150.74 89.3624 150.603C90.3065 150.396 93.4536 146.931 91.9587 149.637C91.2332 150.955 92.5139 150.518 93.1389 149.646C95.9844 145.671 100.419 147.627 98.03 144.368C97.8027 144.057 98.7075 143.172 98.2529 143.28C97.8945 143.367 96.4106 143.657 96.0849 143.477Z" fill="#FFBFA2"/>
<path d="M115.197 139.024L107.723 139.979C107.423 138.701 108.444 115.684 115.309 116.776C118.253 117.244 120.753 122.486 118.921 128.715C116.729 136.179 116.205 138.529 116.205 138.529C116.076 138.955 115.645 139.217 115.256 139.445L115.197 139.024Z" fill="#FFBFA2"/>
<path d="M100.607 145.69C98.8715 146.486 93.6001 148.108 92.9795 145.731C92.7915 145.01 94.0678 143.549 95.6545 143.23C99.1163 142.532 105.966 137.217 108.647 135.391C109.355 134.911 110.45 133.945 111.298 134.378C112.878 135.184 116.873 137.59 116.089 138.781C114.808 140.727 103.286 144.459 100.607 145.69Z" fill="#FFBFA2"/>
<path d="M147.931 144.695C146.845 146.048 142.644 148.684 138.055 149.554C135.581 150.021 126.151 150.924 122.82 147.741C122.82 147.741 126.891 148.717 127.831 148.883C128.917 149.076 130.025 149.115 131.14 149.121C135.448 149.138 140.522 149.215 145.872 145.224C146.421 144.813 146.889 144.304 147.45 143.922C147.619 144.177 147.793 144.428 147.931 144.695Z" fill="#275EBE"/>
<path d="M138.925 143.267C137.592 142.872 136.722 143.717 136.304 144.894C135.126 148.205 140.129 148.69 142.264 147.306C142.365 147.329 142.474 147.341 142.596 147.337C142.806 147.331 142.902 147.113 142.738 146.976C141.93 146.307 141.81 145.288 141.115 144.542C140.555 143.947 139.722 143.504 138.925 143.267ZM140.007 144.567C140.605 144.989 140.903 145.534 141.202 146.154C141.351 146.46 141.501 146.763 141.711 146.985C140.896 147.057 140.074 147.329 139.257 147.354C138.346 147.383 137.235 147.163 136.921 146.224C136.735 145.673 136.958 144.637 137.469 144.258C138.317 143.628 139.274 144.049 140.007 144.567Z" fill="#275EBE"/>
<path d="M145.427 140.702C144.107 140.02 142.972 141.224 142.516 142.275C141.821 143.866 141.808 145.617 142.638 147.153C142.634 147.155 142.627 147.161 142.627 147.161C142.336 147.364 142.669 147.741 142.964 147.625C144.513 147.022 146.08 145.686 146.513 144.109C146.817 142.992 146.624 141.32 145.427 140.702ZM145.197 145.049C144.64 145.884 143.816 146.369 142.996 146.91C142.972 146.021 142.76 145.136 142.848 144.248C142.937 143.321 143.833 140.172 145.468 141.885C146.235 142.691 145.72 144.266 145.197 145.049Z" fill="#275EBE"/>
<path d="M142.787 146.554C142.817 146.461 142.697 146.38 142.616 146.448C141.054 147.774 142.592 149.316 143.034 150.725C143.294 151.556 143.128 152.196 142.918 153.008C142.819 153.39 142.656 153.711 142.719 154.117C142.793 154.585 142.988 154.826 143.42 155.008C143.619 155.093 143.777 154.826 143.646 154.687C143.036 154.042 143.643 153.073 143.772 152.381C143.871 151.842 143.847 151.299 143.709 150.771C143.562 150.215 143.226 149.768 142.972 149.256C142.483 148.267 142.45 147.584 142.787 146.554Z" fill="#275EBE"/>
<path d="M146.449 150.344C145.473 149.069 142.68 148.674 142.789 146.755C142.795 146.635 142.605 146.556 142.54 146.676C142.12 147.445 142.618 148.085 143.204 148.64C143.683 149.094 144.222 149.473 144.773 149.842C145.35 150.23 145.96 150.507 146.187 151.255C146.224 151.378 146.331 152.217 146.238 152.294C146.117 152.389 146.178 152.548 146.305 152.602C146.336 152.615 146.366 152.629 146.397 152.642C146.471 152.675 146.592 152.65 146.646 152.594C147.186 152.043 146.865 150.889 146.449 150.344Z" fill="#275EBE"/>
<path d="M94.2665 118.234L94.5222 117.588C94.6992 117.145 94.5681 116.589 94.0872 116.03C93.1213 114.903 91.1084 114.179 89.5917 114.414C88.8268 114.532 88.3351 114.869 88.1558 115.319L87.9001 115.966C88.0794 115.516 88.5711 115.178 89.336 115.06C90.8549 114.826 92.8677 115.549 93.8315 116.674C94.3124 117.236 94.4435 117.789 94.2665 118.234Z" fill="#D9D9D9"/>
<mask id="mask5_9_8819" style="mask-type:luminance" maskUnits="userSpaceOnUse" x="87" y="114" width="8" height="5">
<path d="M94.2665 118.234L94.5222 117.588C94.6992 117.145 94.5681 116.589 94.0872 116.03C93.1213 114.903 91.1084 114.179 89.5917 114.414C88.8268 114.532 88.3351 114.869 88.1558 115.319L87.9001 115.966C88.0794 115.516 88.5711 115.178 89.336 115.06C90.8549 114.826 92.8677 115.549 93.8315 116.674C94.3124 117.236 94.4435 117.789 94.2665 118.234Z" fill="white"/>
</mask>
<g mask="url(#mask5_9_8819)">
<path d="M94.2663 118.234L94.522 117.588C94.6991 117.145 94.5679 116.589 94.0871 116.03C93.827 115.727 93.4927 115.454 93.1124 115.22L92.8567 115.866C93.237 116.1 93.5713 116.374 93.8314 116.676C94.3122 117.236 94.4434 117.789 94.2663 118.234Z" fill="#D9D9D9"/>
<path d="M92.8568 115.866L93.1125 115.22C92.623 114.919 92.0591 114.685 91.4821 114.54L91.2264 115.187C91.8056 115.332 92.3694 115.566 92.8568 115.866Z" fill="#D9D9D9"/>
<path d="M91.2287 115.186L91.4844 114.54C90.855 114.38 90.2102 114.326 89.6333 114.409L89.3776 115.056C89.9545 114.973 90.5971 115.027 91.2287 115.186Z" fill="#F2F2F2"/>
<path d="M89.3775 115.054L89.6332 114.407C89.6201 114.41 89.6048 114.412 89.5917 114.414C89.0977 114.49 88.7175 114.658 88.464 114.888L88.2083 115.535C88.464 115.305 88.8442 115.137 89.3381 115.06C89.3491 115.058 89.3644 115.056 89.3775 115.054Z" fill="#D9D9D9"/>
<path d="M88.2083 115.535L88.464 114.888C88.3241 115.015 88.2214 115.16 88.158 115.319L87.9023 115.966C87.9635 115.808 88.0663 115.661 88.2083 115.535Z" fill="#D9D9D9"/>
</g>
<path d="M92.8305 119.14C94.3494 118.906 94.7975 117.802 93.8315 116.676C92.8677 115.551 90.8527 114.826 89.3359 115.062C87.817 115.296 87.369 116.399 88.335 117.526C89.301 118.651 91.3116 119.374 92.8305 119.14Z" fill="#D9D9D9"/>
<path d="M90.1185 128.643L94.2841 118.158C94.4611 117.712 94.33 117.159 93.8491 116.6C92.8832 115.472 90.8725 114.749 89.3536 114.983C88.5887 115.102 88.0969 115.439 87.9177 115.889L83.7522 126.374C83.9314 125.924 84.4231 125.586 85.1881 125.468C86.707 125.234 88.7198 125.957 89.6836 127.085C90.1644 127.644 90.2955 128.197 90.1185 128.643Z" fill="#FF6A00"/>
<mask id="mask6_9_8819" style="mask-type:luminance" maskUnits="userSpaceOnUse" x="83" y="114" width="12" height="15">
<path d="M90.1185 128.643L94.2841 118.158C94.4611 117.712 94.33 117.159 93.8491 116.6C92.8832 115.472 90.8725 114.749 89.3536 114.983C88.5887 115.102 88.0969 115.439 87.9177 115.889L83.7522 126.374C83.9314 125.924 84.4231 125.586 85.1881 125.468C86.707 125.234 88.7198 125.957 89.6836 127.085C90.1644 127.644 90.2955 128.197 90.1185 128.643Z" fill="white"/>
</mask>
<g mask="url(#mask6_9_8819)">
<path d="M90.1184 128.643L94.2839 118.158C94.4609 117.712 94.3298 117.159 93.849 116.6C93.5889 116.297 93.2545 116.024 92.8743 115.79L88.7087 126.274C89.089 126.509 89.4234 126.782 89.6835 127.085C90.1643 127.644 90.2954 128.197 90.1184 128.643Z" fill="#FF6A00"/>
<path d="M88.7111 126.274L92.8766 115.789C92.387 115.489 91.8232 115.255 91.2462 115.11L87.0807 125.594C87.6577 125.74 88.2215 125.974 88.7111 126.274Z" fill="#FF6A00"/>
<path d="M87.0807 125.594L91.2463 115.11C90.6168 114.95 89.9721 114.896 89.3951 114.979L85.2296 125.464C85.8066 125.381 86.4513 125.435 87.0807 125.594Z" fill="#FF8C00"/>
<path d="M85.2297 125.462L89.3952 114.977C89.3821 114.979 89.3668 114.981 89.3537 114.983C88.8597 115.06 88.4795 115.228 88.2238 115.458L84.0582 125.943C84.3139 125.713 84.6942 125.545 85.1881 125.468C85.2034 125.466 85.2165 125.464 85.2297 125.462Z" fill="#FF6A00"/>
<path d="M84.0602 125.943L88.2258 115.458C88.0859 115.585 87.9832 115.73 87.9198 115.889L83.7543 126.374C83.8155 126.214 83.9182 126.069 84.0602 125.943Z" fill="#FF6A00"/>
</g>
<path d="M88.6826 129.548C90.2015 129.314 90.6495 128.212 89.6835 127.085C88.7175 125.957 86.7047 125.234 85.188 125.468C83.6691 125.702 83.221 126.807 84.187 127.932C85.153 129.059 87.1658 129.782 88.6826 129.548Z" fill="#FF6A00"/>
<path d="M89.0649 130.348L90.0921 128.661C90.2691 128.218 90.138 127.663 89.6572 127.103C88.6912 125.976 86.6784 125.253 85.1617 125.487C84.3967 125.605 83.905 125.943 83.7258 126.392L83.3346 128.305C83.4963 127.901 83.94 127.596 84.6262 127.491C85.9921 127.279 87.8039 127.93 88.6715 128.945C89.1065 129.449 89.2245 129.948 89.0649 130.348Z" fill="#D9D9D9"/>
<mask id="mask7_9_8819" style="mask-type:luminance" maskUnits="userSpaceOnUse" x="83" y="125" width="8" height="6">
<path d="M89.0649 130.348L90.0921 128.661C90.2691 128.218 90.138 127.663 89.6572 127.103C88.6912 125.976 86.6784 125.253 85.1617 125.487C84.3967 125.605 83.905 125.943 83.7258 126.392L83.3346 128.305C83.4963 127.901 83.94 127.596 84.6262 127.491C85.9921 127.279 87.8039 127.93 88.6715 128.945C89.1065 129.449 89.2245 129.948 89.0649 130.348Z" fill="white"/>
</mask>
<g mask="url(#mask7_9_8819)">
<path d="M89.065 130.348L90.0922 128.661C90.2693 128.218 90.1381 127.662 89.6573 127.103C89.3972 126.8 89.0629 126.527 88.6826 126.293L87.7953 128.216C88.1384 128.425 88.44 128.671 88.6717 128.945C89.1066 129.449 89.2246 129.948 89.065 130.348Z" fill="#D9D9D9"/>
<path d="M87.7974 128.218L88.6847 126.295C88.1952 125.995 87.6313 125.76 87.0543 125.615L86.3309 127.607C86.8489 127.735 87.3581 127.947 87.7974 128.218Z" fill="#D9D9D9"/>
<path d="M86.331 127.604L87.0544 125.613C86.425 125.453 85.7802 125.4 85.2033 125.482L84.6635 127.486C85.1836 127.412 85.7628 127.461 86.331 127.604Z" fill="#F2F2F2"/>
<path d="M84.6656 127.487L85.2054 125.483C85.1923 125.485 85.177 125.487 85.1639 125.489C84.67 125.566 84.2897 125.734 84.0362 125.964L83.6144 127.92C83.8439 127.712 84.187 127.561 84.6306 127.493C84.6394 127.491 84.6525 127.489 84.6656 127.487Z" fill="#D9D9D9"/>
<path d="M83.6123 127.92L84.0341 125.964C83.8942 126.09 83.7915 126.235 83.7281 126.395L83.3369 128.307C83.3937 128.164 83.4855 128.034 83.6123 127.92Z" fill="#D9D9D9"/>
</g>
<path d="M87.7734 131.162C89.1393 130.951 89.5436 129.959 88.6738 128.945C87.8062 127.932 85.9944 127.281 84.6285 127.491C83.2625 127.702 82.8582 128.695 83.728 129.708C84.5957 130.723 86.4074 131.374 87.7734 131.162Z" fill="#F2F2F2"/>
<path d="M88.8027 131.057L89.0672 130.392C89.2267 129.987 89.1087 129.486 88.6738 128.978C87.7974 127.957 85.9725 127.3 84.5957 127.513C83.9029 127.621 83.4549 127.926 83.2931 128.336L83.0309 129.001C83.1926 128.593 83.6406 128.286 84.3334 128.179C85.7103 127.965 87.5352 128.622 88.4115 129.644C88.8443 130.151 88.9645 130.653 88.8027 131.057Z" fill="#4B3D46"/>
<mask id="mask8_9_8819" style="mask-type:luminance" maskUnits="userSpaceOnUse" x="83" y="127" width="7" height="5">
<path d="M88.8027 131.057L89.0672 130.392C89.2267 129.987 89.1087 129.486 88.6738 128.978C87.7974 127.957 85.9725 127.3 84.5957 127.513C83.9029 127.621 83.4549 127.926 83.2931 128.336L83.0309 129.001C83.1926 128.593 83.6406 128.286 84.3334 128.179C85.7103 127.965 87.5352 128.622 88.4115 129.644C88.8443 130.151 88.9645 130.653 88.8027 131.057Z" fill="white"/>
</mask>
<g mask="url(#mask8_9_8819)">
<path d="M88.8026 131.057L89.067 130.392C89.2266 129.987 89.1086 129.486 88.6736 128.978C88.4376 128.705 88.1338 128.456 87.7907 128.245L87.5284 128.91C87.8737 129.121 88.1775 129.37 88.4136 129.644C88.8441 130.151 88.9643 130.653 88.8026 131.057Z" fill="#4B3D46"/>
<path d="M87.5262 128.908L87.7885 128.243C87.3448 127.971 86.8334 127.758 86.3111 127.625L86.0488 128.29C86.5712 128.423 87.0826 128.637 87.5262 128.908Z" fill="#4B3D46"/>
<path d="M86.0491 128.292L86.3113 127.627C85.7409 127.482 85.1552 127.434 84.6329 127.509L84.3706 128.174C84.8929 128.097 85.4765 128.147 86.0491 128.292Z" fill="#4B3D46"/>
<path d="M84.3683 128.173L84.6306 127.507C84.6175 127.51 84.6065 127.512 84.5934 127.514C84.1454 127.582 83.8023 127.735 83.5706 127.945L83.3083 128.608C83.54 128.398 83.8853 128.247 84.3312 128.177C84.3443 128.177 84.3574 128.175 84.3683 128.173Z" fill="#4B3D46"/>
<path d="M83.3084 128.607L83.5707 127.944C83.4439 128.058 83.35 128.191 83.2931 128.336L83.0309 129.001C83.0877 128.856 83.1817 128.723 83.3084 128.607Z" fill="#4B3D46"/>
</g>
<path d="M87.5024 131.877C88.8793 131.664 89.2858 130.663 88.4116 129.641C87.5352 128.62 85.7104 127.963 84.3335 128.176C82.9566 128.39 82.5501 129.391 83.4243 130.412C84.2985 131.434 86.1256 132.09 87.5024 131.877Z" fill="#665861"/>
<path d="M87.3037 131.647C88.5079 131.461 88.8641 130.586 88.0992 129.691C87.3321 128.796 85.7345 128.224 84.5303 128.408C83.3261 128.595 82.9699 129.469 83.7348 130.365C84.5019 131.26 86.0995 131.834 87.3037 131.647Z" fill="#4B3D46"/>
<path d="M85.9877 130.242C85.8806 130.259 85.7408 130.207 85.6708 130.128C85.6031 130.05 85.6337 129.971 85.7408 129.954C85.8479 129.938 85.9899 129.99 86.0577 130.068C86.1254 130.147 86.0948 130.226 85.9877 130.242Z" fill="#32272D"/>
<path d="M85.3256 130.344C85.2185 130.361 85.0765 130.309 85.0087 130.23C84.941 130.151 84.9716 130.073 85.0787 130.056C85.1858 130.04 85.3256 130.091 85.3956 130.17C85.4633 130.251 85.4327 130.328 85.3256 130.344Z" fill="#32272D"/>
<path d="M84.6701 130.454C84.563 130.47 84.4231 130.419 84.3532 130.34C84.2855 130.261 84.3161 130.182 84.4232 130.166C84.5302 130.149 84.6723 130.201 84.74 130.28C84.8078 130.359 84.7772 130.437 84.6701 130.454Z" fill="#32272D"/>
<path d="M84.3051 129.93C84.1783 129.905 84.0712 129.822 84.0668 129.745C84.0603 129.669 84.1586 129.627 84.2854 129.652C84.4121 129.677 84.5192 129.76 84.5258 129.837C84.5302 129.913 84.4318 129.955 84.3051 129.93Z" fill="#32272D"/>
<path d="M84.3576 129.451C84.2461 129.391 84.2024 129.298 84.2593 129.244C84.3183 129.19 84.456 129.196 84.5674 129.256C84.6789 129.316 84.7248 129.409 84.6658 129.463C84.6089 129.517 84.4712 129.511 84.3576 129.451Z" fill="#32272D"/>
<path d="M84.8143 129.146C84.7465 129.068 84.7771 128.989 84.8842 128.972C84.9913 128.956 85.1312 129.007 85.2011 129.086C85.2689 129.165 85.2383 129.244 85.1312 129.26C85.0241 129.277 84.882 129.225 84.8143 129.146Z" fill="#32272D"/>
<path d="M85.5506 129.097C85.544 129.02 85.6424 128.979 85.7691 129.003C85.8959 129.028 86.003 129.111 86.0096 129.188C86.0161 129.264 85.9178 129.306 85.791 129.281C85.6642 129.256 85.5572 129.173 85.5506 129.097Z" fill="#32272D"/>
<path d="M86.3723 129.316C86.4313 129.262 86.569 129.269 86.6805 129.329C86.7919 129.389 86.8378 129.482 86.7788 129.536C86.7198 129.59 86.5821 129.584 86.4707 129.524C86.357 129.461 86.3133 129.37 86.3723 129.316Z" fill="#32272D"/>
<path d="M87.0566 129.743C87.1637 129.726 87.3057 129.778 87.3735 129.857C87.4412 129.936 87.4106 130.014 87.3035 130.031C87.1964 130.048 87.0544 129.996 86.9866 129.917C86.9189 129.838 86.9495 129.76 87.0566 129.743Z" fill="#32272D"/>
<path d="M87.4217 130.267C87.5485 130.292 87.6556 130.375 87.6621 130.452C87.6687 130.529 87.5704 130.57 87.4436 130.545C87.3168 130.52 87.2097 130.437 87.2032 130.361C87.1966 130.284 87.295 130.243 87.4217 130.267Z" fill="#32272D"/>
<path d="M87.369 130.746C87.4805 130.806 87.5242 130.899 87.4674 130.953C87.4084 131.007 87.2707 131.001 87.1592 130.941C87.0478 130.881 87.0019 130.787 87.0609 130.734C87.1199 130.68 87.2576 130.686 87.369 130.746Z" fill="#32272D"/>
<path d="M86.9146 131.051C86.9824 131.129 86.9518 131.208 86.8447 131.225C86.7376 131.241 86.5955 131.19 86.5278 131.111C86.46 131.032 86.4906 130.953 86.5977 130.937C86.7026 130.92 86.8447 130.972 86.9146 131.051Z" fill="#32272D"/>
<path d="M86.1758 131.1C86.1824 131.177 86.084 131.218 85.9573 131.194C85.8305 131.169 85.7234 131.086 85.7169 131.009C85.7103 130.932 85.8086 130.891 85.9354 130.916C86.0644 130.941 86.1714 131.024 86.1758 131.1Z" fill="#32272D"/>
<path d="M85.3563 130.883C85.2973 130.936 85.1596 130.93 85.0481 130.87C84.9367 130.81 84.8908 130.717 84.9498 130.663C85.0088 130.609 85.1465 130.615 85.258 130.675C85.3694 130.735 85.4131 130.829 85.3563 130.883Z" fill="#32272D"/>
<path d="M85.0613 129.822C84.9499 129.762 84.9062 129.668 84.963 129.615C85.022 129.561 85.1597 129.567 85.2711 129.627C85.3826 129.687 85.4285 129.78 85.3695 129.834C85.3105 129.888 85.1728 129.882 85.0613 129.822Z" fill="#32272D"/>
<path d="M85.5989 129.575C85.5924 129.499 85.6907 129.457 85.8175 129.482C85.9442 129.507 86.0513 129.59 86.0579 129.666C86.0644 129.743 85.9661 129.785 85.8393 129.76C85.7104 129.735 85.6033 129.652 85.5989 129.575Z" fill="#32272D"/>
<path d="M86.4008 129.853C86.5079 129.836 86.65 129.888 86.7177 129.967C86.7855 130.046 86.7549 130.124 86.6478 130.141C86.5407 130.158 86.3986 130.106 86.3309 130.027C86.2631 129.948 86.2937 129.87 86.4008 129.853Z" fill="#32272D"/>
<path d="M86.6654 130.375C86.7791 130.435 86.8228 130.528 86.7638 130.582C86.7048 130.636 86.5671 130.63 86.4556 130.57C86.3442 130.51 86.2983 130.416 86.3573 130.362C86.4163 130.309 86.554 130.315 86.6654 130.375Z" fill="#32272D"/>
<path d="M86.1299 130.622C86.1365 130.698 86.0381 130.74 85.9114 130.715C85.7846 130.69 85.6775 130.607 85.671 130.531C85.6644 130.454 85.7628 130.412 85.8895 130.437C86.0163 130.462 86.1234 130.545 86.1299 130.622Z" fill="#32272D"/>
<path d="M85.0613 129.822C84.9499 129.762 84.9062 129.668 84.963 129.615C85.022 129.561 85.1597 129.567 85.2711 129.627C85.3826 129.687 85.4285 129.78 85.3695 129.834C85.3105 129.888 85.1728 129.882 85.0613 129.822Z" fill="#32272D"/>
<path d="M85.5989 129.575C85.5924 129.499 85.6907 129.457 85.8175 129.482C85.9442 129.507 86.0513 129.59 86.0579 129.666C86.0644 129.743 85.9661 129.785 85.8393 129.76C85.7104 129.735 85.6033 129.652 85.5989 129.575Z" fill="#32272D"/>
<path d="M91.5697 122.346C90.6037 121.223 88.5953 120.501 87.0786 120.736C86.3136 120.854 85.8219 121.192 85.6427 121.641L86.4994 119.43C86.6786 118.981 87.1704 118.643 87.9353 118.525C89.4542 118.291 91.467 119.014 92.4308 120.141C92.4352 120.145 92.4396 120.151 92.4439 120.155L91.5697 122.346Z" fill="#F2F2F2"/>
<path d="M90.4638 118.162C88.9012 118.011 88.8378 119.525 91.4254 119.805C93.0536 119.981 93.2394 120.495 93.7792 120.876C94.9615 121.711 97.6497 121.019 95.7527 119.304C94.7933 118.435 94.8566 118.585 90.4638 118.162Z" fill="#FFBFA2"/>
<path d="M86.6588 120.056C86.9036 120.12 87.0697 120.375 87.0369 120.615C87.0041 120.855 86.7899 121.056 86.5408 121.102C86.7659 121.17 86.8271 121.473 86.7112 121.668C86.5954 121.865 86.3681 121.972 86.1452 122.051C86.3441 122.219 86.3069 122.54 86.1387 122.737C85.9704 122.932 85.7125 123.033 85.4655 123.128C85.3431 123.174 85.2207 123.222 85.0896 123.228C84.9038 123.238 84.6219 123.112 84.5564 122.936C84.5214 122.845 84.5258 122.743 84.5301 122.646C84.5367 122.467 84.5498 122.271 84.6766 122.138C84.7836 122.024 84.9519 121.978 85.0656 121.871C85.389 121.568 85.1333 120.967 85.4568 120.667C85.5464 120.584 85.671 120.536 85.7606 120.455C86.025 120.217 85.8917 119.842 86.0185 119.55C86.143 119.26 86.4228 118.997 86.7746 118.999C86.991 119.001 87.1112 119.152 87.1199 119.351C87.1243 119.5 87.0566 119.641 86.9669 119.759C86.9342 119.805 86.7112 120.07 86.6588 120.056Z" fill="#FFBFA2"/>
</svg>
